<svg xmlns="http://www.w3.org/2000/svg" xmlns:xlink="http://www.w3.org/1999/xlink" width="500" zoomAndPan="magnify" viewBox="0 0 375 374.999991" height="500" preserveAspectRatio="xMidYMid meet" version="1.2"><defs><clipPath id="3cab366a7e"><path d="M 64.679688 64.316406 L 310.316406 64.316406 L 310.316406 310.316406 L 64.679688 310.316406 Z M 64.679688 64.316406 "/></clipPath></defs><g id="9e76e34518"><g clip-rule="nonzero" clip-path="url(#3cab366a7e)"><path style=" stroke:none;fill-rule:evenodd;fill:#2ba8e0;fill-opacity:1;" d="M 310.316406 310.316406 L 310.316406 64.679688 L 266.394531 64.679688 L 266.394531 72.65625 L 302.265625 72.65625 L 302.265625 302.34375 L 266.394531 302.34375 L 266.394531 310.316406 Z M 108.605469 64.679688 L 64.679688 64.679688 L 64.679688 310.316406 L 108.605469 310.316406 L 108.605469 302.34375 L 72.65625 302.34375 L 72.65625 72.65625 L 108.605469 72.65625 Z M 108.605469 64.679688 "/></g><g style="fill:#112649;fill-opacity:1;"><g transform="translate(117.80859, 310.052)"><path style="stroke:none" d="M 2.734375 -6.375 C 3.410156 -6.375 3.9375 -6.222656 4.3125 -5.921875 C 4.695312 -5.628906 4.894531 -5.195312 4.90625 -4.625 C 4.90625 -4.0625 4.71875 -3.628906 4.34375 -3.328125 C 3.976562 -3.023438 3.484375 -2.867188 2.859375 -2.859375 L 1.546875 -2.859375 L 1.546875 0 L 0.796875 0 L 0.796875 -6.375 Z M 2.859375 -3.5625 C 3.242188 -3.5625 3.546875 -3.65625 3.765625 -3.84375 C 3.992188 -4.03125 4.109375 -4.285156 4.109375 -4.609375 C 4.109375 -4.941406 4 -5.203125 3.78125 -5.390625 C 3.5625 -5.578125 3.253906 -5.671875 2.859375 -5.671875 L 1.546875 -5.671875 L 1.546875 -3.5625 Z M 2.859375 -3.5625 "/></g></g><g style="fill:#112649;fill-opacity:1;"><g transform="translate(123.145622, 310.052)"><path style="stroke:none" d="M 2.671875 -4.3125 C 3.328125 -4.3125 3.859375 -4.109375 4.265625 -3.703125 C 4.679688 -3.304688 4.898438 -2.773438 4.921875 -2.109375 C 4.921875 -1.460938 4.707031 -0.929688 4.28125 -0.515625 C 3.863281 -0.109375 3.328125 0.0976562 2.671875 0.109375 C 2.015625 0.109375 1.476562 -0.0976562 1.0625 -0.515625 C 0.644531 -0.929688 0.429688 -1.460938 0.421875 -2.109375 C 0.421875 -2.753906 0.628906 -3.28125 1.046875 -3.6875 C 1.472656 -4.101562 2.015625 -4.3125 2.671875 -4.3125 Z M 1.171875 -2.109375 C 1.171875 -1.640625 1.3125 -1.265625 1.59375 -0.984375 C 1.875 -0.703125 2.234375 -0.554688 2.671875 -0.546875 C 3.109375 -0.546875 3.460938 -0.6875 3.734375 -0.96875 C 4.015625 -1.257812 4.160156 -1.640625 4.171875 -2.109375 C 4.171875 -2.566406 4.03125 -2.941406 3.75 -3.234375 C 3.46875 -3.523438 3.101562 -3.671875 2.65625 -3.671875 C 2.226562 -3.671875 1.875 -3.523438 1.59375 -3.234375 C 1.320312 -2.941406 1.179688 -2.566406 1.171875 -2.109375 Z M 1.171875 -2.109375 "/></g></g><g style="fill:#112649;fill-opacity:1;"><g transform="translate(128.491661, 310.052)"><path style="stroke:none" d="M 0.90625 -4.21875 L 1.859375 -0.96875 L 1.875 -0.96875 L 2.96875 -4.21875 L 3.703125 -4.21875 L 4.8125 -0.96875 L 4.828125 -0.96875 L 5.78125 -4.21875 L 6.546875 -4.21875 L 5.1875 0 L 4.484375 0 L 3.296875 -3.234375 L 3.28125 -3.234375 L 2.21875 0 L 1.5 0 L 0.125 -4.21875 Z M 0.90625 -4.21875 "/></g></g><g style="fill:#112649;fill-opacity:1;"><g transform="translate(135.160705, 310.052)"><path style="stroke:none" d="M 2.578125 -4.3125 C 3.203125 -4.3125 3.691406 -4.113281 4.046875 -3.71875 C 4.398438 -3.332031 4.578125 -2.78125 4.578125 -2.0625 L 4.578125 -1.890625 L 1.171875 -1.890625 C 1.210938 -1.503906 1.359375 -1.179688 1.609375 -0.921875 C 1.867188 -0.671875 2.1875 -0.546875 2.5625 -0.546875 C 3.132812 -0.546875 3.578125 -0.753906 3.890625 -1.171875 L 4.421875 -0.765625 C 4.203125 -0.472656 3.941406 -0.253906 3.640625 -0.109375 C 3.335938 0.0351562 2.976562 0.109375 2.5625 0.109375 C 1.925781 0.109375 1.410156 -0.0976562 1.015625 -0.515625 C 0.628906 -0.929688 0.429688 -1.460938 0.421875 -2.109375 C 0.421875 -2.742188 0.617188 -3.265625 1.015625 -3.671875 C 1.421875 -4.085938 1.941406 -4.300781 2.578125 -4.3125 Z M 3.828125 -2.484375 C 3.804688 -2.847656 3.6875 -3.132812 3.46875 -3.34375 C 3.25 -3.5625 2.941406 -3.671875 2.546875 -3.671875 C 2.179688 -3.671875 1.875 -3.566406 1.625 -3.359375 C 1.382812 -3.160156 1.234375 -2.867188 1.171875 -2.484375 Z M 3.828125 -2.484375 "/></g></g><g style="fill:#112649;fill-opacity:1;"><g transform="translate(140.164737, 310.052)"><path style="stroke:none" d="M 2.734375 -4.3125 C 2.835938 -4.3125 2.9375 -4.300781 3.03125 -4.28125 L 2.984375 -3.5625 C 2.847656 -3.601562 2.71875 -3.625 2.59375 -3.625 C 2.1875 -3.625 1.878906 -3.488281 1.671875 -3.21875 C 1.472656 -2.945312 1.375 -2.570312 1.375 -2.09375 L 1.375 0 L 0.671875 0 L 0.671875 -3.28125 C 0.671875 -3.363281 0.65625 -3.675781 0.625 -4.21875 L 1.296875 -4.21875 C 1.304688 -3.789062 1.3125 -3.554688 1.3125 -3.515625 L 1.328125 -3.515625 C 1.441406 -3.753906 1.625 -3.945312 1.875 -4.09375 C 2.132812 -4.238281 2.421875 -4.3125 2.734375 -4.3125 Z M 2.734375 -4.3125 "/></g></g><g style="fill:#112649;fill-opacity:1;"><g transform="translate(143.170756, 310.052)"><path style="stroke:none" d="M 2.578125 -4.3125 C 3.203125 -4.3125 3.691406 -4.113281 4.046875 -3.71875 C 4.398438 -3.332031 4.578125 -2.78125 4.578125 -2.0625 L 4.578125 -1.890625 L 1.171875 -1.890625 C 1.210938 -1.503906 1.359375 -1.179688 1.609375 -0.921875 C 1.867188 -0.671875 2.1875 -0.546875 2.5625 -0.546875 C 3.132812 -0.546875 3.578125 -0.753906 3.890625 -1.171875 L 4.421875 -0.765625 C 4.203125 -0.472656 3.941406 -0.253906 3.640625 -0.109375 C 3.335938 0.0351562 2.976562 0.109375 2.5625 0.109375 C 1.925781 0.109375 1.410156 -0.0976562 1.015625 -0.515625 C 0.628906 -0.929688 0.429688 -1.460938 0.421875 -2.109375 C 0.421875 -2.742188 0.617188 -3.265625 1.015625 -3.671875 C 1.421875 -4.085938 1.941406 -4.300781 2.578125 -4.3125 Z M 3.828125 -2.484375 C 3.804688 -2.847656 3.6875 -3.132812 3.46875 -3.34375 C 3.25 -3.5625 2.941406 -3.671875 2.546875 -3.671875 C 2.179688 -3.671875 1.875 -3.566406 1.625 -3.359375 C 1.382812 -3.160156 1.234375 -2.867188 1.171875 -2.484375 Z M 3.828125 -2.484375 "/></g></g><g style="fill:#112649;fill-opacity:1;"><g transform="translate(148.174788, 310.052)"><path style="stroke:none" d="M 4.875 -6.796875 L 4.875 0 L 4.171875 0 L 4.171875 -0.75 L 4.15625 -0.75 C 4.007812 -0.476562 3.785156 -0.265625 3.484375 -0.109375 C 3.191406 0.0351562 2.875 0.109375 2.53125 0.109375 C 1.9375 0.109375 1.4375 -0.0976562 1.03125 -0.515625 C 0.632812 -0.941406 0.429688 -1.472656 0.421875 -2.109375 C 0.421875 -2.742188 0.625 -3.269531 1.03125 -3.6875 C 1.445312 -4.101562 1.984375 -4.3125 2.640625 -4.3125 C 3.242188 -4.3125 3.75 -4.070312 4.15625 -3.59375 L 4.171875 -3.59375 L 4.171875 -6.796875 Z M 1.171875 -2.109375 C 1.171875 -1.640625 1.3125 -1.257812 1.59375 -0.96875 C 1.875 -0.6875 2.234375 -0.546875 2.671875 -0.546875 C 3.109375 -0.546875 3.460938 -0.6875 3.734375 -0.96875 C 4.015625 -1.257812 4.160156 -1.640625 4.171875 -2.109375 C 4.171875 -2.566406 4.03125 -2.941406 3.75 -3.234375 C 3.46875 -3.523438 3.101562 -3.671875 2.65625 -3.671875 C 2.226562 -3.671875 1.878906 -3.523438 1.609375 -3.234375 C 1.335938 -2.941406 1.191406 -2.566406 1.171875 -2.109375 Z M 1.171875 -2.109375 "/></g></g><g style="fill:#112649;fill-opacity:1;"><g transform="translate(153.673822, 310.052)"><path style="stroke:none" d=""/></g></g><g style="fill:#112649;fill-opacity:1;"><g transform="translate(156.175844, 310.052)"><path style="stroke:none" d="M 1.328125 -6.796875 L 1.328125 -3.59375 L 1.34375 -3.59375 C 1.757812 -4.070312 2.265625 -4.3125 2.859375 -4.3125 C 3.523438 -4.3125 4.054688 -4.101562 4.453125 -3.6875 C 4.859375 -3.269531 5.066406 -2.742188 5.078125 -2.109375 C 5.078125 -1.484375 4.875 -0.957031 4.46875 -0.53125 C 4.070312 -0.113281 3.570312 0.0976562 2.96875 0.109375 C 2.613281 0.109375 2.289062 0.03125 2 -0.125 C 1.707031 -0.28125 1.488281 -0.488281 1.34375 -0.75 L 1.328125 -0.75 L 1.328125 0 L 0.625 0 L 0.625 -6.796875 Z M 1.328125 -2.109375 C 1.328125 -1.640625 1.46875 -1.257812 1.75 -0.96875 C 2.039062 -0.6875 2.398438 -0.546875 2.828125 -0.546875 C 3.265625 -0.546875 3.617188 -0.6875 3.890625 -0.96875 C 4.171875 -1.257812 4.3125 -1.640625 4.3125 -2.109375 C 4.3125 -2.566406 4.171875 -2.941406 3.890625 -3.234375 C 3.617188 -3.523438 3.257812 -3.671875 2.8125 -3.671875 C 2.382812 -3.671875 2.03125 -3.523438 1.75 -3.234375 C 1.476562 -2.941406 1.335938 -2.566406 1.328125 -2.109375 Z M 1.328125 -2.109375 "/></g></g><g style="fill:#112649;fill-opacity:1;"><g transform="translate(161.674878, 310.052)"><path style="stroke:none" d="M 0.90625 -4.21875 L 2.21875 -0.90625 L 2.234375 -0.90625 L 3.484375 -4.21875 L 4.25 -4.21875 L 2.1875 1.03125 C 2.019531 1.457031 1.832031 1.75 1.625 1.90625 C 1.425781 2.070312 1.15625 2.15625 0.8125 2.15625 C 0.550781 2.15625 0.34375 2.117188 0.1875 2.046875 L 0.265625 1.4375 C 0.347656 1.488281 0.523438 1.515625 0.796875 1.515625 C 1.128906 1.515625 1.367188 1.304688 1.515625 0.890625 L 1.84375 0.03125 L 0.09375 -4.21875 Z M 0.90625 -4.21875 "/></g></g><g style="fill:#112649;fill-opacity:1;"><g transform="translate(166.01291, 310.052)"><path style="stroke:none" d="M 1.796875 -3.78125 C 1.796875 -3.632812 1.738281 -3.503906 1.625 -3.390625 C 1.507812 -3.285156 1.382812 -3.234375 1.25 -3.234375 C 1.113281 -3.234375 0.988281 -3.285156 0.875 -3.390625 C 0.769531 -3.503906 0.71875 -3.632812 0.71875 -3.78125 C 0.71875 -3.925781 0.769531 -4.050781 0.875 -4.15625 C 0.976562 -4.257812 1.101562 -4.3125 1.25 -4.3125 C 1.40625 -4.3125 1.535156 -4.253906 1.640625 -4.140625 C 1.742188 -4.035156 1.796875 -3.914062 1.796875 -3.78125 Z M 1.796875 -0.484375 C 1.796875 -0.335938 1.738281 -0.210938 1.625 -0.109375 C 1.519531 -0.00390625 1.394531 0.046875 1.25 0.046875 C 1.113281 0.046875 0.988281 -0.00390625 0.875 -0.109375 C 0.769531 -0.210938 0.71875 -0.335938 0.71875 -0.484375 C 0.71875 -0.640625 0.769531 -0.769531 0.875 -0.875 C 0.976562 -0.976562 1.101562 -1.03125 1.25 -1.03125 C 1.394531 -1.03125 1.519531 -0.972656 1.625 -0.859375 C 1.738281 -0.753906 1.796875 -0.628906 1.796875 -0.484375 Z M 0.390625 -4.21875 Z M 0.390625 -4.21875 "/></g></g><g style="fill:#112649;fill-opacity:1;"><g transform="translate(168.514932, 310.052)"><path style="stroke:none" d=""/></g></g><g style="fill:#112649;fill-opacity:1;"><g transform="translate(171.023431, 310.052)"><path style="stroke:none" d="M 3.75 -6.375 L 6.5 0 L 5.203125 0 L 4.609375 -1.453125 L 1.84375 -1.453125 L 1.265625 0 L 0 0 L 2.765625 -6.375 Z M 2.234375 -2.4375 L 4.21875 -2.4375 L 3.234375 -5.015625 Z M 2.234375 -2.4375 "/></g></g><g style="fill:#112649;fill-opacity:1;"><g transform="translate(176.855477, 310.052)"><path style="stroke:none" d="M 2.09375 -4.421875 C 2.800781 -4.421875 3.316406 -4.203125 3.640625 -3.765625 L 2.921875 -3.125 C 2.703125 -3.414062 2.414062 -3.5625 2.0625 -3.5625 C 1.894531 -3.5625 1.75 -3.519531 1.625 -3.4375 C 1.5 -3.351562 1.4375 -3.242188 1.4375 -3.109375 C 1.4375 -2.898438 1.648438 -2.75 2.078125 -2.65625 L 2.46875 -2.5625 C 2.9375 -2.457031 3.269531 -2.296875 3.46875 -2.078125 C 3.664062 -1.867188 3.765625 -1.601562 3.765625 -1.28125 C 3.765625 -0.851562 3.597656 -0.515625 3.265625 -0.265625 C 2.929688 -0.015625 2.476562 0.109375 1.90625 0.109375 C 1.175781 0.109375 0.613281 -0.113281 0.21875 -0.5625 L 0.9375 -1.234375 C 1.125 -1.023438 1.296875 -0.882812 1.453125 -0.8125 C 1.609375 -0.738281 1.78125 -0.703125 1.96875 -0.703125 C 2.164062 -0.703125 2.332031 -0.742188 2.46875 -0.828125 C 2.613281 -0.921875 2.6875 -1.046875 2.6875 -1.203125 C 2.6875 -1.441406 2.46875 -1.613281 2.03125 -1.71875 C 1.445312 -1.851562 1.082031 -1.957031 0.9375 -2.03125 C 0.800781 -2.101562 0.6875 -2.191406 0.59375 -2.296875 C 0.507812 -2.398438 0.445312 -2.515625 0.40625 -2.640625 C 0.375 -2.765625 0.359375 -2.894531 0.359375 -3.03125 C 0.359375 -3.457031 0.519531 -3.796875 0.84375 -4.046875 C 1.175781 -4.296875 1.59375 -4.421875 2.09375 -4.421875 Z M 2.09375 -4.421875 "/></g></g><g style="fill:#112649;fill-opacity:1;"><g transform="translate(180.851502, 310.052)"><path style="stroke:none" d="M 1.6875 -6.796875 L 1.6875 -2.53125 L 3.359375 -4.3125 L 4.75 -4.3125 L 2.890625 -2.359375 L 4.859375 0 L 3.421875 0 L 1.703125 -2.203125 L 1.6875 -2.203125 L 1.6875 0 L 0.609375 0 L 0.609375 -6.796875 Z M 1.6875 -6.796875 "/></g></g><g style="fill:#112649;fill-opacity:1;"><g transform="translate(185.684536, 310.052)"><path style="stroke:none" d="M 1.296875 -6.375 L 2.859375 -3.828125 L 4.453125 -6.375 L 5.796875 -6.375 L 3.40625 -2.734375 L 3.40625 0 L 2.265625 0 L 2.265625 -2.734375 L -0.125 -6.375 Z M 1.296875 -6.375 "/></g></g><g style="fill:#112649;fill-opacity:1;"><g transform="translate(190.526576, 310.052)"><path style="stroke:none" d="M 2.75 -4.421875 C 3.40625 -4.421875 3.957031 -4.210938 4.40625 -3.796875 C 4.863281 -3.378906 5.09375 -2.832031 5.09375 -2.15625 C 5.09375 -1.488281 4.863281 -0.941406 4.40625 -0.515625 C 3.957031 -0.0976562 3.40625 0.109375 2.75 0.109375 C 2.082031 0.109375 1.519531 -0.0976562 1.0625 -0.515625 C 0.613281 -0.941406 0.390625 -1.488281 0.390625 -2.15625 C 0.390625 -2.832031 0.613281 -3.378906 1.0625 -3.796875 C 1.519531 -4.210938 2.082031 -4.421875 2.75 -4.421875 Z M 1.46875 -2.15625 C 1.46875 -1.769531 1.585938 -1.457031 1.828125 -1.21875 C 2.078125 -0.976562 2.382812 -0.859375 2.75 -0.859375 C 3.113281 -0.859375 3.414062 -0.976562 3.65625 -1.21875 C 3.894531 -1.46875 4.015625 -1.78125 4.015625 -2.15625 C 4.015625 -2.539062 3.890625 -2.851562 3.640625 -3.09375 C 3.398438 -3.332031 3.097656 -3.453125 2.734375 -3.453125 C 2.378906 -3.453125 2.078125 -3.328125 1.828125 -3.078125 C 1.585938 -2.835938 1.46875 -2.53125 1.46875 -2.15625 Z M 1.46875 -2.15625 "/></g></g><g style="fill:#112649;fill-opacity:1;"><g transform="translate(196.016616, 310.052)"><path style="stroke:none" d="M 1.6875 -4.3125 L 1.6875 -2.09375 C 1.6875 -1.65625 1.753906 -1.335938 1.890625 -1.140625 C 2.023438 -0.953125 2.222656 -0.859375 2.484375 -0.859375 C 2.804688 -0.859375 3.050781 -0.957031 3.21875 -1.15625 C 3.382812 -1.351562 3.46875 -1.625 3.46875 -1.96875 L 3.46875 -4.3125 L 4.546875 -4.3125 L 4.546875 0 L 3.53125 0 L 3.53125 -0.6875 L 3.515625 -0.6875 C 3.253906 -0.15625 2.8125 0.109375 2.1875 0.109375 C 1.695312 0.109375 1.3125 -0.0351562 1.03125 -0.328125 C 0.75 -0.617188 0.609375 -1.03125 0.609375 -1.5625 L 0.609375 -4.3125 Z M 1.6875 -4.3125 "/></g></g><g style="fill:#112649;fill-opacity:1;"><g transform="translate(201.18265, 310.052)"><path style="stroke:none" d="M 2.984375 -4.421875 C 3.078125 -4.421875 3.207031 -4.398438 3.375 -4.359375 L 3.375 -3.328125 C 3.1875 -3.378906 3.015625 -3.40625 2.859375 -3.40625 C 2.503906 -3.40625 2.21875 -3.296875 2 -3.078125 C 1.789062 -2.867188 1.6875 -2.59375 1.6875 -2.25 L 1.6875 0 L 0.609375 0 L 0.609375 -4.3125 L 1.6875 -4.3125 L 1.6875 -3.640625 L 1.703125 -3.640625 C 1.828125 -3.890625 2 -4.082031 2.21875 -4.21875 C 2.445312 -4.351562 2.703125 -4.421875 2.984375 -4.421875 Z M 2.984375 -4.421875 "/></g></g><g style="fill:#112649;fill-opacity:1;"><g transform="translate(204.683672, 310.052)"><path style="stroke:none" d="M 2.890625 -6.375 C 3.628906 -6.375 4.195312 -6.210938 4.59375 -5.890625 C 5 -5.566406 5.203125 -5.117188 5.203125 -4.546875 C 5.203125 -3.878906 5 -3.394531 4.59375 -3.09375 C 4.195312 -2.789062 3.570312 -2.640625 2.71875 -2.640625 L 1.84375 -2.640625 L 1.84375 0 L 0.71875 0 L 0.71875 -6.375 Z M 2.578125 -3.609375 C 3.109375 -3.609375 3.476562 -3.679688 3.6875 -3.828125 C 3.90625 -3.984375 4.015625 -4.210938 4.015625 -4.515625 C 4.015625 -5.109375 3.570312 -5.40625 2.6875 -5.40625 L 1.84375 -5.40625 L 1.84375 -3.609375 Z M 2.578125 -3.609375 "/></g></g><g style="fill:#112649;fill-opacity:1;"><g transform="translate(210.182707, 310.052)"><path style="stroke:none" d="M 2.984375 -4.421875 C 3.078125 -4.421875 3.207031 -4.398438 3.375 -4.359375 L 3.375 -3.328125 C 3.1875 -3.378906 3.015625 -3.40625 2.859375 -3.40625 C 2.503906 -3.40625 2.21875 -3.296875 2 -3.078125 C 1.789062 -2.867188 1.6875 -2.59375 1.6875 -2.25 L 1.6875 0 L 0.609375 0 L 0.609375 -4.3125 L 1.6875 -4.3125 L 1.6875 -3.640625 L 1.703125 -3.640625 C 1.828125 -3.890625 2 -4.082031 2.21875 -4.21875 C 2.445312 -4.351562 2.703125 -4.421875 2.984375 -4.421875 Z M 2.984375 -4.421875 "/></g></g><g style="fill:#112649;fill-opacity:1;"><g transform="translate(213.683729, 310.052)"><path style="stroke:none" d="M 1.15625 -6.4375 C 1.351562 -6.4375 1.519531 -6.375 1.65625 -6.25 C 1.789062 -6.125 1.859375 -5.96875 1.859375 -5.78125 C 1.859375 -5.59375 1.789062 -5.4375 1.65625 -5.3125 C 1.519531 -5.195312 1.351562 -5.140625 1.15625 -5.140625 C 0.96875 -5.140625 0.804688 -5.203125 0.671875 -5.328125 C 0.546875 -5.460938 0.484375 -5.613281 0.484375 -5.78125 C 0.484375 -5.957031 0.546875 -6.109375 0.671875 -6.234375 C 0.804688 -6.367188 0.96875 -6.4375 1.15625 -6.4375 Z M 1.703125 -4.3125 L 1.703125 0 L 0.625 0 L 0.625 -4.3125 Z M 1.703125 -4.3125 "/></g></g><g style="fill:#112649;fill-opacity:1;"><g transform="translate(216.023748, 310.052)"><path style="stroke:none" d="M 2.9375 -4.421875 C 3.613281 -4.421875 4.0625 -4.15625 4.28125 -3.625 C 4.582031 -4.15625 5.054688 -4.421875 5.703125 -4.421875 C 6.742188 -4.421875 7.265625 -3.796875 7.265625 -2.546875 L 7.265625 0 L 6.1875 0 L 6.1875 -2.46875 C 6.1875 -3.125 5.914062 -3.453125 5.375 -3.453125 C 5.09375 -3.453125 4.867188 -3.351562 4.703125 -3.15625 C 4.535156 -2.96875 4.453125 -2.695312 4.453125 -2.34375 L 4.453125 0 L 3.375 0 L 3.375 -2.59375 C 3.375 -2.863281 3.3125 -3.070312 3.1875 -3.21875 C 3.0625 -3.375 2.878906 -3.453125 2.640625 -3.453125 C 2.304688 -3.453125 2.054688 -3.347656 1.890625 -3.140625 C 1.722656 -2.929688 1.640625 -2.671875 1.640625 -2.359375 L 1.640625 0 L 0.5625 0 L 0.5625 -4.3125 L 1.59375 -4.3125 L 1.59375 -3.640625 L 1.609375 -3.640625 C 1.859375 -4.160156 2.300781 -4.421875 2.9375 -4.421875 Z M 2.9375 -4.421875 "/></g></g><g style="fill:#112649;fill-opacity:1;"><g transform="translate(223.853807, 310.052)"><path style="stroke:none" d="M 2.4375 -4.421875 C 3.050781 -4.421875 3.507812 -4.269531 3.8125 -3.96875 C 4.125 -3.675781 4.28125 -3.210938 4.28125 -2.578125 L 4.28125 0 L 3.3125 0 L 3.3125 -0.59375 L 3.28125 -0.59375 C 2.988281 -0.125 2.53125 0.109375 1.90625 0.109375 C 1.4375 0.109375 1.054688 -0.0078125 0.765625 -0.25 C 0.472656 -0.5 0.328125 -0.8125 0.328125 -1.1875 C 0.328125 -1.6875 0.535156 -2.0625 0.953125 -2.3125 C 1.367188 -2.5625 2.046875 -2.6875 2.984375 -2.6875 L 3.3125 -2.6875 L 3.3125 -2.8125 C 3.3125 -3.0625 3.21875 -3.257812 3.03125 -3.40625 C 2.851562 -3.550781 2.617188 -3.625 2.328125 -3.625 C 1.878906 -3.625 1.492188 -3.472656 1.171875 -3.171875 L 0.609375 -3.734375 C 1.054688 -4.191406 1.664062 -4.421875 2.4375 -4.421875 Z M 1.40625 -1.265625 C 1.40625 -1.078125 1.476562 -0.9375 1.625 -0.84375 C 1.78125 -0.75 1.960938 -0.703125 2.171875 -0.703125 C 2.546875 -0.703125 2.816406 -0.789062 2.984375 -0.96875 C 3.160156 -1.15625 3.25 -1.390625 3.25 -1.671875 L 3.25 -1.9375 L 2.9375 -1.9375 C 1.914062 -1.9375 1.40625 -1.710938 1.40625 -1.265625 Z M 1.40625 -1.265625 "/></g></g><g style="fill:#112649;fill-opacity:1;"><g transform="translate(228.686841, 310.052)"><path style="stroke:none" d="M 2.984375 -4.421875 C 3.078125 -4.421875 3.207031 -4.398438 3.375 -4.359375 L 3.375 -3.328125 C 3.1875 -3.378906 3.015625 -3.40625 2.859375 -3.40625 C 2.503906 -3.40625 2.21875 -3.296875 2 -3.078125 C 1.789062 -2.867188 1.6875 -2.59375 1.6875 -2.25 L 1.6875 0 L 0.609375 0 L 0.609375 -4.3125 L 1.6875 -4.3125 L 1.6875 -3.640625 L 1.703125 -3.640625 C 1.828125 -3.890625 2 -4.082031 2.21875 -4.21875 C 2.445312 -4.351562 2.703125 -4.421875 2.984375 -4.421875 Z M 2.984375 -4.421875 "/></g></g><g style="fill:#112649;fill-opacity:1;"><g transform="translate(232.187863, 310.052)"><path style="stroke:none" d="M 1.21875 -4.3125 L 2.421875 -1.328125 L 2.4375 -1.328125 L 3.515625 -4.3125 L 4.640625 -4.3125 L 2.671875 0.734375 C 2.484375 1.203125 2.320312 1.515625 2.1875 1.671875 C 2.050781 1.828125 1.882812 1.945312 1.6875 2.03125 C 1.5 2.113281 1.253906 2.15625 0.953125 2.15625 C 0.671875 2.15625 0.394531 2.117188 0.125 2.046875 L 0.265625 1.078125 C 0.460938 1.148438 0.644531 1.1875 0.8125 1.1875 C 1.03125 1.1875 1.195312 1.148438 1.3125 1.078125 C 1.4375 1.003906 1.5625 0.8125 1.6875 0.5 L 1.875 0.03125 L 0.03125 -4.3125 Z M 1.21875 -4.3125 "/></g></g><g style="fill:#112649;fill-opacity:1;"><g transform="translate(236.858895, 310.052)"><path style="stroke:none" d="M 1.328125 -1.328125 C 1.523438 -1.328125 1.691406 -1.257812 1.828125 -1.125 C 1.972656 -1 2.046875 -0.835938 2.046875 -0.640625 C 2.046875 -0.441406 1.972656 -0.273438 1.828125 -0.140625 C 1.691406 -0.015625 1.523438 0.046875 1.328125 0.046875 C 1.140625 0.046875 0.972656 -0.015625 0.828125 -0.140625 C 0.679688 -0.273438 0.609375 -0.4375 0.609375 -0.625 C 0.609375 -0.820312 0.679688 -0.988281 0.828125 -1.125 C 0.972656 -1.257812 1.140625 -1.328125 1.328125 -1.328125 Z M 1.328125 -1.328125 "/></g></g><g style="fill:#112649;fill-opacity:1;"><g transform="translate(239.522919, 310.052)"><path style="stroke:none" d="M 2.75 -4.421875 C 3.394531 -4.421875 3.914062 -4.203125 4.3125 -3.765625 L 3.5625 -3.03125 C 3.289062 -3.3125 3.019531 -3.453125 2.75 -3.453125 C 2.363281 -3.453125 2.050781 -3.320312 1.8125 -3.0625 C 1.582031 -2.8125 1.46875 -2.507812 1.46875 -2.15625 C 1.46875 -1.769531 1.585938 -1.457031 1.828125 -1.21875 C 2.078125 -0.976562 2.382812 -0.859375 2.75 -0.859375 C 3.09375 -0.859375 3.367188 -0.992188 3.578125 -1.265625 L 4.296875 -0.5 C 4.128906 -0.332031 3.898438 -0.1875 3.609375 -0.0625 C 3.316406 0.0507812 3.03125 0.109375 2.75 0.109375 C 2.082031 0.109375 1.519531 -0.0976562 1.0625 -0.515625 C 0.613281 -0.941406 0.390625 -1.488281 0.390625 -2.15625 C 0.390625 -2.8125 0.613281 -3.351562 1.0625 -3.78125 C 1.507812 -4.207031 2.070312 -4.421875 2.75 -4.421875 Z M 2.75 -4.421875 "/></g></g><g style="fill:#112649;fill-opacity:1;"><g transform="translate(243.86095, 310.052)"><path style="stroke:none" d="M 2.75 -4.421875 C 3.40625 -4.421875 3.957031 -4.210938 4.40625 -3.796875 C 4.863281 -3.378906 5.09375 -2.832031 5.09375 -2.15625 C 5.09375 -1.488281 4.863281 -0.941406 4.40625 -0.515625 C 3.957031 -0.0976562 3.40625 0.109375 2.75 0.109375 C 2.082031 0.109375 1.519531 -0.0976562 1.0625 -0.515625 C 0.613281 -0.941406 0.390625 -1.488281 0.390625 -2.15625 C 0.390625 -2.832031 0.613281 -3.378906 1.0625 -3.796875 C 1.519531 -4.210938 2.082031 -4.421875 2.75 -4.421875 Z M 1.46875 -2.15625 C 1.46875 -1.769531 1.585938 -1.457031 1.828125 -1.21875 C 2.078125 -0.976562 2.382812 -0.859375 2.75 -0.859375 C 3.113281 -0.859375 3.414062 -0.976562 3.65625 -1.21875 C 3.894531 -1.46875 4.015625 -1.78125 4.015625 -2.15625 C 4.015625 -2.539062 3.890625 -2.851562 3.640625 -3.09375 C 3.398438 -3.332031 3.097656 -3.453125 2.734375 -3.453125 C 2.378906 -3.453125 2.078125 -3.328125 1.828125 -3.078125 C 1.585938 -2.835938 1.46875 -2.53125 1.46875 -2.15625 Z M 1.46875 -2.15625 "/></g></g><g style="fill:#112649;fill-opacity:1;"><g transform="translate(249.35099, 310.052)"><path style="stroke:none" d="M 2.9375 -4.421875 C 3.613281 -4.421875 4.0625 -4.15625 4.28125 -3.625 C 4.582031 -4.15625 5.054688 -4.421875 5.703125 -4.421875 C 6.742188 -4.421875 7.265625 -3.796875 7.265625 -2.546875 L 7.265625 0 L 6.1875 0 L 6.1875 -2.46875 C 6.1875 -3.125 5.914062 -3.453125 5.375 -3.453125 C 5.09375 -3.453125 4.867188 -3.351562 4.703125 -3.15625 C 4.535156 -2.96875 4.453125 -2.695312 4.453125 -2.34375 L 4.453125 0 L 3.375 0 L 3.375 -2.59375 C 3.375 -2.863281 3.3125 -3.070312 3.1875 -3.21875 C 3.0625 -3.375 2.878906 -3.453125 2.640625 -3.453125 C 2.304688 -3.453125 2.054688 -3.347656 1.890625 -3.140625 C 1.722656 -2.929688 1.640625 -2.671875 1.640625 -2.359375 L 1.640625 0 L 0.5625 0 L 0.5625 -4.3125 L 1.59375 -4.3125 L 1.59375 -3.640625 L 1.609375 -3.640625 C 1.859375 -4.160156 2.300781 -4.421875 2.9375 -4.421875 Z M 2.9375 -4.421875 "/></g></g><g style="fill:#112649;fill-opacity:1;"><g transform="translate(117.80859, 72.031188)"><path style="stroke:none" d="M 2.734375 -6.375 C 3.410156 -6.375 3.9375 -6.222656 4.3125 -5.921875 C 4.695312 -5.628906 4.894531 -5.195312 4.90625 -4.625 C 4.90625 -4.0625 4.71875 -3.628906 4.34375 -3.328125 C 3.976562 -3.023438 3.484375 -2.867188 2.859375 -2.859375 L 1.546875 -2.859375 L 1.546875 0 L 0.796875 0 L 0.796875 -6.375 Z M 2.859375 -3.5625 C 3.242188 -3.5625 3.546875 -3.65625 3.765625 -3.84375 C 3.992188 -4.03125 4.109375 -4.285156 4.109375 -4.609375 C 4.109375 -4.941406 4 -5.203125 3.78125 -5.390625 C 3.5625 -5.578125 3.253906 -5.671875 2.859375 -5.671875 L 1.546875 -5.671875 L 1.546875 -3.5625 Z M 2.859375 -3.5625 "/></g></g><g style="fill:#112649;fill-opacity:1;"><g transform="translate(123.145622, 72.031188)"><path style="stroke:none" d="M 2.671875 -4.3125 C 3.328125 -4.3125 3.859375 -4.109375 4.265625 -3.703125 C 4.679688 -3.304688 4.898438 -2.773438 4.921875 -2.109375 C 4.921875 -1.460938 4.707031 -0.929688 4.28125 -0.515625 C 3.863281 -0.109375 3.328125 0.0976562 2.671875 0.109375 C 2.015625 0.109375 1.476562 -0.0976562 1.0625 -0.515625 C 0.644531 -0.929688 0.429688 -1.460938 0.421875 -2.109375 C 0.421875 -2.753906 0.628906 -3.28125 1.046875 -3.6875 C 1.472656 -4.101562 2.015625 -4.3125 2.671875 -4.3125 Z M 1.171875 -2.109375 C 1.171875 -1.640625 1.3125 -1.265625 1.59375 -0.984375 C 1.875 -0.703125 2.234375 -0.554688 2.671875 -0.546875 C 3.109375 -0.546875 3.460938 -0.6875 3.734375 -0.96875 C 4.015625 -1.257812 4.160156 -1.640625 4.171875 -2.109375 C 4.171875 -2.566406 4.03125 -2.941406 3.75 -3.234375 C 3.46875 -3.523438 3.101562 -3.671875 2.65625 -3.671875 C 2.226562 -3.671875 1.875 -3.523438 1.59375 -3.234375 C 1.320312 -2.941406 1.179688 -2.566406 1.171875 -2.109375 Z M 1.171875 -2.109375 "/></g></g><g style="fill:#112649;fill-opacity:1;"><g transform="translate(128.491661, 72.031188)"><path style="stroke:none" d="M 0.90625 -4.21875 L 1.859375 -0.96875 L 1.875 -0.96875 L 2.96875 -4.21875 L 3.703125 -4.21875 L 4.8125 -0.96875 L 4.828125 -0.96875 L 5.78125 -4.21875 L 6.546875 -4.21875 L 5.1875 0 L 4.484375 0 L 3.296875 -3.234375 L 3.28125 -3.234375 L 2.21875 0 L 1.5 0 L 0.125 -4.21875 Z M 0.90625 -4.21875 "/></g></g><g style="fill:#112649;fill-opacity:1;"><g transform="translate(135.160705, 72.031188)"><path style="stroke:none" d="M 2.578125 -4.3125 C 3.203125 -4.3125 3.691406 -4.113281 4.046875 -3.71875 C 4.398438 -3.332031 4.578125 -2.78125 4.578125 -2.0625 L 4.578125 -1.890625 L 1.171875 -1.890625 C 1.210938 -1.503906 1.359375 -1.179688 1.609375 -0.921875 C 1.867188 -0.671875 2.1875 -0.546875 2.5625 -0.546875 C 3.132812 -0.546875 3.578125 -0.753906 3.890625 -1.171875 L 4.421875 -0.765625 C 4.203125 -0.472656 3.941406 -0.253906 3.640625 -0.109375 C 3.335938 0.0351562 2.976562 0.109375 2.5625 0.109375 C 1.925781 0.109375 1.410156 -0.0976562 1.015625 -0.515625 C 0.628906 -0.929688 0.429688 -1.460938 0.421875 -2.109375 C 0.421875 -2.742188 0.617188 -3.265625 1.015625 -3.671875 C 1.421875 -4.085938 1.941406 -4.300781 2.578125 -4.3125 Z M 3.828125 -2.484375 C 3.804688 -2.847656 3.6875 -3.132812 3.46875 -3.34375 C 3.25 -3.5625 2.941406 -3.671875 2.546875 -3.671875 C 2.179688 -3.671875 1.875 -3.566406 1.625 -3.359375 C 1.382812 -3.160156 1.234375 -2.867188 1.171875 -2.484375 Z M 3.828125 -2.484375 "/></g></g><g style="fill:#112649;fill-opacity:1;"><g transform="translate(140.164737, 72.031188)"><path style="stroke:none" d="M 2.734375 -4.3125 C 2.835938 -4.3125 2.9375 -4.300781 3.03125 -4.28125 L 2.984375 -3.5625 C 2.847656 -3.601562 2.71875 -3.625 2.59375 -3.625 C 2.1875 -3.625 1.878906 -3.488281 1.671875 -3.21875 C 1.472656 -2.945312 1.375 -2.570312 1.375 -2.09375 L 1.375 0 L 0.671875 0 L 0.671875 -3.28125 C 0.671875 -3.363281 0.65625 -3.675781 0.625 -4.21875 L 1.296875 -4.21875 C 1.304688 -3.789062 1.3125 -3.554688 1.3125 -3.515625 L 1.328125 -3.515625 C 1.441406 -3.753906 1.625 -3.945312 1.875 -4.09375 C 2.132812 -4.238281 2.421875 -4.3125 2.734375 -4.3125 Z M 2.734375 -4.3125 "/></g></g><g style="fill:#112649;fill-opacity:1;"><g transform="translate(143.170756, 72.031188)"><path style="stroke:none" d="M 2.578125 -4.3125 C 3.203125 -4.3125 3.691406 -4.113281 4.046875 -3.71875 C 4.398438 -3.332031 4.578125 -2.78125 4.578125 -2.0625 L 4.578125 -1.890625 L 1.171875 -1.890625 C 1.210938 -1.503906 1.359375 -1.179688 1.609375 -0.921875 C 1.867188 -0.671875 2.1875 -0.546875 2.5625 -0.546875 C 3.132812 -0.546875 3.578125 -0.753906 3.890625 -1.171875 L 4.421875 -0.765625 C 4.203125 -0.472656 3.941406 -0.253906 3.640625 -0.109375 C 3.335938 0.0351562 2.976562 0.109375 2.5625 0.109375 C 1.925781 0.109375 1.410156 -0.0976562 1.015625 -0.515625 C 0.628906 -0.929688 0.429688 -1.460938 0.421875 -2.109375 C 0.421875 -2.742188 0.617188 -3.265625 1.015625 -3.671875 C 1.421875 -4.085938 1.941406 -4.300781 2.578125 -4.3125 Z M 3.828125 -2.484375 C 3.804688 -2.847656 3.6875 -3.132812 3.46875 -3.34375 C 3.25 -3.5625 2.941406 -3.671875 2.546875 -3.671875 C 2.179688 -3.671875 1.875 -3.566406 1.625 -3.359375 C 1.382812 -3.160156 1.234375 -2.867188 1.171875 -2.484375 Z M 3.828125 -2.484375 "/></g></g><g style="fill:#112649;fill-opacity:1;"><g transform="translate(148.174788, 72.031188)"><path style="stroke:none" d="M 4.875 -6.796875 L 4.875 0 L 4.171875 0 L 4.171875 -0.75 L 4.15625 -0.75 C 4.007812 -0.476562 3.785156 -0.265625 3.484375 -0.109375 C 3.191406 0.0351562 2.875 0.109375 2.53125 0.109375 C 1.9375 0.109375 1.4375 -0.0976562 1.03125 -0.515625 C 0.632812 -0.941406 0.429688 -1.472656 0.421875 -2.109375 C 0.421875 -2.742188 0.625 -3.269531 1.03125 -3.6875 C 1.445312 -4.101562 1.984375 -4.3125 2.640625 -4.3125 C 3.242188 -4.3125 3.75 -4.070312 4.15625 -3.59375 L 4.171875 -3.59375 L 4.171875 -6.796875 Z M 1.171875 -2.109375 C 1.171875 -1.640625 1.3125 -1.257812 1.59375 -0.96875 C 1.875 -0.6875 2.234375 -0.546875 2.671875 -0.546875 C 3.109375 -0.546875 3.460938 -0.6875 3.734375 -0.96875 C 4.015625 -1.257812 4.160156 -1.640625 4.171875 -2.109375 C 4.171875 -2.566406 4.03125 -2.941406 3.75 -3.234375 C 3.46875 -3.523438 3.101562 -3.671875 2.65625 -3.671875 C 2.226562 -3.671875 1.878906 -3.523438 1.609375 -3.234375 C 1.335938 -2.941406 1.191406 -2.566406 1.171875 -2.109375 Z M 1.171875 -2.109375 "/></g></g><g style="fill:#112649;fill-opacity:1;"><g transform="translate(153.673822, 72.031188)"><path style="stroke:none" d=""/></g></g><g style="fill:#112649;fill-opacity:1;"><g transform="translate(156.175844, 72.031188)"><path style="stroke:none" d="M 1.328125 -6.796875 L 1.328125 -3.59375 L 1.34375 -3.59375 C 1.757812 -4.070312 2.265625 -4.3125 2.859375 -4.3125 C 3.523438 -4.3125 4.054688 -4.101562 4.453125 -3.6875 C 4.859375 -3.269531 5.066406 -2.742188 5.078125 -2.109375 C 5.078125 -1.484375 4.875 -0.957031 4.46875 -0.53125 C 4.070312 -0.113281 3.570312 0.0976562 2.96875 0.109375 C 2.613281 0.109375 2.289062 0.03125 2 -0.125 C 1.707031 -0.28125 1.488281 -0.488281 1.34375 -0.75 L 1.328125 -0.75 L 1.328125 0 L 0.625 0 L 0.625 -6.796875 Z M 1.328125 -2.109375 C 1.328125 -1.640625 1.46875 -1.257812 1.75 -0.96875 C 2.039062 -0.6875 2.398438 -0.546875 2.828125 -0.546875 C 3.265625 -0.546875 3.617188 -0.6875 3.890625 -0.96875 C 4.171875 -1.257812 4.3125 -1.640625 4.3125 -2.109375 C 4.3125 -2.566406 4.171875 -2.941406 3.890625 -3.234375 C 3.617188 -3.523438 3.257812 -3.671875 2.8125 -3.671875 C 2.382812 -3.671875 2.03125 -3.523438 1.75 -3.234375 C 1.476562 -2.941406 1.335938 -2.566406 1.328125 -2.109375 Z M 1.328125 -2.109375 "/></g></g><g style="fill:#112649;fill-opacity:1;"><g transform="translate(161.674878, 72.031188)"><path style="stroke:none" d="M 0.90625 -4.21875 L 2.21875 -0.90625 L 2.234375 -0.90625 L 3.484375 -4.21875 L 4.25 -4.21875 L 2.1875 1.03125 C 2.019531 1.457031 1.832031 1.75 1.625 1.90625 C 1.425781 2.070312 1.15625 2.15625 0.8125 2.15625 C 0.550781 2.15625 0.34375 2.117188 0.1875 2.046875 L 0.265625 1.4375 C 0.347656 1.488281 0.523438 1.515625 0.796875 1.515625 C 1.128906 1.515625 1.367188 1.304688 1.515625 0.890625 L 1.84375 0.03125 L 0.09375 -4.21875 Z M 0.90625 -4.21875 "/></g></g><g style="fill:#112649;fill-opacity:1;"><g transform="translate(166.01291, 72.031188)"><path style="stroke:none" d="M 1.796875 -3.78125 C 1.796875 -3.632812 1.738281 -3.503906 1.625 -3.390625 C 1.507812 -3.285156 1.382812 -3.234375 1.25 -3.234375 C 1.113281 -3.234375 0.988281 -3.285156 0.875 -3.390625 C 0.769531 -3.503906 0.71875 -3.632812 0.71875 -3.78125 C 0.71875 -3.925781 0.769531 -4.050781 0.875 -4.15625 C 0.976562 -4.257812 1.101562 -4.3125 1.25 -4.3125 C 1.40625 -4.3125 1.535156 -4.253906 1.640625 -4.140625 C 1.742188 -4.035156 1.796875 -3.914062 1.796875 -3.78125 Z M 1.796875 -0.484375 C 1.796875 -0.335938 1.738281 -0.210938 1.625 -0.109375 C 1.519531 -0.00390625 1.394531 0.046875 1.25 0.046875 C 1.113281 0.046875 0.988281 -0.00390625 0.875 -0.109375 C 0.769531 -0.210938 0.71875 -0.335938 0.71875 -0.484375 C 0.71875 -0.640625 0.769531 -0.769531 0.875 -0.875 C 0.976562 -0.976562 1.101562 -1.03125 1.25 -1.03125 C 1.394531 -1.03125 1.519531 -0.972656 1.625 -0.859375 C 1.738281 -0.753906 1.796875 -0.628906 1.796875 -0.484375 Z M 0.390625 -4.21875 Z M 0.390625 -4.21875 "/></g></g><g style="fill:#112649;fill-opacity:1;"><g transform="translate(168.514932, 72.031188)"><path style="stroke:none" d=""/></g></g><g style="fill:#112649;fill-opacity:1;"><g transform="translate(171.023431, 72.031188)"><path style="stroke:none" d="M 3.75 -6.375 L 6.5 0 L 5.203125 0 L 4.609375 -1.453125 L 1.84375 -1.453125 L 1.265625 0 L 0 0 L 2.765625 -6.375 Z M 2.234375 -2.4375 L 4.21875 -2.4375 L 3.234375 -5.015625 Z M 2.234375 -2.4375 "/></g></g><g style="fill:#112649;fill-opacity:1;"><g transform="translate(176.855477, 72.031188)"><path style="stroke:none" d="M 2.09375 -4.421875 C 2.800781 -4.421875 3.316406 -4.203125 3.640625 -3.765625 L 2.921875 -3.125 C 2.703125 -3.414062 2.414062 -3.5625 2.0625 -3.5625 C 1.894531 -3.5625 1.75 -3.519531 1.625 -3.4375 C 1.5 -3.351562 1.4375 -3.242188 1.4375 -3.109375 C 1.4375 -2.898438 1.648438 -2.75 2.078125 -2.65625 L 2.46875 -2.5625 C 2.9375 -2.457031 3.269531 -2.296875 3.46875 -2.078125 C 3.664062 -1.867188 3.765625 -1.601562 3.765625 -1.28125 C 3.765625 -0.851562 3.597656 -0.515625 3.265625 -0.265625 C 2.929688 -0.015625 2.476562 0.109375 1.90625 0.109375 C 1.175781 0.109375 0.613281 -0.113281 0.21875 -0.5625 L 0.9375 -1.234375 C 1.125 -1.023438 1.296875 -0.882812 1.453125 -0.8125 C 1.609375 -0.738281 1.78125 -0.703125 1.96875 -0.703125 C 2.164062 -0.703125 2.332031 -0.742188 2.46875 -0.828125 C 2.613281 -0.921875 2.6875 -1.046875 2.6875 -1.203125 C 2.6875 -1.441406 2.46875 -1.613281 2.03125 -1.71875 C 1.445312 -1.851562 1.082031 -1.957031 0.9375 -2.03125 C 0.800781 -2.101562 0.6875 -2.191406 0.59375 -2.296875 C 0.507812 -2.398438 0.445312 -2.515625 0.40625 -2.640625 C 0.375 -2.765625 0.359375 -2.894531 0.359375 -3.03125 C 0.359375 -3.457031 0.519531 -3.796875 0.84375 -4.046875 C 1.175781 -4.296875 1.59375 -4.421875 2.09375 -4.421875 Z M 2.09375 -4.421875 "/></g></g><g style="fill:#112649;fill-opacity:1;"><g transform="translate(180.851502, 72.031188)"><path style="stroke:none" d="M 1.6875 -6.796875 L 1.6875 -2.53125 L 3.359375 -4.3125 L 4.75 -4.3125 L 2.890625 -2.359375 L 4.859375 0 L 3.421875 0 L 1.703125 -2.203125 L 1.6875 -2.203125 L 1.6875 0 L 0.609375 0 L 0.609375 -6.796875 Z M 1.6875 -6.796875 "/></g></g><g style="fill:#112649;fill-opacity:1;"><g transform="translate(185.684536, 72.031188)"><path style="stroke:none" d="M 1.296875 -6.375 L 2.859375 -3.828125 L 4.453125 -6.375 L 5.796875 -6.375 L 3.40625 -2.734375 L 3.40625 0 L 2.265625 0 L 2.265625 -2.734375 L -0.125 -6.375 Z M 1.296875 -6.375 "/></g></g><g style="fill:#112649;fill-opacity:1;"><g transform="translate(190.526576, 72.031188)"><path style="stroke:none" d="M 2.75 -4.421875 C 3.40625 -4.421875 3.957031 -4.210938 4.40625 -3.796875 C 4.863281 -3.378906 5.09375 -2.832031 5.09375 -2.15625 C 5.09375 -1.488281 4.863281 -0.941406 4.40625 -0.515625 C 3.957031 -0.0976562 3.40625 0.109375 2.75 0.109375 C 2.082031 0.109375 1.519531 -0.0976562 1.0625 -0.515625 C 0.613281 -0.941406 0.390625 -1.488281 0.390625 -2.15625 C 0.390625 -2.832031 0.613281 -3.378906 1.0625 -3.796875 C 1.519531 -4.210938 2.082031 -4.421875 2.75 -4.421875 Z M 1.46875 -2.15625 C 1.46875 -1.769531 1.585938 -1.457031 1.828125 -1.21875 C 2.078125 -0.976562 2.382812 -0.859375 2.75 -0.859375 C 3.113281 -0.859375 3.414062 -0.976562 3.65625 -1.21875 C 3.894531 -1.46875 4.015625 -1.78125 4.015625 -2.15625 C 4.015625 -2.539062 3.890625 -2.851562 3.640625 -3.09375 C 3.398438 -3.332031 3.097656 -3.453125 2.734375 -3.453125 C 2.378906 -3.453125 2.078125 -3.328125 1.828125 -3.078125 C 1.585938 -2.835938 1.46875 -2.53125 1.46875 -2.15625 Z M 1.46875 -2.15625 "/></g></g><g style="fill:#112649;fill-opacity:1;"><g transform="translate(196.016616, 72.031188)"><path style="stroke:none" d="M 1.6875 -4.3125 L 1.6875 -2.09375 C 1.6875 -1.65625 1.753906 -1.335938 1.890625 -1.140625 C 2.023438 -0.953125 2.222656 -0.859375 2.484375 -0.859375 C 2.804688 -0.859375 3.050781 -0.957031 3.21875 -1.15625 C 3.382812 -1.351562 3.46875 -1.625 3.46875 -1.96875 L 3.46875 -4.3125 L 4.546875 -4.3125 L 4.546875 0 L 3.53125 0 L 3.53125 -0.6875 L 3.515625 -0.6875 C 3.253906 -0.15625 2.8125 0.109375 2.1875 0.109375 C 1.695312 0.109375 1.3125 -0.0351562 1.03125 -0.328125 C 0.75 -0.617188 0.609375 -1.03125 0.609375 -1.5625 L 0.609375 -4.3125 Z M 1.6875 -4.3125 "/></g></g><g style="fill:#112649;fill-opacity:1;"><g transform="translate(201.18265, 72.031188)"><path style="stroke:none" d="M 2.984375 -4.421875 C 3.078125 -4.421875 3.207031 -4.398438 3.375 -4.359375 L 3.375 -3.328125 C 3.1875 -3.378906 3.015625 -3.40625 2.859375 -3.40625 C 2.503906 -3.40625 2.21875 -3.296875 2 -3.078125 C 1.789062 -2.867188 1.6875 -2.59375 1.6875 -2.25 L 1.6875 0 L 0.609375 0 L 0.609375 -4.3125 L 1.6875 -4.3125 L 1.6875 -3.640625 L 1.703125 -3.640625 C 1.828125 -3.890625 2 -4.082031 2.21875 -4.21875 C 2.445312 -4.351562 2.703125 -4.421875 2.984375 -4.421875 Z M 2.984375 -4.421875 "/></g></g><g style="fill:#112649;fill-opacity:1;"><g transform="translate(204.683672, 72.031188)"><path style="stroke:none" d="M 2.890625 -6.375 C 3.628906 -6.375 4.195312 -6.210938 4.59375 -5.890625 C 5 -5.566406 5.203125 -5.117188 5.203125 -4.546875 C 5.203125 -3.878906 5 -3.394531 4.59375 -3.09375 C 4.195312 -2.789062 3.570312 -2.640625 2.71875 -2.640625 L 1.84375 -2.640625 L 1.84375 0 L 0.71875 0 L 0.71875 -6.375 Z M 2.578125 -3.609375 C 3.109375 -3.609375 3.476562 -3.679688 3.6875 -3.828125 C 3.90625 -3.984375 4.015625 -4.210938 4.015625 -4.515625 C 4.015625 -5.109375 3.570312 -5.40625 2.6875 -5.40625 L 1.84375 -5.40625 L 1.84375 -3.609375 Z M 2.578125 -3.609375 "/></g></g><g style="fill:#112649;fill-opacity:1;"><g transform="translate(210.182707, 72.031188)"><path style="stroke:none" d="M 2.984375 -4.421875 C 3.078125 -4.421875 3.207031 -4.398438 3.375 -4.359375 L 3.375 -3.328125 C 3.1875 -3.378906 3.015625 -3.40625 2.859375 -3.40625 C 2.503906 -3.40625 2.21875 -3.296875 2 -3.078125 C 1.789062 -2.867188 1.6875 -2.59375 1.6875 -2.25 L 1.6875 0 L 0.609375 0 L 0.609375 -4.3125 L 1.6875 -4.3125 L 1.6875 -3.640625 L 1.703125 -3.640625 C 1.828125 -3.890625 2 -4.082031 2.21875 -4.21875 C 2.445312 -4.351562 2.703125 -4.421875 2.984375 -4.421875 Z M 2.984375 -4.421875 "/></g></g><g style="fill:#112649;fill-opacity:1;"><g transform="translate(213.683729, 72.031188)"><path style="stroke:none" d="M 1.15625 -6.4375 C 1.351562 -6.4375 1.519531 -6.375 1.65625 -6.25 C 1.789062 -6.125 1.859375 -5.96875 1.859375 -5.78125 C 1.859375 -5.59375 1.789062 -5.4375 1.65625 -5.3125 C 1.519531 -5.195312 1.351562 -5.140625 1.15625 -5.140625 C 0.96875 -5.140625 0.804688 -5.203125 0.671875 -5.328125 C 0.546875 -5.460938 0.484375 -5.613281 0.484375 -5.78125 C 0.484375 -5.957031 0.546875 -6.109375 0.671875 -6.234375 C 0.804688 -6.367188 0.96875 -6.4375 1.15625 -6.4375 Z M 1.703125 -4.3125 L 1.703125 0 L 0.625 0 L 0.625 -4.3125 Z M 1.703125 -4.3125 "/></g></g><g style="fill:#112649;fill-opacity:1;"><g transform="translate(216.023748, 72.031188)"><path style="stroke:none" d="M 2.9375 -4.421875 C 3.613281 -4.421875 4.0625 -4.15625 4.28125 -3.625 C 4.582031 -4.15625 5.054688 -4.421875 5.703125 -4.421875 C 6.742188 -4.421875 7.265625 -3.796875 7.265625 -2.546875 L 7.265625 0 L 6.1875 0 L 6.1875 -2.46875 C 6.1875 -3.125 5.914062 -3.453125 5.375 -3.453125 C 5.09375 -3.453125 4.867188 -3.351562 4.703125 -3.15625 C 4.535156 -2.96875 4.453125 -2.695312 4.453125 -2.34375 L 4.453125 0 L 3.375 0 L 3.375 -2.59375 C 3.375 -2.863281 3.3125 -3.070312 3.1875 -3.21875 C 3.0625 -3.375 2.878906 -3.453125 2.640625 -3.453125 C 2.304688 -3.453125 2.054688 -3.347656 1.890625 -3.140625 C 1.722656 -2.929688 1.640625 -2.671875 1.640625 -2.359375 L 1.640625 0 L 0.5625 0 L 0.5625 -4.3125 L 1.59375 -4.3125 L 1.59375 -3.640625 L 1.609375 -3.640625 C 1.859375 -4.160156 2.300781 -4.421875 2.9375 -4.421875 Z M 2.9375 -4.421875 "/></g></g><g style="fill:#112649;fill-opacity:1;"><g transform="translate(223.853807, 72.031188)"><path style="stroke:none" d="M 2.4375 -4.421875 C 3.050781 -4.421875 3.507812 -4.269531 3.8125 -3.96875 C 4.125 -3.675781 4.28125 -3.210938 4.28125 -2.578125 L 4.28125 0 L 3.3125 0 L 3.3125 -0.59375 L 3.28125 -0.59375 C 2.988281 -0.125 2.53125 0.109375 1.90625 0.109375 C 1.4375 0.109375 1.054688 -0.0078125 0.765625 -0.25 C 0.472656 -0.5 0.328125 -0.8125 0.328125 -1.1875 C 0.328125 -1.6875 0.535156 -2.0625 0.953125 -2.3125 C 1.367188 -2.5625 2.046875 -2.6875 2.984375 -2.6875 L 3.3125 -2.6875 L 3.3125 -2.8125 C 3.3125 -3.0625 3.21875 -3.257812 3.03125 -3.40625 C 2.851562 -3.550781 2.617188 -3.625 2.328125 -3.625 C 1.878906 -3.625 1.492188 -3.472656 1.171875 -3.171875 L 0.609375 -3.734375 C 1.054688 -4.191406 1.664062 -4.421875 2.4375 -4.421875 Z M 1.40625 -1.265625 C 1.40625 -1.078125 1.476562 -0.9375 1.625 -0.84375 C 1.78125 -0.75 1.960938 -0.703125 2.171875 -0.703125 C 2.546875 -0.703125 2.816406 -0.789062 2.984375 -0.96875 C 3.160156 -1.15625 3.25 -1.390625 3.25 -1.671875 L 3.25 -1.9375 L 2.9375 -1.9375 C 1.914062 -1.9375 1.40625 -1.710938 1.40625 -1.265625 Z M 1.40625 -1.265625 "/></g></g><g style="fill:#112649;fill-opacity:1;"><g transform="translate(228.686841, 72.031188)"><path style="stroke:none" d="M 2.984375 -4.421875 C 3.078125 -4.421875 3.207031 -4.398438 3.375 -4.359375 L 3.375 -3.328125 C 3.1875 -3.378906 3.015625 -3.40625 2.859375 -3.40625 C 2.503906 -3.40625 2.21875 -3.296875 2 -3.078125 C 1.789062 -2.867188 1.6875 -2.59375 1.6875 -2.25 L 1.6875 0 L 0.609375 0 L 0.609375 -4.3125 L 1.6875 -4.3125 L 1.6875 -3.640625 L 1.703125 -3.640625 C 1.828125 -3.890625 2 -4.082031 2.21875 -4.21875 C 2.445312 -4.351562 2.703125 -4.421875 2.984375 -4.421875 Z M 2.984375 -4.421875 "/></g></g><g style="fill:#112649;fill-opacity:1;"><g transform="translate(232.187863, 72.031188)"><path style="stroke:none" d="M 1.21875 -4.3125 L 2.421875 -1.328125 L 2.4375 -1.328125 L 3.515625 -4.3125 L 4.640625 -4.3125 L 2.671875 0.734375 C 2.484375 1.203125 2.320312 1.515625 2.1875 1.671875 C 2.050781 1.828125 1.882812 1.945312 1.6875 2.03125 C 1.5 2.113281 1.253906 2.15625 0.953125 2.15625 C 0.671875 2.15625 0.394531 2.117188 0.125 2.046875 L 0.265625 1.078125 C 0.460938 1.148438 0.644531 1.1875 0.8125 1.1875 C 1.03125 1.1875 1.195312 1.148438 1.3125 1.078125 C 1.4375 1.003906 1.5625 0.8125 1.6875 0.5 L 1.875 0.03125 L 0.03125 -4.3125 Z M 1.21875 -4.3125 "/></g></g><g style="fill:#112649;fill-opacity:1;"><g transform="translate(236.858895, 72.031188)"><path style="stroke:none" d="M 1.328125 -1.328125 C 1.523438 -1.328125 1.691406 -1.257812 1.828125 -1.125 C 1.972656 -1 2.046875 -0.835938 2.046875 -0.640625 C 2.046875 -0.441406 1.972656 -0.273438 1.828125 -0.140625 C 1.691406 -0.015625 1.523438 0.046875 1.328125 0.046875 C 1.140625 0.046875 0.972656 -0.015625 0.828125 -0.140625 C 0.679688 -0.273438 0.609375 -0.4375 0.609375 -0.625 C 0.609375 -0.820312 0.679688 -0.988281 0.828125 -1.125 C 0.972656 -1.257812 1.140625 -1.328125 1.328125 -1.328125 Z M 1.328125 -1.328125 "/></g></g><g style="fill:#112649;fill-opacity:1;"><g transform="translate(239.522919, 72.031188)"><path style="stroke:none" d="M 2.75 -4.421875 C 3.394531 -4.421875 3.914062 -4.203125 4.3125 -3.765625 L 3.5625 -3.03125 C 3.289062 -3.3125 3.019531 -3.453125 2.75 -3.453125 C 2.363281 -3.453125 2.050781 -3.320312 1.8125 -3.0625 C 1.582031 -2.8125 1.46875 -2.507812 1.46875 -2.15625 C 1.46875 -1.769531 1.585938 -1.457031 1.828125 -1.21875 C 2.078125 -0.976562 2.382812 -0.859375 2.75 -0.859375 C 3.09375 -0.859375 3.367188 -0.992188 3.578125 -1.265625 L 4.296875 -0.5 C 4.128906 -0.332031 3.898438 -0.1875 3.609375 -0.0625 C 3.316406 0.0507812 3.03125 0.109375 2.75 0.109375 C 2.082031 0.109375 1.519531 -0.0976562 1.0625 -0.515625 C 0.613281 -0.941406 0.390625 -1.488281 0.390625 -2.15625 C 0.390625 -2.8125 0.613281 -3.351562 1.0625 -3.78125 C 1.507812 -4.207031 2.070312 -4.421875 2.75 -4.421875 Z M 2.75 -4.421875 "/></g></g><g style="fill:#112649;fill-opacity:1;"><g transform="translate(243.86095, 72.031188)"><path style="stroke:none" d="M 2.75 -4.421875 C 3.40625 -4.421875 3.957031 -4.210938 4.40625 -3.796875 C 4.863281 -3.378906 5.09375 -2.832031 5.09375 -2.15625 C 5.09375 -1.488281 4.863281 -0.941406 4.40625 -0.515625 C 3.957031 -0.0976562 3.40625 0.109375 2.75 0.109375 C 2.082031 0.109375 1.519531 -0.0976562 1.0625 -0.515625 C 0.613281 -0.941406 0.390625 -1.488281 0.390625 -2.15625 C 0.390625 -2.832031 0.613281 -3.378906 1.0625 -3.796875 C 1.519531 -4.210938 2.082031 -4.421875 2.75 -4.421875 Z M 1.46875 -2.15625 C 1.46875 -1.769531 1.585938 -1.457031 1.828125 -1.21875 C 2.078125 -0.976562 2.382812 -0.859375 2.75 -0.859375 C 3.113281 -0.859375 3.414062 -0.976562 3.65625 -1.21875 C 3.894531 -1.46875 4.015625 -1.78125 4.015625 -2.15625 C 4.015625 -2.539062 3.890625 -2.851562 3.640625 -3.09375 C 3.398438 -3.332031 3.097656 -3.453125 2.734375 -3.453125 C 2.378906 -3.453125 2.078125 -3.328125 1.828125 -3.078125 C 1.585938 -2.835938 1.46875 -2.53125 1.46875 -2.15625 Z M 1.46875 -2.15625 "/></g></g><g style="fill:#112649;fill-opacity:1;"><g transform="translate(249.35099, 72.031188)"><path style="stroke:none" d="M 2.9375 -4.421875 C 3.613281 -4.421875 4.0625 -4.15625 4.28125 -3.625 C 4.582031 -4.15625 5.054688 -4.421875 5.703125 -4.421875 C 6.742188 -4.421875 7.265625 -3.796875 7.265625 -2.546875 L 7.265625 0 L 6.1875 0 L 6.1875 -2.46875 C 6.1875 -3.125 5.914062 -3.453125 5.375 -3.453125 C 5.09375 -3.453125 4.867188 -3.351562 4.703125 -3.15625 C 4.535156 -2.96875 4.453125 -2.695312 4.453125 -2.34375 L 4.453125 0 L 3.375 0 L 3.375 -2.59375 C 3.375 -2.863281 3.3125 -3.070312 3.1875 -3.21875 C 3.0625 -3.375 2.878906 -3.453125 2.640625 -3.453125 C 2.304688 -3.453125 2.054688 -3.347656 1.890625 -3.140625 C 1.722656 -2.929688 1.640625 -2.671875 1.640625 -2.359375 L 1.640625 0 L 0.5625 0 L 0.5625 -4.3125 L 1.59375 -4.3125 L 1.59375 -3.640625 L 1.609375 -3.640625 C 1.859375 -4.160156 2.300781 -4.421875 2.9375 -4.421875 Z M 2.9375 -4.421875 "/></g></g></g></svg>