<?xml version="1.0" encoding="UTF-8"?>
<svg id="Layer_2" data-name="Layer 2" xmlns="http://www.w3.org/2000/svg" viewBox="0 0 361.45 165.97">
  <defs>
    <style>
      .cls-1 {
        fill: none;
      }

      .cls-2 {
        fill: #231f20;
      }

      .cls-3 {
        fill: #2da7df;
      }

      .cls-4 {
        fill: #fff;
      }

      .cls-5 {
        fill: #2ba8e0;
      }

      .cls-6 {
        fill: #112649;
      }
    </style>
  </defs>
  <g id="Layer_1-2" data-name="Layer 1">
    <g>
      <path class="cls-4" d="M142.15,91.36l-13.76-20.43,12.21-16c1.08-1.42,1.26-3.3.47-4.9-.79-1.6-2.39-2.6-4.18-2.6h-8.57c-1.49,0-2.91.72-3.78,1.93l-10.56,14.6V30.25c0-2.57-2.09-4.67-4.67-4.67h-7.72c-2.57,0-4.67,2.09-4.67,4.67v63.72c0,2.57,2.09,4.67,4.67,4.67h7.72c2.57,0,4.67-2.09,4.67-4.67v-14.6l10.71,17.08c.86,1.37,2.34,2.19,3.95,2.19h9.64c1.73,0,3.31-.95,4.12-2.47.81-1.53.72-3.36-.25-4.8Z"/>
      <path class="cls-4" d="M90.98,70.76c-1.4-1.19-2.98-2.16-4.71-2.89-1.66-.7-3.33-1.24-4.93-1.62-2.54-.63-4.39-1.21-5.48-1.71-.67-.3-.8-.66-.8-1.18,0-.79.27-1.09.69-1.3,2.02-1.01,4.54-.79,6.73.35.59.31,1.14.64,1.65,1.01,1.96,1.39,4.66,1.07,6.28-.75l3.36-3.78c.91-1.02,1.34-2.38,1.17-3.74-.16-1.36-.9-2.59-2.02-3.38-1.57-1.1-3.33-2-5.25-2.68-5.17-1.83-10.65-2.3-16.12-.75-2.2.62-4.24,1.61-6.05,2.92-1.85,1.35-3.38,3.09-4.55,5.19-1.19,2.14-1.79,4.73-1.79,7.72,0,2.35.42,4.42,1.24,6.14.81,1.7,1.88,3.15,3.17,4.32,1.27,1.15,2.73,2.07,4.33,2.74,1.52.63,3.05,1.15,4.55,1.52,2.7.69,4.68,1.35,5.89,1.95.88.44,1.07.95,1.07,1.57,0,1.02-.35,1.34-.73,1.54-.84.45-1.66.66-2.49.66-1.72,0-3.31-.41-4.84-1.24-.79-.43-1.53-.92-2.2-1.46-1.91-1.54-4.82-1.24-6.48.67l-3.48,3.99c-.88,1.01-1.29,2.31-1.14,3.64.15,1.35.86,2.58,1.97,3.4,1.74,1.28,3.74,2.34,5.95,3.14,3.41,1.23,6.94,1.86,10.49,1.86,2.23,0,4.49-.29,6.73-.87,2.3-.59,4.4-1.56,6.24-2.88,1.89-1.35,3.44-3.13,4.61-5.31,1.18-2.2,1.78-4.88,1.78-7.97,0-2.41-.45-4.55-1.34-6.34-.87-1.77-2.05-3.28-3.49-4.51Z"/>
      <path class="cls-4" d="M53.21,53.82h0c-1.68-2.2-3.89-3.84-6.58-4.88-5.11-1.98-13.04-2.21-19.97.5-1.91.74-3.71,1.71-5.35,2.86-1.34.94-2.23,2.43-2.44,4.07-.21,1.67.3,3.37,1.39,4.64l1.9,2.22c1.71,2,4.62,2.41,6.77.95.64-.44,1.33-.84,2.07-1.21,3.18-1.6,6.92-1.57,9.17.08.8.58,1.26,1.45,1.42,2.63-2.5.06-5.07.24-7.67.54-3.29.37-6.34,1.15-9.05,2.29-2.82,1.19-5.16,2.9-6.95,5.08-1.86,2.27-2.93,5.65-2.93,9.28,0,2.91.54,5.42,1.6,7.46,1.05,2.02,2.43,3.68,4.1,4.91,1.63,1.2,3.45,2.08,5.41,2.62,4.82,1.31,9.34.95,13.24-.92.99-.47,1.92-1.1,2.77-1.85.31,2.01,2.05,3.55,4.15,3.55h7.41c2.31,0,4.2-1.88,4.2-4.2v-21.58c0-4.2-.36-7.9-1.08-10.99-.74-3.2-1.95-5.9-3.58-8.04ZM42.07,77.6c-.02,2.36-.61,4.15-1.78,5.47-1.42,1.6-3.69,2.4-6.83,1.73-.51-.1-.96-.28-1.33-.53-.34-.22-.62-.52-.85-.9-.2-.34-.3-.77-.3-1.31,0-.89.23-1.56.7-2.05.6-.63,1.35-1.09,2.29-1.43,1.06-.37,2.29-.63,3.67-.77,1.47-.14,2.92-.22,4.36-.22h.07Z"/>
    </g>
    <path class="cls-5" d="M43.75,77.46v-1.53h-1.74c-1.49,0-3,.08-4.52.23-1.52.15-2.88.44-4.07.86-1.19.42-2.17,1.04-2.95,1.85-.78.81-1.16,1.88-1.16,3.21,0,.84.18,1.57.54,2.17.36.6.82,1.08,1.37,1.44.55.36,1.19.62,1.91.77.72.15,1.41.23,2.07.23,2.77,0,4.88-.83,6.35-2.48,1.46-1.65,2.2-3.9,2.2-6.73Z"/>
    <path class="cls-6" d="M79.46,129.84c0,3.05-.57,5.62-1.7,7.7-1.13,2.09-2.65,3.77-4.57,5.05-1.92,1.28-4.13,2.21-6.64,2.8-2.51.59-5.11.89-7.82.89h-6.27v19.69h-12.61v-52.2h19.17c2.85,0,5.52.28,8,.85,2.48.57,4.65,1.48,6.49,2.73,1.84,1.25,3.29,2.9,4.35,4.94,1.06,2.04,1.59,4.56,1.59,7.56ZM66.85,129.92c0-1.23-.25-2.24-.74-3.02-.49-.79-1.16-1.4-1.99-1.84-.84-.44-1.78-.74-2.84-.89-1.06-.15-2.15-.22-3.28-.22h-5.53v12.31h5.31c1.18,0,2.31-.1,3.39-.29,1.08-.19,2.05-.54,2.91-1.03.86-.49,1.53-1.14,2.03-1.95.49-.81.74-1.83.74-3.06Z"/>
    <g>
      <path class="cls-6" d="M110.23,165.97l-11.33-20.72h-4.3v20.72h-12.31v-52.2h19.91c2.51,0,4.95.26,7.34.77,2.38.52,4.52,1.39,6.41,2.62,1.89,1.23,3.4,2.85,4.53,4.87s1.7,4.52,1.7,7.52c0,3.54-.96,6.51-2.88,8.92-1.92,2.41-4.57,4.13-7.96,5.16l13.64,22.34h-14.75ZM109.72,129.77c0-1.23-.26-2.22-.78-2.99s-1.18-1.35-2-1.77c-.82-.42-1.73-.7-2.74-.85-1.01-.15-1.99-.22-2.93-.22h-6.74v12.16h6c1.04,0,2.1-.09,3.19-.26,1.09-.17,2.07-.48,2.96-.92.89-.44,1.62-1.08,2.19-1.92.57-.83.85-1.92.85-3.24Z"/>
      <path class="cls-6" d="M129,165.97v-52.2h12.68v52.2h-12.68Z"/>
      <path class="cls-6" d="M253.88,165.97l-4.05-10.25h-20.2l-3.83,10.25h-13.71l21.9-52.2h12.24l21.68,52.2h-14.01ZM239.88,127.7l-6.64,17.92h13.12l-6.49-17.92Z"/>
      <path class="cls-6" d="M298.01,165.97l-11.34-20.72h-4.3v20.72h-12.31v-52.2h19.91c2.51,0,4.95.26,7.34.77,2.38.52,4.52,1.39,6.41,2.62,1.89,1.23,3.4,2.85,4.53,4.87s1.7,4.52,1.7,7.52c0,3.54-.96,6.51-2.87,8.92-1.92,2.41-4.57,4.13-7.96,5.16l13.63,22.34h-14.74ZM297.49,129.77c0-1.23-.26-2.22-.78-2.99s-1.18-1.35-2-1.77c-.81-.42-1.73-.7-2.74-.85s-1.99-.22-2.93-.22h-6.74v12.16h6c1.04,0,2.1-.09,3.18-.26s2.07-.48,2.96-.92c.89-.44,1.62-1.08,2.18-1.92.57-.83.86-1.92.86-3.24Z"/>
      <path class="cls-6" d="M341.39,143.85v22.12h-12.61v-22.12l-19.61-30.08h15.26l11.13,19.32,11.13-19.32h14.75l-20.06,30.08Z"/>
    </g>
    <g>
      <path class="cls-6" d="M157,139.77c-.17-.15-.37-.3-.58-.45-.13,0-.26,0-.37,0-.97.11-2.01.06-3.12-.14-.48-.09-.93-.28-1.31-.54-.42-.17-.85-.39-1.26-.65-.03-.02-.07-.05-.1-.08v28.04h11.87l-.2-24.6c-.66-.01-1.26-.06-1.78-.19-1.21-.18-2.27-.65-3.16-1.41Z"/>
      <path class="cls-6" d="M202.35,113.96c-.42.02-.81-.06-1.18-.19h-9.39c-.05.1-.08.2-.13.29l-11.27,33.18h-.29l-4.48-12.61c-.55.55-1.12,1.08-1.73,1.57-.31.45-.78.9-1.49,1.26-.1.05-.21.1-.31.14l-.53.54c-.22.23-.47.42-.75.57l-.68.38c-.12.1-.25.19-.38.27-.04.04-.09.07-.13.09-.55.37-1.22.64-2.22.91-.42.1-.74.19-.98.3-.05.02-.13.03-.18.06l9.02,25.26h8.85l13.57-36.94h.22l-.29,36.94h12.39v-51.59c-.47-.05-.95-.1-1.45-.16-2.11-.24-4.19-.32-6.18-.26Z"/>
      <path class="cls-6" d="M160.81,88.1h0s0,0,0,0ZM163.63,63.24h0s0,0,0,0ZM166.44,58.26s0,0,0,0c0,0,0,0,0,0ZM202.66,113.5h0,0Z"/>
      <path class="cls-6" d="M201.17,113.77c.38.13.77.21,1.18.19,1.99-.07,4.07.02,6.18.26.5.06.98.11,1.45.16v-.61h-8.81Z"/>
      <path class="cls-6" d="M191.75,113.77l-.1.29c.05-.09.09-.19.13-.29h-.03Z"/>
      <path class="cls-6" d="M150.5,113.77h-.23v6.09c.05-.07.07-.12.12-.2.07-.07.15-.11.22-.11s.11-.04.11-.11c.15-.29.2-.52.16-.66-.04-.15.02-.29.16-.44l1.09-1.33c.29-.15.54-.44.76-.88.72-.88,1.34-1.57,1.84-2.04.12-.12.22-.21.34-.32h-4.57Z"/>
    </g>
    <g>
      <path class="cls-6" d="M196.05,96.59c-.15.29-.26.55-.33.77-.07.22-.15.44-.22.66-.15.3-.22.48-.22.55-.36.96-.7,1.84-1.03,2.65-.33.81-.67,1.51-1.03,2.1h9.49c3.15,0,6.09.22,8.84.66,3.62.44,6.62,1.47,9,3.09,0,.74.05,1.43.16,2.1s.16,1.29.16,1.88l-.33,2.43-1.09,1.22c-.29-.07-.43-.17-.43-.28s.06-.22.16-.33.22-.2.33-.28c.11-.07.16-.15.16-.22-.07-.37-.16-.46-.27-.28s-.2.28-.27.28c-.15-.15-.22-.35-.22-.61s-.07-.46-.22-.61l-1.52-.33c-.43-.07-.81-.16-1.14-.28s-.71-.2-1.14-.28c-1.73-.15-3.74-.35-6.02-.61-2.28-.26-4.5-.35-6.67-.28-.07-.37.2-.52.81-.44.61.07,1.1,0,1.46-.22,2.46.15,4.79.31,7,.5,2.21.18,4.28.46,6.24.83.14-.37-.02-.57-.49-.61s-.81-.05-1.03-.05c-.72-.3-1.37-.44-1.95-.44-.8-.22-1.63-.39-2.5-.5-.87-.11-1.81-.2-2.82-.28l-.76.11c-.15-.15-.36-.2-.65-.16-.29.04-.8.05-1.52.05-.29,0-.65-.07-1.09-.22-1.95-.07-4.25-.09-6.89-.05-2.64.04-5.23.13-7.76.28-.58.07-.8.28-.65.61s.15.57,0,.72c-.15.15-.31.22-.49.22s-.27.04-.27.11c-.15.29-.18.57-.11.83.07.26.04.46-.11.61-.07,0-.22.04-.43.11s-.33.15-.33.22c-.15.22-.22.42-.22.61s-.07.42-.22.72c-.07.15-.25.28-.54.39s-.51.31-.65.61c0,.07.04.2.11.39.07.18.07.31,0,.39h-.22c-.07,0-.13.02-.16.06-.04.04-.09.05-.16.05-.15.15-.2.35-.16.61.04.26.02.46-.05.61-.07.07-.15.11-.22.11s-.18.04-.33.11c-.15.07-.26.11-.33.11-.07.15-.07.28,0,.39.07.11.07.24,0,.39-.07.15-.2.29-.38.44s-.34.29-.49.44c-.07.07-.07.17,0,.28.07.11.07.2,0,.28l-.98.44c0,.07.04.18.11.33.07.15.07.22,0,.22s-.18.02-.33.05-.25.13-.33.28c-.07.07-.07.18,0,.33.07.15.07.26,0,.33l-.65.44c-.07,0-.07.09,0,.28.07.18.07.31,0,.39-.15.15-.34.26-.6.33s-.34.26-.27.55c0,.29-.15.5-.43.61-.29.11-.43.28-.43.5,0,.07-.04.15-.11.22-.22.22-.25.37-.11.44l-.76.33v.44c-.15.22-.43.42-.87.61-.43.18-.65.42-.65.72,0,.22-.27.59-.81,1.1-.54.51-1,.96-1.36,1.32-.58.66-1.21,1.34-1.9,2.04s-1.43,1.34-2.22,1.93c-.07.15-.11.24-.11.28,0,.04-.07.09-.22.16-.29,0-.56.13-.81.39-.25.26-.56.57-.92.94l-.98.55c-.15.15-.25.22-.32.22l-.11.11c-.22.15-.62.29-1.19.44-.58.15-1.05.29-1.41.44-.51.22-1.23.37-2.17.44-.94.07-1.66.04-2.17-.11-.65-.07-1.19-.29-1.63-.66-.43-.37-.94-.74-1.52-1.1-.72-.15-1.39-.19-2.01-.11-.61.07-1.32.04-2.12-.11,0-.15-.07-.22-.22-.22-.36-.07-.74-.24-1.14-.5-.4-.26-.81-.57-1.25-.94-.14-.22-.33-.39-.54-.5s-.36-.24-.43-.39c-.07-.07-.09-.2-.05-.39.04-.18.02-.28-.06-.28-.14-.15-.31-.22-.49-.22s-.34-.07-.49-.22c-.07-.15-.15-.35-.22-.61s-.25-.46-.54-.61c0-1.1-.04-2.12-.11-3.04-.07-.92,0-1.86.22-2.81.07-.22.11-.37.11-.44.15-.37.2-.74.16-1.1-.04-.37.09-.74.38-1.1,0-.07.04-.11.11-.11s.15-.07.22-.22c0-.22.09-.39.27-.5.18-.11.27-.35.27-.72,0-.3.22-.74.65-1.33.07-.07.15-.11.22-.11s.11-.04.11-.11c.15-.29.2-.52.16-.66s.02-.29.16-.44l1.09-1.33c.29-.15.54-.44.76-.88.72-.88,1.34-1.57,1.84-2.04.51-.48.98-.92,1.41-1.32.43-.41.72-.61.87-.61s.36-.13.65-.39c.29-.26.58-.46.87-.61.22-.15.4-.33.54-.55.15-.22.29-.41.43-.55.07-.07.24-.07.49,0,.25.07.38.07.38,0,.36-.44.98-.92,1.84-1.44.15-.15.25-.16.33-.05.07.11.29.16.65.16-.15.22-.27.39-.38.5s.02.2.38.28c2.24-1.03,4.46-1.97,6.67-2.82,2.21-.84,4.83-1.49,7.87-1.93.43-.07.76-.26.98-.55.22-.29.36-.55.43-.77.15-.29.25-.57.33-.83.07-.26.18-.46.33-.61l.76-.88.22-.44.87-1.66c.07,0,.11-.04.11-.11,0-.22.04-.4.11-.55l.22-.66c.07-.07.11-.22.11-.44l.32-.77c.15-.44.29-.77.43-.99h.11c0-.07.04-.15.11-.22.07-.29.23-.72.49-1.27.25-.55.45-1.01.6-1.38.94-2.13,1.86-4.34,2.77-6.63.9-2.28,1.75-4.6,2.55-6.96,0-.22-.18-.18-.54.11-.36.3-.65.59-.87.88-.22.15-.45.37-.7.66-.26.29-.53.55-.81.77-.51.44-1.01.85-1.52,1.21-.51.37-1.05.74-1.63,1.1-.15.07-.2.15-.16.22.04.07-.02.11-.16.11-.29,0-.51.15-.65.44-.07.07-.13.18-.16.33-.04.15-.09.22-.16.22-.07.07-.16.07-.27,0s-.24-.07-.38,0c-.07.07-.11.18-.11.33,0,.07-.04.15-.11.22-.15.07-.27.07-.38,0-.11-.07-.2-.07-.27,0-.15.07-.24.17-.27.28-.04.11-.09.2-.16.28-.36.22-.7.39-1.03.5s-.74.28-1.25.5c-.07,0-.26.07-.54.22-.07.07-.33.19-.76.33-.22,0-.33.07-.33.22v.22c-.36.07-.76.05-1.19-.06-.43-.11-.83-.09-1.19.06.07,0,.05.04-.06.11s-.2.11-.27.11c-.58.15-1.25.15-2.01,0s-1.43-.37-2.01-.66c-.15-.15-.25-.26-.33-.33-.07-.07-.22-.15-.43-.22-.15-.15-.33-.18-.54-.11-.22.07-.33,0-.33-.22-.43.15-.94.24-1.52.28-.58.04-1.16.05-1.74.05,0-.29-.18-.44-.54-.44s-.62-.04-.76-.11c0-.29-.07-.51-.22-.66-.07,0-.18.02-.33.06-.15.04-.22.02-.22-.06-.15-.15-.2-.31-.16-.5.04-.18-.02-.31-.16-.39-.22-.15-.34-.24-.38-.28-.04-.04-.09-.28-.16-.72-.07-.15-.16-.28-.27-.39-.11-.11-.16-.24-.16-.39,0-.22-.02-.44-.05-.66s-.13-.51-.27-.88c-.07-.44-.13-.94-.16-1.49-.04-.55.02-1.27.16-2.15.36-2.13,1.07-4.51,2.12-7.12,1.05-2.61,2.15-4.95,3.31-7.01.07-.15.18-.28.33-.39.14-.11.22-.24.22-.39,0-.37.13-.63.38-.77.25-.15.45-.33.6-.55.07-.07.07-.18,0-.33-.07-.15-.07-.26,0-.33.15-.07.33-.26.54-.55.29-.37.58-.72.87-1.05.29-.33.61-.46.98-.39,0,.37-.15.66-.43.88l-.43.55c-.15.15-.2.3-.16.44.04.15-.02.3-.16.44-.07.15-.2.22-.38.22s-.27.04-.27.11c-.07.15-.11.3-.11.44s-.07.33-.22.55c-.07.07-.13.09-.16.05-.04-.04-.06.06-.06.28v.33c-.22,0-.47.15-.76.44,0,.07.04.2.11.39.07.18.04.28-.11.28-.29.3-.54.92-.76,1.88-.07.07-.18.16-.33.28-.15.11-.22.2-.22.28-.15.29-.2.52-.16.66.04.15-.02.3-.16.44-.07.07-.13.24-.16.5-.04.26-.09.42-.16.5-.15.15-.31.48-.49.99-.18.52-.34,1.07-.49,1.66h-.22c-.07,0-.11.07-.11.22,0,.07.09.11.27.11s.2.11.05.33c0,.15-.04.28-.11.39-.07.11-.15.24-.22.39,0,.07.02.2.05.39.04.19.02.31-.05.39-.15.15-.33.7-.54,1.66-.22.96-.4,1.66-.54,2.1-.15.37-.22.68-.22.94v.94c-.07.22-.13.55-.16.99s.02.81.16,1.1l.22.77c.14.15.23.33.27.55s.13.41.27.55c.36,0,.54.04.54.11.58-.15.74-.37.49-.66-.25-.29-.42-.55-.49-.77-.07-.96-.04-1.86.11-2.7.14-.85.36-1.75.65-2.71.15-.29.22-.59.22-.88s.04-.59.11-.88h.11v-.11c0-.07.04-.15.11-.22,0-.07-.02-.2-.05-.39-.04-.18-.02-.31.05-.39.22-.15.43-.61.65-1.38.22-.77.4-1.34.54-1.71.14-.66.31-1.29.49-1.88.18-.59.42-1.18.71-1.77.07-.07.14-.09.22-.05.07.04.11-.02.11-.16.07-.22.18-.4.33-.55s.22-.37.22-.66c0-.37.09-.64.27-.83.18-.18.31-.42.38-.72v-.33c.07-.15.18-.28.33-.39.14-.11.29-.24.43-.39.14-.22.27-.48.38-.77s.23-.59.38-.88c.29-.29.43-.59.43-.88,0-.15.25-.5.76-1.05s.98-.83,1.41-.83c.07.37.27.55.6.55s.45.26.38.77c-.43.22-.65.59-.65,1.1.14.37.33.41.54.11.22-.29.5-.51.87-.66.94-.07,1.73.04,2.39.33-.07.15-.11.35-.11.61s-.04.46-.11.61c-.15.07-.33.16-.54.28s-.33.35-.33.72c-.07.15-.2.29-.38.44-.18.15-.27.37-.27.66,0,.15-.04.3-.11.44l-.11.22c0,.07-.04.11-.11.11,0,.15-.09.22-.27.22s-.31.07-.38.22c-.15.15-.2.39-.16.72.04.33-.02.61-.16.83h-.11v.22c0,.3-.11.52-.33.66-.22.15-.33.3-.33.44,0,.37-.13.76-.38,1.16-.26.41-.45.79-.6,1.16-.65,1.69-1.25,3.48-1.79,5.36-.54,1.88-.85,3.96-.92,6.24.14.22.36.26.65.11.14-.07.25-.18.33-.33h.54l.32-.66,1.19-.22c.14-.15.25-.31.33-.5.07-.18.18-.35.33-.5.07-.07.18-.07.33,0,.14.07.25.07.33,0,.07-.15.14-.29.22-.44.07-.15.25-.33.54-.55.22-.15.54-.35.98-.61.43-.26.83-.53,1.19-.83.22-.15.43-.39.65-.72s.47-.57.76-.72c.14-.15.34-.33.6-.55.25-.22.49-.37.7-.44.07-.07.14-.11.22-.11.14,0,.22-.04.22-.11l3.15-3.09c1.01-.96,2.04-1.93,3.09-2.93,1.05-.99,2.04-2,2.98-3.04,1.01-1.03,2.02-2.06,3.04-3.09,1.01-1.03,1.92-2.06,2.71-3.09.29.22.14.63-.43,1.22l-1.3,1.33c-.15.37-.29.66-.43.88-.15.22-.33.44-.54.66-.22.3-.62.66-1.19,1.1-.36.52-.76,1.01-1.19,1.49-.43.48-.83.94-1.19,1.38-.43.37-.8.77-1.09,1.22-.22.15-.4.39-.54.72-.15.33-.29.61-.43.83-.8.81-1.61,1.6-2.44,2.37-.83.77-1.68,1.53-2.55,2.26-.87.81-1.74,1.62-2.6,2.43-.87.81-1.7,1.62-2.49,2.43,2.1-1.69,4.21-3.46,6.35-5.3,2.13-1.84,4.18-3.75,6.13-5.74.29-.44.72-.84,1.3-1.22.79-1.1,1.88-2.32,3.25-3.64.15-.22.33-.42.54-.61.22-.18.4-.35.54-.5l.54-.77c.07-.07.07-.18,0-.33-.07-.15-.07-.22,0-.22h.22c.07-.07.07-.18,0-.33-.07-.15-.07-.26,0-.33h.43c.14-.37.25-.75.33-1.16.07-.4.18-.83.33-1.27h.11c.07,0,.15-.04.22-.11,0-.37.06-.64.16-.83s.23-.42.38-.72c.15-.44.27-.97.38-1.6.11-.62.34-1.12.7-1.49.36-.15.58-.33.65-.55,1.23,0,2.24.19,3.04.55.07,0,.16.09.27.28.11.19.2.28.27.28l.87.44c.14.07.25.16.32.28s.18.24.33.39c.15.07.29.09.43.05.15-.04.29.02.43.17.14.15.18.29.11.44s0,.19.22.11c-.36,2.21-.89,4.35-1.57,6.41-.69,2.06-1.36,4.16-2.01,6.29-.72,1.92-1.37,3.9-1.95,5.96-.58,2.06-1.23,4.09-1.95,6.07,0,.07-.05.11-.16.11s-.16.04-.16.11c-.15.59-.31,1.16-.49,1.71-.18.55-.38,1.2-.6,1.93v.55h-.33c-.15.44-.24.83-.27,1.16-.04.33-.2.79-.49,1.38,0,.07-.04.09-.11.05-.07-.04-.11.02-.11.17s-.06.4-.16.77-.24.7-.38.99c-.15.37-.29.7-.43.99-.15.3-.25.66-.33,1.1v.66c-.15.07-.22.13-.22.17s-.04.13-.11.28l-.33.99c-.22.07-.33.26-.33.55-.07.22-.15.41-.22.55l-.22.44c-.15.15-.22.29-.22.44h.65v-.22c.15-.07.25-.26.33-.55,0-.15.04-.29.11-.44l.22-.55c.15-.07.29-.31.43-.72.14-.4.25-.72.33-.94.07-.37.18-.62.33-.77.14-.15.25-.4.33-.77.14-.59.33-1.12.54-1.6.22-.48.43-1.01.65-1.6v-.77c.14-.07.25-.26.33-.55,0-.15.04-.29.11-.44l.22-.44c.15-.15.33-.61.54-1.38s.4-1.34.54-1.71c0-.07-.02-.16-.05-.28-.04-.11-.02-.2.05-.28h.33c.07-.07.07-.16,0-.28-.07-.11-.07-.2,0-.28.29-.22.47-.59.54-1.1.07-.52.18-1.07.33-1.66.22,0,.33-.07.33-.22.07-.15.16-.4.27-.77s.2-.74.27-1.1v-.55h.32c0-.15-.02-.28-.05-.39-.04-.11-.02-.2.05-.28.29-.15.47-.48.54-.99.07-.51.18-1.07.33-1.66,0-.07.07-.09.22-.06.14.04.22-.02.22-.16,0-.29.06-.59.16-.88.11-.29.23-.62.38-.99.07-.29.16-.61.27-.94s.2-.61.27-.83c.29-.81.47-1.51.54-2.1v-.55c.14-.22.36-.68.65-1.38.29-.7.54-1.23.76-1.6.07-.59.18-1.12.33-1.6.14-.48.29-1.01.43-1.6.14-.15.2-.4.16-.77s.02-.66.16-.88c0-.15.04-.2.11-.17.07.04.11-.02.11-.16.07-.37.14-.57.22-.61.07-.04.18-.09.33-.17.29,1.25.29,2.37,0,3.37-.29.99-.54,2.01-.76,3.04l-.33,1.88c-.29,1.03-.63,2.19-1.03,3.48-.4,1.29-.78,2.52-1.14,3.7-.07.37-.15.72-.22,1.05-.07.33-.18.68-.33,1.05,0,.07.02.19.05.33.04.15.02.22-.05.22-.15.15-.29.5-.43,1.05-.15.55-.29,1.01-.43,1.38,0,.07.02.2.06.39.04.19.02.28-.06.28-.15.15-.29.44-.43.88-.15.44-.29.85-.43,1.22-.07.07-.09.16-.05.28.04.11.05.2.05.28-.15.15-.25.39-.33.72s-.18.72-.33,1.16c-.07,0-.11.04-.11.11s-.02.15-.05.22c-.04.07-.05.15-.05.22-.07.22-.11.44-.11.66-.15.15-.35.57-.6,1.27-.25.7-.45,1.23-.6,1.6-.15.59-.31,1.2-.49,1.82-.18.63-.42,1.23-.71,1.82-.07.07-.07.16,0,.28s.07.2,0,.28h-.22c-.15.44-.24.85-.27,1.22-.04.37-.13.81-.27,1.32-.07.07-.15.09-.22.06s-.11.02-.11.16l-.65,1.55-.33.66h.22ZM154.72,131.48c-.14-.52-.18-1.12-.11-1.82.07-.7-.07-1.23-.43-1.6-.29.29-.52.64-.7,1.05-.18.4-.29.77-.33,1.1-.04.33.07.62.33.88.25.26.67.39,1.25.39ZM156.46,114.37c-.07.07-.06.16.05.28s.13.2.06.28c-.29.29-.61.55-.98.77-.36.22-.61.52-.76.88-.36.37-.67.74-.92,1.1-.25.37-.2.62.16.77,1.16-1.55,2.32-2.8,3.47-3.75-.14-.22-.2-.42-.16-.61.04-.18-.06-.28-.27-.28,0,.15-.07.26-.22.33-.15.07-.29.15-.43.22ZM157.76,132.81c0-.37.2-.54.6-.5s.52-.13.38-.5c-.36,0-.78.13-1.25.39-.47.26-.38.46.27.61ZM173.6,112.16c-.65.22-1.36.42-2.12.61-.76.18-1.57.35-2.44.5-.29.37-.54.7-.76.99-.22.29-.54.59-.98.88-.15.07-.26.09-.33.06s-.15-.06-.22-.06c-.15.07-.24.2-.27.39-.04.18-.09.28-.16.28-.8.66-1.56,1.31-2.28,1.93-.72.63-1.3,1.2-1.74,1.71-.43.59-.85,1.12-1.25,1.6s-.78,1.01-1.14,1.6c0,.15-.02.28-.06.39-.04.11-.05.2-.05.28,0,.29-.15.53-.43.72-.29.18-.4.42-.33.72,0,.15-.06.2-.16.16-.11-.04-.16-.02-.16.06-.36.51-.6.97-.7,1.38-.11.4-.27.83-.49,1.27,0,.44-.04.94-.11,1.49-.07.55-.14,1.05-.22,1.49,1.09-.37,2.05-.88,2.88-1.55.83-.66,1.65-1.33,2.44-1.99.58-.59,1.28-1.25,2.12-1.99.83-.74,1.46-1.36,1.9-1.88.14-.15.2-.31.16-.5-.04-.19-.02-.35.06-.5.29-.22.63-.46,1.03-.72.4-.26.67-.46.81-.61.15-.15.2-.28.16-.39-.04-.11.02-.24.16-.39.07-.15.22-.33.43-.55s.36-.44.43-.66c.14-.15.22-.24.22-.28s.04-.13.11-.28c.07-.15.22-.28.43-.39s.4-.24.54-.39c.58-.81,1.12-1.62,1.63-2.43s1.16-1.55,1.95-2.21c-.15-.22-.22-.46-.22-.72s-.11-.39-.33-.39c0,.15-.18.26-.54.33ZM178.37,116.46c-.07,0-.07.04,0,.11.07.07.07.15,0,.22h-.54c-.07.07-.04.2.11.39.14.18.14.31,0,.39-.15.15-.33.28-.54.39s-.4.28-.54.5c0,.51-.18.96-.54,1.32-.15.15-.34.29-.6.44-.25.15-.42.33-.49.55l-.65,1.22c-.07.22-.22.4-.43.55s-.4.29-.54.44l-.65,1.33-.65.66c-.15.15-.29.29-.43.44-.15.15-.34.31-.6.5-.25.18-.45.39-.6.61-.15.15-.24.33-.27.55s-.16.44-.38.66c-.15.15-.29.26-.43.33-.15.07-.33.26-.54.55-.58.59-1.03,1.05-1.36,1.38s-.74.68-1.25,1.05l-1.63,1.66c-.36.22-.73.43-.87.75-.15.36,1.63-.19,1.63-.19.07,0,.13-.09.16-.28.04-.18.09-.31.16-.39.22-.22.47-.37.76-.44.29-.07.54-.19.76-.33.14-.07.27-.22.38-.44s.2-.37.27-.44c.15-.29.51-.66,1.09-1.1l2.93-2.54c.15-.29.4-.59.76-.88.36-.29.51-.59.43-.88,0-.3.14-.48.43-.55.29-.07.54-.19.76-.33.07-.07.09-.2.05-.39-.04-.18-.05-.31-.05-.39.29,0,.43-.07.43-.22.14-.07.18-.18.11-.33-.07-.15-.11-.29-.11-.44l1.3-.99c.36-.74.85-1.58,1.46-2.54s1.1-1.73,1.46-2.32c.22-.37.38-.59.49-.66.11-.07.34-.22.7-.44.14-.15.2-.35.16-.61-.04-.26.02-.42.16-.5,0-.15.07-.37.22-.66.07-.22.25-.52.54-.88.29-.37.43-.59.43-.66.07-.15.05-.31-.06-.5-.11-.19-.13-.39-.05-.61-.51.88-1.05,1.78-1.63,2.71-.58.92-1.16,1.67-1.73,2.26ZM167.96,71.52l-1.3,3.64v.22l-.11.22v.11h-.11c-.15.37-.22.79-.22,1.27s-.04.87-.11,1.16c0,.44-.09.87-.27,1.27-.18.4-.09.75.27,1.05.07-1.25.25-2.41.54-3.48.29-1.07.61-2.04.98-2.93l.87-2.54c.15-.44.25-.7.33-.77.15-.37.31-.74.49-1.1.18-.37.27-.66.27-.88.14-.29.25-.55.33-.77.07-.22.22-.44.43-.66,0-.15.11-.22.33-.22.22-.52.41-1.01.6-1.49.18-.48.34-.9.49-1.27,0-.15-.02-.29-.05-.44-.04-.15-.13-.22-.27-.22-.58,1.25-1.18,2.52-1.79,3.81-.62,1.29-1.18,2.63-1.68,4.03ZM187.59,79.25c-.22.15-.4.22-.54.22s-.29.07-.43.22c-.15.07-.24.2-.27.39-.04.19-.13.31-.27.39-.43.44-.87.81-1.3,1.1s-.8.55-1.09.77-.53.44-.7.66c-.18.22-.34.44-.49.66h-.54c-.15,0-.26.11-.33.33-.07.22-.18.4-.33.55-.07.07-.16.05-.27-.06s-.24-.09-.38.06c-.07,0-.13.07-.16.22-.04.15-.09.26-.16.33-.07.07-.15.07-.22,0-.07-.07-.15-.07-.22,0s-.13.18-.16.33c-.04.15-.09.22-.16.22-.22.15-.43.2-.65.17-.22-.04-.43.02-.65.16-.15.07-.26.22-.33.44-.07.22-.26.3-.54.22,0,.15-.11.24-.33.28s-.18.13.11.28c.65-.37,1.3-.72,1.95-1.05.65-.33,1.27-.68,1.84-1.05.36-.15.76-.42,1.19-.83.43-.4.76-.61.98-.61.22-.22.36-.4.43-.55.07-.15.18-.33.33-.55.07,0,.18.02.33.06.14.04.29.02.43-.06l1.41-1.32c.22-.37.42-.63.6-.77.18-.15.34-.29.49-.44.07-.07.2-.07.38,0,.18.07.31.07.38,0,.94-1.1,1.84-2.25,2.71-3.42-.8.22-1.39.63-1.79,1.22s-.81,1.07-1.25,1.43ZM186.94,75.16c-.58.52-1.16.99-1.73,1.44-.58.44-1.16.96-1.74,1.55-.58.52-1.14,1.07-1.68,1.66-.54.59-1.18,1.07-1.9,1.44.07.15-.07.31-.43.5-.36.19-.33.31.11.39.15-.37.38-.64.71-.83.32-.18.67-.46,1.03-.83.36-.15.67-.4.92-.77.25-.37.56-.66.92-.88.29-.37.63-.64,1.03-.83.4-.18.71-.39.92-.61.43-.44.81-.88,1.14-1.33s.67-.84,1.03-1.22l-.33.33ZM182.17,110.72c-.22.22-.36.48-.43.77.22-.07.43-.18.65-.33.36-.22.29-.37-.22-.44ZM186.4,103.77c.15-.44.45-.92.92-1.44.47-.52.52-.92.16-1.22,0,.3-.11.55-.33.77s-.42.44-.6.66c-.18.22-.31.42-.38.61-.07.19,0,.39.22.61ZM190.3,71.85l-2.06,2.21h.43c.36-.37.69-.7.98-.99l.98-.99.76-.77c.14-.15.23-.35.27-.61.04-.26.13-.46.27-.61.29-.37.69-.68,1.19-.94.5-.26.54-.57.11-.94-.58.59-1.08,1.2-1.52,1.82-.43.63-.9,1.23-1.41,1.82Z"/>
      <g>
        <path class="cls-1" d="M51.88,54.84c-1.49-1.96-3.45-3.4-5.85-4.33-2.41-.93-5.35-1.4-8.84-1.4s-6.68.63-9.92,1.9c-1.79.7-3.46,1.59-5,2.67-2.04,1.44-2.36,4.36-.73,6.25l1.9,2.22c1.14,1.33,3.1,1.64,4.55.65.7-.48,1.46-.92,2.27-1.33,1.8-.9,3.66-1.35,5.6-1.35,2.1,0,3.87.53,5.31,1.58,1.44,1.05,2.16,2.69,2.16,4.92v.72c-2.99,0-6.06.18-9.21.54-3.15.36-6.02,1.08-8.59,2.17-2.57,1.08-4.68,2.62-6.31,4.6-1.63,1.99-2.55,4.97-2.55,8.22,0,2.65.47,4.88,1.41,6.68.94,1.81,2.14,3.25,3.61,4.33,1.47,1.08,3.08,1.87,4.86,2.35,1.77.48,3.49.72,5.15.72,2.49,0,4.8-.51,6.93-1.53,2.13-1.02,3.82-2.83,4.87-4.69h.25v3.71c0,1.39,1.13,2.52,2.52,2.52h7.41c1.39,0,2.52-1.13,2.52-2.52v-21.58c0-4.09-.35-7.63-1.04-10.61-.69-2.98-1.78-5.45-3.28-7.4Z"/>
        <path class="cls-1" d="M89.89,72.04c-1.27-1.08-2.7-1.96-4.27-2.62-1.58-.66-3.14-1.17-4.69-1.53-2.66-.66-4.58-1.26-5.77-1.81-1.19-.54-1.78-1.44-1.78-2.71s.54-2.26,1.62-2.8c1.08-.54,2.25-.81,3.53-.81,1.66,0,3.24.39,4.73,1.17.65.34,1.27.72,1.85,1.13,1.27.9,3.02.67,4.06-.5l3.36-3.77c1.24-1.4.98-3.56-.55-4.63-1.45-1.02-3.07-1.84-4.85-2.48-2.96-1.05-5.99-1.58-9.09-1.58-1.99,0-4,.29-6.02.86-2.02.57-3.86,1.46-5.52,2.66-1.66,1.2-3.02,2.75-4.07,4.65-1.05,1.9-1.58,4.2-1.58,6.91,0,2.11.36,3.91,1.08,5.42.72,1.51,1.65,2.77,2.78,3.79,1.13,1.02,2.42,1.84,3.86,2.44,1.44.6,2.88,1.08,4.32,1.44,2.82.72,4.9,1.41,6.22,2.08,1.33.66,1.99,1.69,1.99,3.07s-.54,2.45-1.62,3.02c-1.08.57-2.17.86-3.28.86-1.99,0-3.87-.48-5.64-1.44-.89-.48-1.7-1.02-2.45-1.62-1.25-1.01-3.11-.75-4.17.47l-3.48,3.99c-1.21,1.39-.93,3.49.55,4.59,1.62,1.2,3.46,2.17,5.52,2.91,3.24,1.17,6.54,1.76,9.92,1.76,2.1,0,4.2-.27,6.31-.81,2.1-.54,4-1.41,5.69-2.62,1.69-1.2,3.06-2.78,4.11-4.74,1.05-1.96,1.58-4.35,1.58-7.18,0-2.17-.39-4.03-1.16-5.6-.78-1.56-1.8-2.89-3.07-3.97Z"/>
        <path class="cls-1" d="M126.32,70.87l12.93-16.95c1.5-1.97.1-4.8-2.38-4.8h-8.57c-.96,0-1.86.46-2.42,1.24l-13.35,18.44h-.25V30.25c0-1.65-1.34-2.99-2.99-2.99h-7.72c-1.65,0-2.99,1.34-2.99,2.99v63.72c0,1.65,1.34,2.99,2.99,2.99h7.72c1.65,0,2.99-1.34,2.99-2.99v-20.03h.25l13.56,21.62c.55.87,1.5,1.4,2.53,1.4h9.64c2.39,0,3.82-2.67,2.48-4.66l-14.43-21.43Z"/>
        <path class="cls-1" d="M175.21,77.15h0c-.12-.05-.26-.09-.39-.13.13.04.26.08.38.13Z"/>
        <path class="cls-5" d="M162.13,89.72c-.09-.04-.19-.05-.28-.1-.36-.18-.67-.43-.93-.71-.11-.07-.22-.14-.32-.22-.27-.22-.51-.47-.71-.76-.22-.29-.39-.6-.52-.93-.41-.45-.62-.99-.75-1.52-.41-.62-.64-1.36-.64-2.14-.09-.23-.24-.76-.28-1-.09-.54-.15-1.14-.2-1.81-.05-.84.02-1.78.2-2.91.41-2.39,1.18-5.01,2.31-7.83.41-1.03.85-1.99,1.28-2.95C154.47,28.83,121.27,0,81.31,0,36.4,0,0,36.4,0,81.31c0,14.87,4.01,28.79,10.98,40.78L0,162.62l33.16-8.16v-40.69c0-3.7,3-6.7,6.7-6.7h19.17c3.33,0,6.51.34,9.48,1.01,2.82.64,5.33,1.73,7.6,3.09,1.02-2.41,3.4-4.1,6.18-4.1h19.91c2.97,0,5.91.31,8.75.93,3.09.67,5.92,1.84,8.43,3.44.95-2.54,3.38-4.36,6.26-4.36h12.68c.93,0,1.81.19,2.62.53.8-.34,1.69-.53,2.62-.53h14.49c.12-.06.28-.1.42-.15,1.82-5.49,3.04-11.26,3.66-17.2ZM56.2,94.44c0,1.39-1.13,2.52-2.52,2.52h-7.41c-1.39,0-2.52-1.13-2.52-2.52v-3.71h-.25c-1.05,1.87-2.74,3.67-4.87,4.69-2.13,1.02-4.44,1.53-6.93,1.53-1.66,0-3.38-.24-5.15-.72-1.77-.48-3.39-1.26-4.86-2.35-1.47-1.08-2.67-2.53-3.61-4.33-.94-1.81-1.41-4.03-1.41-6.68,0-3.25.92-6.23,2.55-8.22,1.63-1.99,3.73-3.52,6.31-4.6,2.57-1.08,5.44-1.81,8.59-2.17,3.15-.36,6.23-.54,9.21-.54v-.72c0-2.23-.72-3.87-2.16-4.92-1.44-1.05-3.21-1.58-5.31-1.58-1.94,0-3.81.45-5.6,1.35-.81.41-1.56.85-2.27,1.33-1.45.99-3.41.68-4.55-.65l-1.9-2.22c-1.63-1.9-1.31-4.82.73-6.25,1.54-1.08,3.21-1.98,5-2.67,3.24-1.26,6.54-1.9,9.92-1.9s6.43.47,8.84,1.4c2.41.93,4.36,2.38,5.85,4.33,1.49,1.96,2.59,4.42,3.28,7.4.69,2.98,1.04,6.52,1.04,10.61v21.58ZM92.55,88.79c-1.05,1.96-2.42,3.54-4.11,4.74-1.69,1.2-3.58,2.08-5.69,2.62-2.1.54-4.21.81-6.31.81-3.38,0-6.68-.59-9.92-1.76-2.06-.75-3.9-1.72-5.52-2.91-1.49-1.1-1.77-3.2-.55-4.59l3.48-3.99c1.06-1.21,2.92-1.48,4.17-.47.75.6,1.56,1.14,2.45,1.62,1.77.96,3.65,1.44,5.64,1.44,1.11,0,2.2-.29,3.28-.86,1.08-.57,1.62-1.58,1.62-3.02s-.66-2.41-1.99-3.07c-1.33-.66-3.4-1.35-6.22-2.08-1.44-.36-2.88-.84-4.32-1.44-1.44-.6-2.73-1.41-3.86-2.44-1.13-1.02-2.06-2.29-2.78-3.79-.72-1.5-1.08-3.31-1.08-5.42,0-2.71.53-5.01,1.58-6.91,1.05-1.9,2.41-3.45,4.07-4.65,1.66-1.2,3.5-2.09,5.52-2.66,2.02-.57,4.03-.86,6.02-.86,3.1,0,6.13.53,9.09,1.58,1.78.64,3.4,1.46,4.85,2.48,1.53,1.07,1.79,3.24.55,4.63l-3.36,3.77c-1.04,1.16-2.79,1.4-4.06.5-.58-.41-1.2-.79-1.85-1.13-1.49-.78-3.07-1.17-4.73-1.17-1.27,0-2.45.27-3.53.81-1.08.54-1.62,1.48-1.62,2.8s.59,2.17,1.78,2.71c1.19.54,3.11,1.14,5.77,1.81,1.55.36,3.11.87,4.69,1.53,1.58.66,3,1.53,4.27,2.62,1.27,1.08,2.3,2.41,3.07,3.97.77,1.57,1.16,3.43,1.16,5.6,0,2.83-.53,5.22-1.58,7.18ZM138.28,96.96h-9.64c-1.03,0-1.99-.53-2.53-1.4l-13.56-21.62h-.25v20.03c0,1.65-1.34,2.99-2.99,2.99h-7.72c-1.65,0-2.99-1.34-2.99-2.99V30.25c0-1.65,1.34-2.99,2.99-2.99h7.72c1.65,0,2.99,1.34,2.99,2.99v38.54h.25l13.35-18.44c.56-.78,1.46-1.24,2.42-1.24h8.57c2.48,0,3.88,2.84,2.38,4.8l-12.93,16.95,14.43,21.43c1.34,1.99-.09,4.66-2.48,4.66Z"/>
        <path class="cls-3" d="M158.47,106.91c-.14.05-.3.09-.42.15h.38s.03-.1.04-.15Z"/>
      </g>
      <g>
        <path class="cls-6" d="M271.88,73.25c.14-.37.27-.74.38-1.1.11-.37.23-.73.38-1.1.15-.37.33-.55.54-.55,0-.22.02-.31.06-.28.04.04.09.02.16-.05.15-.29.2-.53.16-.72-.04-.18-.02-.35.05-.5,0-.07.11-.11.33-.11s.36-.04.43-.11.07-.16,0-.28c-.07-.11-.07-.2,0-.28.14-.22.29-.4.43-.55.14-.15.25-.29.33-.44.14-.07.16-.16.05-.28s-.13-.24-.05-.39c.14,0,.31-.04.49-.11s.27-.15.27-.22c.14-.15.22-.29.22-.44.07-.15.15-.22.22-.22s.11-.04.11-.11c.43-.96.51-1.84.22-2.65-.43-.07-.76-.06-.98.05s-.43.31-.65.61c-.29.15-.54.39-.76.72s-.36.39-.43.16c.14-.81.02-1.36-.38-1.66-.4-.29-.56-.81-.49-1.55.51,0,.87-.04,1.09-.11.22-.07.36-.29.43-.66-.15,0-.22-.11-.22-.33s.11-.4.33-.55c-.36-.37-.6-.72-.7-1.05s-.45-.53-1.03-.61c-.51-.15-.83-.09-.98.16-.15.26-.36.39-.65.39-.36.07-.83.44-1.41,1.1-.58.66-.9,1.07-.98,1.21-.15.37-.29.65-.43.83-.15.19-.29.39-.43.61-.07.15-.18.28-.33.39-.15.11-.25.2-.33.28-.58.96-1.14,1.95-1.68,2.98-.54,1.03-1.03,2.03-1.46,2.98-.22.37-.45.81-.71,1.33-.25.52-.42.96-.49,1.32-.15.37-.25.59-.33.66-.07.07-.22.22-.43.44-.36.44-.7.85-1.03,1.22s-.67.74-1.03,1.1c-.51.52-1.03,1.01-1.57,1.49-.54.48-1,.98-1.36,1.49-1.01,1.1-2.03,2.23-3.04,3.37-1.02,1.14-1.92,2.12-2.71,2.93-.72.66-1.5,1.36-2.33,2.1-.83.74-1.57,1.4-2.22,1.99-.29.15-.56.39-.81.72s-.45.57-.6.72c-.15.07-.27.07-.38,0-.11-.07-.2-.07-.27,0-.07.07-.11.19-.11.33v.33c-.29.15-.58.22-.87.22-.15.07-.2.11-.16.11s-.02.04-.16.11c-.36.3-.78.54-1.25.72-.47.19-.78.35-.92.5-.29.07-.51.18-.65.33-.65.29-1.21.48-1.68.55-.47.07-.96-.11-1.46-.55.36-.96.67-1.95.92-2.98.25-1.03.56-1.99.92-2.87.07-.29.18-.57.33-.83.14-.26.25-.46.32-.61,0-.15.06-.22.16-.22s.16-.04.16-.11c.15-.52.25-.96.33-1.33.07-.37.18-.7.33-.99h.33c.07-.07.09-.18.06-.33-.04-.15-.02-.26.05-.33.07-.29.25-.55.54-.77.07-.07.09-.2.05-.39-.04-.18-.02-.35.06-.5h.22v-.33h.33c0-.07-.02-.2-.06-.39s-.02-.31.06-.39h.33c0-.07-.02-.16-.06-.28-.04-.11-.02-.2.06-.28.07-.29.29-.62.65-.99.15-.37.33-.66.54-.88s.33-.48.33-.77.11-.5.33-.61.36-.28.43-.5c0-.15.09-.37.27-.66s.31-.52.38-.66c.07,0,.11-.15.11-.44.14-.15.31-.24.49-.28.18-.04.27-.16.27-.39,0-.29.11-.44.32-.44s.29-.22.22-.66c-.29-.15-.51-.04-.65.33-.15.37-.36.63-.65.77-.15.3-.29.52-.43.66s-.25.3-.33.44c0,.22-.04.31-.11.28-.07-.04-.15.02-.22.17-.36.52-.67,1.03-.92,1.55s-.56,1.07-.92,1.66c-.07.15-.18.28-.33.39-.15.11-.26.2-.33.28,0,.29-.11.55-.33.77-.15.3-.29.61-.43.94-.15.33-.29.57-.43.72-.36.74-.69,1.4-.98,1.99-.29.59-.61,1.14-.98,1.66.87-2.43,1.88-4.69,3.04-6.79,1.16-2.1,2.35-4.14,3.58-6.13.14,0,.27-.05.38-.16s.23-.05.38.16c.29,0,.45-.05.49-.16.04-.11.09-.24.16-.39.15-.29.18-.61.11-.94s.07-.5.43-.5c.07-.29.06-.5-.05-.61s-.22-.18-.33-.22-.22-.09-.33-.17c-.11-.07-.13-.26-.06-.55.15-.59.2-1.08.16-1.49-.04-.4-.09-.83-.16-1.27-.58-.07-.87-.29-.87-.66-.29-.15-.62-.15-.98,0-.36.15-.54.04-.54-.33.14-.59.11-1.14-.11-1.66-.51.07-.87.04-1.09-.11-.22-.15-.54-.22-.98-.22-.51,0-.87.13-1.09.39-.22.26-.51.57-.87.94l-1.52,1.55c-.07,0-.09.06-.06.17s.02.2-.05.28c-.15.22-.29.41-.43.55s-.25.3-.33.44c-.22.22-.47.63-.76,1.22h-.33v.44h-.11c-.07,0-.11.11-.11.33v.44h-.43c0,.07.02.17.06.28.04.11.02.2-.06.28h-.32c-.07.07-.06.15.05.22.11.07.09.15-.05.22h-.33c0,.07.02.16.05.28.04.11-.02.2-.16.28-.07.07-.09.18-.06.33.04.15.06.29.06.44h-.33c-.07,0-.07.07,0,.22.07.15.07.26,0,.33h-.43c-.07.07-.07.19,0,.33.07.15.04.26-.11.33h-.33v.44h-.22v.66c-.29.66-.56,1.29-.81,1.88-.04.09-.07.22-.11.32-.15,0-.28,0-.43.01-1.19.07-2.3.15-3.31.22.58-1.47,1.28-3.28,2.12-5.41.83-2.13,1.07-4.23.7-6.3h-.33v-.44c0-.37-.15-.7-.43-.99v-.44c-.29-.37-.58-.64-.87-.83s-.61-.35-.98-.5c-.65-.29-1.41-.46-2.28-.5-.87-.04-1.63.05-2.28.28-.36.15-.74.3-1.14.44-.4.15-.78.26-1.14.33-.36.15-.74.31-1.14.5s-.78.35-1.14.5c-.15.07-.27.11-.38.11s-.27.04-.49.11c-.15,0-.2.04-.16.11.04.07.02.15-.06.22-1.88.96-3.56,1.99-5.04,3.09s-2.8,2.39-3.96,3.87c-.43.66-.85,1.29-1.25,1.88-.4.59-.78,1.25-1.14,1.99-.29.37-.6.81-.92,1.32-.33.52-.52.92-.6,1.22,0,.15-.04.2-.11.17-.07-.04-.14.02-.22.16-.14.37-.23.72-.27,1.05s-.13.57-.27.72c-.22.37-.38.79-.49,1.27s-.23.83-.38,1.05c-.14.3-.23.63-.27.99-.04.37-.13.74-.27,1.1-.36,1.33-.71,2.85-1.03,4.58-.32,1.73-.27,3.3.16,4.69.07.15.07.29,0,.44-.07.15-.07.29,0,.44.07.07.16.16.27.28s.16.2.16.28v.55c.07.07.2.13.38.17.18.04.31.09.38.16.15.15.24.3.27.44.04.15.13.3.27.44.15.15.29.24.43.28.15.04.26.13.33.28.94.15,1.84.15,2.71,0,.87-.15,1.48-.26,1.84-.33.22,0,.33-.04.33-.11v-.11c.29-.15.58-.2.87-.16.29.04.61-.02.98-.17.58-.15,1.14-.33,1.68-.55.54-.22.92-.44,1.14-.66.07,0,.16.02.27.06.11.04.2.02.27-.06.22-.22.4-.37.54-.44.15-.15.25-.28.33-.39s.18-.24.33-.39c.07-.07.2-.11.38-.11s.34-.04.49-.11c.14-.15.31-.37.49-.66.18-.29.38-.55.6-.77.22-.22.45-.44.7-.66.25-.22.49-.51.7-.88.22-.22.42-.42.6-.61.18-.18.38-.46.6-.83l.7-.72c.25-.26.45-.46.6-.61.15-.15.22-.31.22-.5s.04-.35.11-.5c.07,0,.18-.07.33-.22.15-.29.29-.48.43-.55.14-.07.29-.18.43-.33.07-.07.09-.17.06-.28-.04-.11-.06-.2-.06-.28s.09-.13.27-.16.27-.09.27-.17v-.44c.07-.15.16-.28.27-.39l.38-.39c.22-.22.33-.4.33-.55s.05-.24.16-.28c.11-.04.2-.13.27-.28.15-.22.2-.42.16-.61-.04-.18.02-.35.16-.5.07-.15.2-.2.38-.16.18.04.23-.02.16-.17,1.37,0,2.69-.07,3.96-.22.23-.03.47-.02.71-.04-.06.43-.13.84-.17,1.31-.11,1.44-.16,2.67-.16,3.7.07.81.09,1.42.05,1.82-.04.4.02.83.16,1.27.07.37.11.61.11.72s.07.28.22.5c.07.59.2,1.12.38,1.6.18.48.34.87.49,1.16.15.22.24.39.27.5s.2.31.49.61c.07.07.07.18,0,.33-.07.15-.07.22,0,.22.15.15.22.26.22.33.07.07.09.17.06.28s-.06.2-.06.28c.14.15.33.28.54.39s.4.35.54.72c.07.15.09.3.05.44-.04.15-.05.29-.05.44,0,.22.11.37.33.44.36.96.65,1.6.87,1.93.22.33.61.79,1.19,1.38.36.22.74.44,1.14.66.4.22.71.37.92.44.72.15,1.26.15,1.63,0,.36-.15.69-.26.98-.33.22,0,.31-.05.27-.16s.02-.16.16-.16c.5-.15.83-.22.98-.22s.25-.07.33-.22c.07-.07.18-.07.33,0s.29.07.43,0c.14-.15.23-.31.27-.5.04-.18.13-.28.27-.28.07,0,.2-.06.38-.17s.31-.2.38-.28c.22-.15.43-.35.65-.61.22-.26.4-.39.54-.39.36,0,.63-.16.81-.5.18-.33.27-.53.27-.61.14-.15.31-.22.49-.22s.38-.07.6-.22c.22-.22.5-.48.87-.77.36-.29.61-.59.76-.88,1.09-1.03,2.02-1.99,2.82-2.87.79-.88,1.7-1.88,2.71-2.98.14,0,.27-.06.38-.17s.2-.05.27.17c-.36,1.18-.58,2.39-.65,3.64-.07,1.25,0,2.25.22,2.98.14.22.18.37.11.44-.07.07-.04.18.11.33.07.07.09.16.05.28s-.05.2-.05.28h.22v.44c0,.15.09.26.27.33.18.07.34.19.49.33.43.52.85.98,1.25,1.38.4.41.85.68,1.36.83-.15.44-.07.77.22.99.29.22.58.41.87.55.07,0,.07.09,0,.28s-.07.35,0,.5c.07,0,.15.04.22.11.15.15.25.22.33.22.22.07.31.11.27.11-.04,0,.02.04.16.11.14,0,.29-.02.43-.06.14-.04.29-.02.43.06.22-.59.22-1.16,0-1.71s-.43-.94-.65-1.16c-.07-.15-.2-.26-.38-.33-.18-.07-.2-.29-.06-.66.22-.81.42-1.58.6-2.32.18-.74.31-1.44.38-2.1,0-.15.05-.22.16-.22s.16-.04.16-.11c.29-.81.54-1.64.76-2.48.22-.84.5-1.67.87-2.48,0,.07.07-.04.22-.33.07-.22.11-.44.11-.66s.07-.4.22-.55v-.22c0-.15.07-.22.22-.22h.11c.07-.81.33-1.62.76-2.43.07-.37.16-.7.27-.99.11-.29.2-.51.27-.66v-.11c0-.15.07-.2.22-.16.14.04.22.02.22-.06.14-.59.25-1.08.33-1.49.07-.4.18-.79.33-1.16.14,0,.22-.11.22-.33.22-.37.38-.7.49-.99.11-.29.2-.55.27-.77.22-.59.51-1.23.87-1.93.36-.7.61-1.23.76-1.6v-.33c0-.22.07-.31.22-.28.14.04.22-.02.22-.16ZM207.44,91.8c-.07,0-.11-.07-.11-.22-.36-.52-.54-1.16-.54-1.93v-2.37c.29.15.4.46.33.94-.07.48-.07.94,0,1.38,0,.59.14,1.25.43,1.99,0,.15-.04.22-.11.22ZM214.49,74.57c.29.22.38.68.27,1.38s.02,1.12.38,1.27c-.15.37-.24.4-.27.11s-.16-.44-.38-.44v-2.32ZM216.66,85.62c-.8,1.25-1.7,2.32-2.71,3.2-.29.52-.56.96-.81,1.32-.26.37-.67.63-1.25.77-.58-1.69-.71-3.5-.38-5.41.33-1.91.67-3.68,1.03-5.3.22.15.43.33.65.55s.54.33.98.33c-.07.37-.29.7-.65.99-.36.3-.43.63-.22.99.14.37.33.46.54.28s.43-.28.65-.28c.29-.07.58-.07.87,0,.29.07.58.07.87,0,.58-.15,1.1-.37,1.57-.66.47-.29.88-.48,1.25-.55-.8,1.25-1.59,2.5-2.39,3.75ZM225.07,68.72c-.18.88-.38,1.69-.6,2.43-.07.22-.15.48-.22.77-.07.3-.18.63-.33.99-.15.22-.33.63-.54,1.22s-.4,1.07-.54,1.43c-.07.15-.13.24-.16.28-.04.04-.09.13-.16.28-.15.15-.24.3-.27.44-.04.15-.13.26-.27.33-.07.15-.34.28-.81.39-.47.11-.89.2-1.25.28-.58-.66-.89-1.51-.92-2.54-.04-1.03-.02-1.95.06-2.76.07-.59.29-1.34.65-2.26.36-.92.72-1.67,1.09-2.26.14-.15.22-.26.22-.33.14-.15.22-.29.22-.44s.07-.29.22-.44c0-.07.07-.13.22-.17.14-.04.25-.05.33-.05,0-.22.02-.44.05-.66s.2-.4.49-.55c.14-.15.33-.22.54-.22s.29-.15.22-.44c.29-.07.47-.04.54.11.07.15.22.22.43.22.14.07.2.2.16.39-.04.18-.02.35.05.5l.65.66c.14.74.13,1.55-.06,2.43ZM228.33,66.57c-.11-.26-.13-.46-.06-.61.07-.29.16-.31.27-.06.11.26.13.46.06.61-.07.29-.16.31-.27.05ZM240.31,76.67c-.15.15-.22.29-.22.44s-.04.29-.11.44c-.36.37-.58.81-.65,1.32-.01,0-.01-.01-.02-.01.04-.1.03-.23.08-.32.18-.29.27-.62.27-.99.06-.33.3-.8.66-1.37.14.03.28.06.43.12-.04.05-.06.1-.11.15-.15.15-.25.22-.33.22ZM243.24,63.42c.36,0,.56.15.6.44.04.3.27.37.7.22-.15.22-.43.26-.87.11-.43-.15-.58-.4-.43-.77ZM241.07,74.57c0-.15.07-.26.22-.33.14-.07.25-.15.33-.22.07-.15.07-.29,0-.44-.07-.15-.07-.26,0-.33h.33c.07,0,.09-.06.05-.17s-.02-.2.06-.28h.22c0-.07-.02-.18-.06-.33-.04-.15-.02-.26.06-.33.14-.07.27-.24.38-.5s.31-.57.6-.94c.22-.44.54-.84.98-1.21.22-.37.45-.79.71-1.27.25-.48.67-.64,1.25-.5.14.52.07.85-.22.99s-.51.3-.65.44-.22.31-.22.5-.07.35-.22.5c0,.07-.07.11-.22.11s-.25.07-.33.22c-.15.15-.29.37-.43.66-.15.3-.29.55-.43.77-.15.15-.27.24-.38.28s-.24.13-.38.28c0,.07.02.19.05.33.04.15.02.22-.05.22-.15.15-.33.48-.54.99-.07.15-.16.24-.27.28-.11.04-.2.13-.27.28-.22.3-.34.54-.38.72-.01.07-.07.18-.1.26-.16-.06-.35-.09-.52-.14,0-.02.02-.05.02-.07.07-.22.22-.48.43-.77ZM233.15,75.75c-.05.14-.1.26-.14.4-.16-.07-.33-.19-.51-.37.21-.02.44-.02.65-.04ZM256.42,87.6c-.9.66-1.64,1.44-2.22,2.32-.36.37-.78.77-1.25,1.22s-.89.92-1.25,1.44c-.29-.29-.29-.57,0-.83.29-.26.51-.46.65-.61.14-.29.38-.52.7-.66.33-.15.6-.33.81-.55.14-.15.22-.29.22-.44s.04-.29.11-.44c.36-.37.72-.68,1.08-.94.36-.26.72-.57,1.09-.94-.22-.37-.18-.57.11-.61.29-.04.43-.24.43-.61.07,0,.11-.04.11-.11s.04-.15.11-.22l.33-.33c.36-.29.58-.4.65-.33-.22,1.1-.78,1.99-1.68,2.65ZM259.84,79.87c-.15.07-.24.24-.27.5-.04.26-.13.54-.27.83-.15.07-.36.24-.65.5-.29.26-.51.54-.65.83-.94,1.1-1.99,2.21-3.15,3.31-1.16,1.1-2.31,2.17-3.47,3.2-.15.15-.34.33-.6.55-.25.22-.45.44-.6.66-.43.3-.81.61-1.14.94-.32.33-.74.68-1.25,1.05-.87.66-1.86,1.42-2.98,2.26-1.12.85-2.3,1.45-3.53,1.82-.29-.29-.54-.52-.76-.66s-.47-.29-.76-.44c.36-.52.76-.72,1.19-.61.43.11.9-.02,1.41-.39.07,0,.14-.07.22-.22.07-.15.14-.26.22-.33.43-.07.76-.18.98-.33.36-.07.63-.18.81-.33.18-.15.45-.29.81-.44,0-.07-.02-.15-.06-.22s.02-.11.16-.11h.33c.14-.15.34-.33.6-.55.25-.22.45-.4.6-.55.22-.22.43-.39.65-.5s.4-.24.54-.39c1.88-1.69,3.8-3.53,5.75-5.52,1.95-1.99,3.87-3.94,5.75-5.85.07.07.11.22.11.44v.55ZM266.67,78.38c-.22.33-.36.65-.43.94-.15.3-.31.59-.49.88-.18.3-.31.63-.38.99-.07.15-.16.37-.27.66-.11.3-.24.52-.38.66-.07.22-.18.48-.33.77-.15.3-.29.63-.43.99-.15.52-.29,1.01-.43,1.49-.15.48-.29.94-.43,1.38-.29.74-.58,1.58-.87,2.54-.29.96-.51,1.92-.65,2.87-.29-.37-.36-.74-.22-1.1.14-.37.25-.7.32-.99.15-.29.22-.5.22-.61s.07-.39.22-.83c0-.22.11-.33.33-.33.15-.44.22-.85.22-1.22s.07-.74.22-1.1l.11-.11c.07-.07.14-.18.22-.33.36-1.25.81-2.67,1.36-4.25.54-1.58,1.18-2.96,1.9-4.14.36.22.43.5.22.83ZM270.36,70.38c-.72,1.84-1.7,3.5-2.93,4.97-.36-.07-.47-.15-.33-.22.14-.07.29-.18.43-.33,0-.07-.04-.18-.11-.33-.07-.15-.04-.22.11-.22.14-.15.34-.46.6-.94.25-.48.49-.94.71-1.38.07,0,.07-.07,0-.22-.07-.15-.04-.26.11-.33.36-.37.54-.92.54-1.66.58-.81,1.14-1.67,1.68-2.6.54-.92,1.03-1.71,1.46-2.37.36-.07.58-.05.65.06s.15.31.22.61c-1.37,1.47-2.42,3.13-3.15,4.97Z"/>
        <path class="cls-6" d="M306.65,81.75c.25.59.74.96,1.46,1.1.07-.66-.07-1.16-.43-1.49-.36-.33-.62-.79-.76-1.38-.15-.96-.2-1.93-.16-2.93.04-.99.11-1.99.22-2.98s.2-2.02.27-3.09c.07-1.07.07-2.15,0-3.26-.36-.07-.6-.28-.7-.61s-.24-.61-.38-.83c-.29-.22-.54-.4-.76-.55-.22-.15-.47-.33-.76-.55-.51-.37-.98-.81-1.41-1.33-.43-.51-1.01-.77-1.73-.77-.36,0-.62.07-.76.22-.15.15-.25.26-.33.33-.07.07-.18.07-.33,0-.15-.07-.25-.07-.33,0-.15.15-.22.28-.22.39s-.07.16-.22.16c-.22.07-.31.13-.27.17.04.04-.02.09-.16.16-.29.22-.51.37-.65.44s-.29.22-.43.44c-.07.07-.16.09-.27.05-.11-.04-.2-.05-.27-.05-.22.15-.38.3-.49.44-.11.15-.27.29-.49.44-.15.15-.33.24-.54.28-.22.04-.43.13-.65.28-.15.15-.25.31-.32.5-.07.19-.22.31-.43.39-.15.15-.24.26-.27.33-.04.07-.13.19-.27.33-.07.07-.16.07-.27,0-.11-.07-.2-.07-.27,0-.15.15-.24.3-.27.44-.04.15-.13.26-.27.33-.22.15-.43.26-.65.33s-.4.18-.54.33c-.36.22-.67.5-.92.83-.25.33-.53.61-.81.83-.58.52-1.07.99-1.46,1.44-.4.44-.78.85-1.14,1.22,0,.07-.11.2-.33.39-.22.19-.4.16-.54-.06.87-2.13,2.02-4.31,3.47-6.51.14-.15.25-.22.33-.22s.18-.07.33-.22c.07-.15.09-.31.05-.5-.04-.18.02-.35.16-.5.14-.15.31-.28.49-.39.18-.11.31-.24.38-.39.15-.15.22-.33.22-.55.15-.22.34-.4.6-.55.25-.15.49-.33.7-.55s.38-.44.49-.66c.11-.22.09-.51-.05-.88-.07-.22-.18-.28-.33-.17-.15.11-.31.24-.49.39-.18.15-.36.26-.54.33-.18.07-.31,0-.38-.22.43-.29.51-.63.22-.99-.29-.37-.36-.85-.22-1.44-.65-.51-1.36-1.18-2.12-1.99-.76-.81-1.64-1.22-2.66-1.22-.43.07-.71.19-.81.33-.11.15-.34.22-.7.22-.15.07-.2.15-.16.22.04.07-.02.15-.16.22-.51.22-.98.55-1.41.99-.43.44-.76.85-.98,1.21-.29.3-.53.59-.7.88-.18.3-.35.52-.49.66-.65.66-1.05,1.1-1.19,1.32-.15.15-.24.3-.27.44-.04.15-.13.3-.27.44-.22.3-.34.52-.38.66-.04.15-.09.33-.16.55-.07.07-.2.13-.38.16-.18.04-.27.09-.27.17-.07.15-.13.29-.16.44-.04.15-.09.26-.16.33,0,.15-.04.28-.11.39-.07.11-.11.2-.11.28,0,.3-.07.54-.22.72-.15.18-.29.35-.43.5,0,.07-.04.11-.11.11l-.22.22c-.15.22-.31.57-.49,1.05-.18.48-.27.79-.27.94s-.06.2-.16.17c-.11-.04-.16-.02-.16.05-.15.44-.29.88-.43,1.33-.15.44-.29.81-.43,1.1-.07.15-.11.28-.11.39s-.07.24-.22.39c0,.22-.07.4-.22.55-.22.66-.42,1.36-.6,2.1s-.34,1.43-.49,2.1c-.58,2.43-1.08,4.95-1.52,7.57-.43,2.61-.54,5.13-.33,7.56.22.81.33,1.25.33,1.33.15.52.25.98.33,1.38s.18.68.33.83c.07.15.15.28.22.39s.18.24.32.39c.51.88,1.27,1.47,2.28,1.77.07-.15.11-.31.11-.5s.07-.28.22-.28c.07.37.25.55.54.55s.54.07.76.22c.07,0,.13.09.16.28.04.19.09.31.16.39.36.15.71.35,1.03.61.32.26.67.2,1.03-.17.22-.29.27-.59.16-.88-.11-.29-.27-.59-.49-.88s-.45-.59-.7-.88c-.26-.29-.38-.63-.38-.99s.02-.73.06-1.1c.04-.37.27-.74.7-1.1,0,.59.09,1.12.27,1.6.18.48.23,1.05.16,1.71-.07.22-.09.44-.06.66s.13.22.27,0c-.15-.59-.15-1.33,0-2.21.14-.88.25-1.47.33-1.77.14-.44.25-.7.33-.77,0-.22.07-.4.22-.55.07-.15.14-.26.22-.33.07-.07.18-.18.33-.33.15-.15.2-.33.16-.55-.04-.22.02-.4.16-.55.07-.15.22-.33.43-.55.36-.44.69-.85.98-1.22.29-.37.58-.66.87-.88.07,0,.07-.07,0-.22-.07-.15-.07-.26,0-.33.07-.15.14-.26.22-.33.07-.07.18-.18.32-.33.51-.59,1.12-1.14,1.84-1.66.07-.07.07-.18,0-.33-.07-.15-.07-.26,0-.33.14-.29.45-.57.92-.83.47-.26.71-.57.71-.94,0-.15.02-.18.05-.11.04.07.09.04.16-.11,1.09-1.33,2.13-2.5,3.15-3.53.5-.44,1.01-.87,1.52-1.27s.98-.83,1.41-1.27c.22-.22.41-.48.6-.77.18-.29.34-.52.49-.66.07-.07.16-.07.27,0,.11.07.2.07.27,0,.07,0,.15-.09.22-.28.07-.18.11-.31.11-.39.36-.37.74-.68,1.14-.94.4-.26.78-.53,1.14-.83.29-.15.6-.4.92-.77.33-.37.52-.37.6,0,.22.59.33,1.31.33,2.15s.18,1.34.54,1.49c.07.07.07.18,0,.33-.07.15-.07.26,0,.33.07.15.22.33.43.55.22.3.4.55.54.77.14.22.29.48.43.77.43-.37.87-.42,1.3-.16s.83.2,1.19-.17c.36.52.67,1.1.92,1.77.25.66.74,1.07,1.46,1.21,0-.29-.09-.55-.27-.77-.18-.22-.34-.42-.49-.61-.15-.18-.25-.35-.32-.5-.07-.15-.04-.33.11-.55.36.59.67,1.18.92,1.77ZM281.32,79.65l.22-.44c0-.29.06-.53.16-.72s.2-.35.27-.5c.43-1.1.88-2.21,1.36-3.31.47-1.1.99-2.17,1.57-3.2.07-.07.11-.22.11-.44s.04-.33.11-.33h.33c.07-.07.09-.18.06-.33-.04-.15-.06-.26-.06-.33h.43c.14-.29.23-.57.27-.83.04-.26.2-.53.49-.83.07-.15.14-.2.22-.16.07.04.11-.06.11-.28,0-.15.07-.22.22-.22s.25-.07.33-.22c0-.07-.02-.18-.06-.33-.04-.15-.02-.26.06-.33.07-.15.2-.28.38-.39.18-.11.34-.24.49-.39.36-.44.74-.87,1.14-1.27s.78-.9,1.14-1.49c.36.15.54.44.54.88-1.16,1.03-2.12,2.25-2.88,3.64-.76,1.4-1.5,2.87-2.22,4.42h-.11c-.07,0-.11.04-.11.11-.07.52-.33.99-.76,1.44-.15.29-.29.72-.43,1.27s-.36,1.05-.65,1.49c-.36.74-.78,1.4-1.25,1.99-.47.59-.89,1.18-1.25,1.77-.29-.07-.36-.29-.22-.66ZM279.2,91.91c-.4.59-.7,1.29-.92,2.1-.36-.37-.47-.79-.33-1.27.14-.48.25-.83.33-1.05.07-.07.09-.17.06-.28-.04-.11-.06-.24-.06-.39.07-.15.16-.24.27-.28.11-.04.2-.13.27-.28.22-.22.43-.53.65-.94s.43-.79.65-1.16c.22.22.27.5.16.83s-.16.57-.16.72c-.22.74-.53,1.4-.92,1.99ZM281.26,91.36c-.18.07-.31.19-.38.33-.15.15-.22.39-.22.72s-.11.5-.32.5c0,.3-.06.41-.16.33-.11-.07-.13-.18-.05-.33.14-.29.29-.61.43-.94s.36-.64.65-.94c.22.15.23.26.06.33ZM297.26,71.92c-3.11,2.43-5.99,5.08-8.62,7.95-2.64,2.87-5.12,5.93-7.43,9.17-.22-.15-.27-.24-.16-.28.11-.04.16-.16.16-.39.22-1.55.87-2.98,1.95-4.31.14-.15.25-.24.33-.28.07-.04.18-.13.33-.28.43-.81,1.1-1.6,2.01-2.37s1.75-1.53,2.55-2.26c.36-.37.63-.68.81-.94.18-.26.49-.57.92-.94.22-.15.42-.35.6-.61.18-.26.45-.5.81-.72.15-.15.27-.2.38-.16s.23-.02.38-.17c.22-.15.45-.37.71-.66.25-.29.52-.59.81-.88.5-.37,1.08-.75,1.73-1.16.65-.4,1.23-.9,1.74-1.49.14.15.18.26.11.33s-.11.22-.11.44ZM301.98,78.38c-.11-.04-.27-.09-.49-.17,0-.59-.22-.99-.65-1.21v-.77c.14,0,.22.07.22.22s.04.26.11.33c.07.29.22.52.43.66s.29.4.22.77c.22.15.27.2.16.17Z"/>
      </g>
    </g>
    <path class="cls-2" d="M297.94,96.59c0-2.64,2.03-4.72,4.68-4.72s4.67,2.08,4.67,4.72-2.02,4.71-4.67,4.71-4.68-2.08-4.68-4.71ZM306.14,96.59c0-2.07-1.51-3.71-3.51-3.71s-3.51,1.64-3.51,3.71,1.51,3.7,3.51,3.7,3.51-1.65,3.51-3.7ZM300.27,96.58c0-1.53.96-2.57,2.39-2.57,1.2,0,2.07.75,2.28,1.85h-1.33c-.12-.46-.46-.77-.93-.77-.65,0-1.07.61-1.07,1.49s.43,1.47,1.07,1.47c.45,0,.79-.29.92-.75h1.33c-.24,1.14-1.12,1.85-2.28,1.85-1.41,0-2.38-1.04-2.38-2.57Z"/>
  </g>
</svg>