<?xml version="1.0" encoding="UTF-8"?>
<svg id="Layer_2" data-name="Layer 2" xmlns="http://www.w3.org/2000/svg" viewBox="0 0 400 183.67">
  <defs>
    <style>
      .cls-1 {
        fill: none;
      }

      .cls-2 {
        fill: #fff;
      }

      .cls-3 {
        fill: #2ba8e0;
      }
    </style>
  </defs>
  <g id="Layer_1-2" data-name="Layer 1">
    <g>
      <path class="cls-2" d="M157.33,99.43l-14.88-22.09,13.2-17.3c1.17-1.54,1.37-3.57.51-5.3-.86-1.73-2.59-2.81-4.52-2.81h-9.26c-1.62,0-3.14.78-4.09,2.09l-11.42,15.78v-36.44c0-2.78-2.26-5.04-5.04-5.04h-8.34c-2.78,0-5.05,2.26-5.05,5.04v68.89c0,2.78,2.26,5.04,5.05,5.04h8.34c2.78,0,5.04-2.26,5.04-5.04v-15.79l11.58,18.46c.93,1.48,2.53,2.37,4.27,2.37h10.43c1.87,0,3.58-1.02,4.45-2.67.88-1.65.77-3.64-.27-5.19Z"/>
      <path class="cls-2" d="M102.01,77.16c-1.51-1.29-3.23-2.34-5.1-3.12-1.8-.75-3.6-1.34-5.33-1.75-2.75-.69-4.74-1.31-5.92-1.84-.73-.33-.87-.72-.87-1.28,0-.86.29-1.17.75-1.41,2.18-1.1,4.91-.86,7.28.38.63.33,1.23.7,1.79,1.09,2.12,1.5,5.04,1.16,6.79-.81l3.63-4.08c.98-1.1,1.44-2.57,1.27-4.04-.17-1.47-.97-2.8-2.18-3.65-1.69-1.19-3.61-2.16-5.68-2.9-5.59-1.98-11.52-2.49-17.43-.82-2.38.67-4.58,1.74-6.54,3.16-2,1.46-3.66,3.35-4.91,5.61-1.28,2.31-1.93,5.12-1.93,8.35,0,2.54.45,4.78,1.34,6.64.88,1.83,2.03,3.4,3.43,4.67,1.38,1.24,2.95,2.24,4.69,2.96,1.64.69,3.3,1.24,4.92,1.65,2.92.75,5.06,1.46,6.37,2.11.96.48,1.15,1.02,1.15,1.7,0,1.1-.38,1.45-.79,1.67-.91.48-1.79.72-2.7.72-1.86,0-3.58-.44-5.24-1.34-.86-.47-1.66-1-2.38-1.57-2.07-1.67-5.21-1.34-7.01.72l-3.76,4.32c-.96,1.1-1.39,2.49-1.23,3.94.16,1.46.93,2.79,2.12,3.67,1.88,1.39,4.04,2.53,6.43,3.4,3.68,1.33,7.5,2.01,11.34,2.01,2.41,0,4.85-.31,7.27-.94,2.48-.64,4.75-1.69,6.75-3.11,2.04-1.46,3.72-3.39,4.99-5.74,1.27-2.37,1.92-5.27,1.92-8.62,0-2.61-.49-4.91-1.45-6.86-.94-1.91-2.21-3.55-3.77-4.87Z"/>
      <path class="cls-2" d="M61.18,58.84h0c-1.81-2.37-4.21-4.15-7.11-5.28-5.53-2.14-14.1-2.39-21.59.54-2.06.8-4.01,1.85-5.79,3.1-1.45,1.02-2.41,2.62-2.64,4.4-.23,1.81.32,3.64,1.51,5.02l2.06,2.4c1.85,2.16,5,2.6,7.32,1.02.69-.47,1.44-.91,2.24-1.31,3.44-1.73,7.48-1.69,9.91.09.86.63,1.37,1.57,1.53,2.85-2.7.06-5.48.25-8.29.58-3.56.41-6.85,1.24-9.78,2.47-3.05,1.28-5.58,3.13-7.52,5.5-2.01,2.45-3.17,6.11-3.17,10.03,0,3.15.58,5.86,1.73,8.06,1.14,2.19,2.63,3.97,4.43,5.31,1.76,1.3,3.73,2.25,5.85,2.83,5.21,1.41,10.1,1.03,14.32-.99,1.07-.51,2.08-1.19,3-2,.34,2.17,2.22,3.84,4.48,3.84h8.01c2.5,0,4.54-2.04,4.54-4.54v-23.33c0-4.55-.39-8.54-1.17-11.88-.8-3.46-2.11-6.38-3.87-8.69ZM49.13,84.55c-.02,2.55-.65,4.48-1.92,5.92-1.53,1.73-3.99,2.59-7.38,1.87-.55-.11-1.03-.3-1.44-.57-.37-.24-.67-.56-.92-.97-.22-.37-.33-.83-.33-1.41,0-.96.25-1.68.75-2.22.65-.68,1.46-1.18,2.48-1.54,1.14-.4,2.48-.68,3.97-.83,1.59-.16,3.16-.23,4.71-.23h.07Z"/>
    </g>
    <path class="cls-3" d="M50.95,84.39v-1.66h-1.89c-1.62,0-3.25.08-4.89.24-1.65.16-3.11.47-4.4.93-1.29.46-2.35,1.12-3.19,2-.84.88-1.26,2.04-1.26,3.47,0,.91.19,1.69.58,2.34.39.65.88,1.17,1.48,1.56.6.39,1.29.67,2.06.83.78.16,1.53.24,2.24.24,2.99,0,5.28-.89,6.87-2.68,1.58-1.79,2.38-4.21,2.38-7.27Z"/>
    <path class="cls-2" d="M87.93,143.69c0,3.37-.63,6.22-1.88,8.53-1.25,2.31-2.94,4.18-5.06,5.59-2.12,1.42-4.57,2.45-7.34,3.1-2.77.65-5.66.98-8.65.98h-6.93v21.79h-13.95v-57.77h21.22c3.15,0,6.1.32,8.85.94,2.75.63,5.14,1.63,7.18,3.02,2.04,1.39,3.64,3.21,4.81,5.47,1.17,2.26,1.75,5.05,1.75,8.36ZM73.98,143.77c0-1.36-.27-2.48-.82-3.35-.55-.87-1.28-1.55-2.2-2.04-.93-.49-1.97-.82-3.14-.98-1.17-.16-2.38-.24-3.63-.24h-6.12v13.63h5.87c1.31,0,2.56-.11,3.75-.33,1.2-.22,2.27-.6,3.22-1.14.95-.54,1.7-1.26,2.24-2.16.54-.9.82-2.02.82-3.38Z"/>
    <g>
      <path class="cls-2" d="M121.99,183.67l-12.54-22.93h-4.76v22.93h-13.63v-57.77h22.03c2.77,0,5.48.29,8.12.86,2.64.57,5,1.54,7.1,2.9,2.09,1.36,3.77,3.15,5.02,5.39s1.88,5.01,1.88,8.32c0,3.92-1.06,7.21-3.18,9.87-2.12,2.67-5.06,4.57-8.81,5.71l15.1,24.72h-16.32ZM121.42,143.61c0-1.36-.29-2.46-.86-3.3s-1.31-1.5-2.21-1.96c-.9-.46-1.91-.78-3.04-.94-1.12-.16-2.2-.24-3.24-.24h-7.46v13.46h6.64c1.15,0,2.32-.09,3.53-.28,1.2-.19,2.29-.53,3.28-1.02.99-.49,1.79-1.2,2.42-2.12.63-.92.94-2.12.94-3.59Z"/>
      <path class="cls-2" d="M142.75,183.67v-57.77h14.03v57.77h-14.03Z"/>
      <path class="cls-2" d="M280.96,183.67l-4.49-11.34h-22.36l-4.24,11.34h-15.18l24.23-57.77h13.54l23.99,57.77h-15.5ZM265.46,141.32l-7.34,19.83h14.52l-7.18-19.83Z"/>
      <path class="cls-2" d="M329.79,183.67l-12.54-22.93h-4.76v22.93h-13.63v-57.77h22.03c2.77,0,5.48.29,8.12.86,2.64.57,5,1.54,7.1,2.9,2.09,1.36,3.76,3.15,5.01,5.39s1.88,5.01,1.88,8.32c0,3.92-1.06,7.21-3.18,9.87-2.12,2.67-5.06,4.57-8.81,5.71l15.09,24.72h-16.31ZM329.22,143.61c0-1.36-.29-2.46-.86-3.3s-1.31-1.5-2.22-1.96c-.9-.46-1.91-.78-3.03-.94s-2.2-.24-3.24-.24h-7.46v13.46h6.64c1.15,0,2.32-.09,3.52-.28s2.3-.53,3.28-1.02c.98-.49,1.79-1.2,2.42-2.12.63-.92.95-2.12.95-3.59Z"/>
      <path class="cls-2" d="M377.81,159.19v24.48h-13.95v-24.48l-21.71-33.29h16.89l12.32,21.38,12.32-21.38h16.32l-22.19,33.29Z"/>
    </g>
    <g>
      <path class="cls-2" d="M173.74,154.68c-.19-.16-.41-.33-.64-.49-.15,0-.29,0-.41.01-1.07.13-2.22.07-3.46-.16-.54-.1-1.02-.31-1.45-.6-.47-.19-.94-.43-1.39-.72-.04-.02-.07-.06-.11-.08v31.03h13.14l-.22-27.22c-.73-.01-1.39-.07-1.97-.21-1.34-.2-2.52-.72-3.49-1.56Z"/>
      <path class="cls-2" d="M223.93,126.12c-.46.02-.89-.07-1.31-.21h-10.39c-.05.11-.09.22-.14.32l-12.47,36.72h-.33l-4.95-13.95c-.61.6-1.24,1.19-1.92,1.73-.34.5-.86,1-1.65,1.39-.11.06-.23.11-.35.15l-.58.59c-.24.25-.52.46-.83.64l-.75.43c-.14.11-.28.21-.42.3-.05.04-.1.07-.14.1-.61.41-1.35.71-2.46,1-.46.12-.82.22-1.09.33-.06.03-.14.04-.2.06l9.99,27.95h9.79l15.01-40.88h.24l-.33,40.88h13.71v-57.09c-.52-.06-1.05-.11-1.6-.18-2.33-.26-4.64-.36-6.84-.28Z"/>
      <path class="cls-2" d="M177.96,97.49h0s0,0,0,0ZM181.08,69.98h0s0,0,0,0ZM184.19,64.48s0,0,0,0c0,0,0,0,0,0ZM224.28,125.6h0,0Z"/>
      <path class="cls-2" d="M222.62,125.9c.42.14.85.24,1.31.21,2.2-.07,4.51.02,6.84.28.55.06,1.08.12,1.6.18v-.67h-9.75Z"/>
      <path class="cls-2" d="M212.2,125.9l-.11.32c.06-.1.1-.21.14-.32h-.04Z"/>
      <path class="cls-2" d="M166.55,125.9h-.26v6.74c.05-.08.08-.13.14-.22.08-.08.16-.12.24-.12s.12-.04.12-.12c.16-.33.22-.57.18-.73-.04-.16.02-.33.18-.49l1.2-1.47c.32-.16.6-.49.84-.98.8-.98,1.48-1.73,2.04-2.26.14-.13.25-.23.38-.36h-5.06Z"/>
    </g>
    <g>
      <path class="cls-2" d="M216.97,106.89c-.16.33-.28.61-.36.85-.08.24-.16.49-.24.73-.16.33-.24.53-.24.61-.4,1.06-.78,2.04-1.14,2.93-.36.9-.74,1.67-1.14,2.32h10.5c3.48,0,6.74.24,9.78.73,4,.49,7.32,1.63,9.96,3.42,0,.81.06,1.59.18,2.32s.18,1.42.18,2.08l-.36,2.69-1.2,1.34c-.32-.08-.48-.18-.48-.31s.06-.24.18-.37.24-.23.36-.3c.12-.08.18-.16.18-.24-.08-.41-.18-.51-.3-.31s-.22.31-.3.31c-.16-.16-.24-.39-.24-.67s-.08-.51-.24-.67l-1.68-.37c-.48-.08-.9-.18-1.26-.3s-.78-.23-1.26-.31c-1.92-.16-4.14-.39-6.66-.67-2.52-.29-4.98-.39-7.38-.3-.08-.41.22-.57.9-.49.68.08,1.22,0,1.62-.24,2.72.16,5.3.35,7.74.55,2.44.2,4.74.51,6.9.92.16-.41-.02-.63-.54-.67s-.9-.06-1.14-.06c-.8-.33-1.52-.49-2.16-.49-.88-.24-1.8-.43-2.76-.55-.96-.12-2-.22-3.12-.3l-.84.12c-.16-.16-.4-.22-.72-.18-.32.04-.88.06-1.68.06-.32,0-.72-.08-1.2-.24-2.16-.08-4.7-.1-7.62-.06-2.92.04-5.78.14-8.58.3-.64.08-.88.3-.72.67s.16.63,0,.8c-.16.16-.34.24-.54.24s-.3.04-.3.12c-.16.32-.2.63-.12.92.08.28.04.51-.12.67-.08,0-.24.04-.48.12s-.36.16-.36.24c-.16.24-.24.47-.24.67s-.08.47-.24.8c-.08.16-.28.3-.6.43s-.56.35-.72.67c0,.08.04.22.12.43.08.2.08.35,0,.43h-.24c-.08,0-.14.02-.18.06-.04.04-.1.06-.18.06-.16.16-.22.39-.18.67.04.28.02.51-.06.67-.08.08-.16.12-.24.12s-.2.04-.36.12c-.16.08-.28.12-.36.12-.08.16-.08.3,0,.43.08.12.08.26,0,.43-.08.16-.22.32-.42.49s-.38.33-.54.49c-.08.08-.08.18,0,.31.08.12.08.22,0,.3l-1.08.49c0,.08.04.2.12.37.08.16.08.24,0,.24s-.2.02-.36.06-.28.14-.36.31c-.08.08-.08.2,0,.37.08.16.08.28,0,.37l-.72.49c-.08,0-.08.1,0,.3.08.2.08.35,0,.43-.16.16-.38.29-.66.37s-.38.29-.3.61c0,.33-.16.55-.48.67-.32.12-.48.31-.48.55,0,.08-.04.16-.12.24-.24.24-.28.41-.12.49l-.84.37v.49c-.16.24-.48.47-.96.67-.48.2-.72.47-.72.79,0,.24-.3.65-.9,1.22-.6.57-1.1,1.06-1.5,1.47-.64.73-1.34,1.49-2.1,2.26s-1.58,1.49-2.46,2.14c-.08.16-.12.26-.12.31,0,.04-.08.1-.24.18-.32,0-.62.14-.9.43-.28.28-.62.63-1.02,1.04l-1.08.61c-.16.16-.28.24-.36.24l-.12.12c-.24.16-.68.32-1.32.49-.64.16-1.16.32-1.56.49-.56.24-1.36.41-2.4.49-1.04.08-1.84.04-2.4-.12-.72-.08-1.32-.33-1.8-.73s-1.04-.81-1.68-1.22c-.8-.17-1.54-.21-2.22-.12-.68.08-1.46.04-2.34-.12,0-.16-.08-.24-.24-.24-.4-.08-.82-.27-1.26-.55-.44-.29-.9-.63-1.38-1.04-.16-.24-.36-.43-.6-.55s-.4-.27-.48-.43c-.08-.08-.1-.23-.06-.43.04-.2.02-.3-.06-.3-.16-.17-.34-.24-.54-.24s-.38-.08-.54-.24c-.08-.16-.16-.39-.24-.67s-.28-.51-.6-.67c0-1.22-.04-2.34-.12-3.36-.08-1.02,0-2.06.24-3.11.08-.24.12-.41.12-.49.16-.41.22-.82.18-1.22-.04-.41.1-.81.42-1.22,0-.08.04-.12.12-.12s.16-.08.24-.24c0-.24.1-.43.3-.55.2-.12.3-.39.3-.79,0-.33.24-.82.72-1.47.08-.08.16-.12.24-.12s.12-.04.12-.12c.16-.33.22-.57.18-.73s.02-.33.18-.49l1.2-1.47c.32-.16.6-.49.84-.98.8-.98,1.48-1.73,2.04-2.26.56-.53,1.08-1.02,1.56-1.47.48-.45.8-.67.96-.67s.4-.14.72-.43c.32-.29.64-.51.96-.67.24-.17.44-.37.6-.61.16-.24.32-.45.48-.61.08-.08.26-.08.54,0,.28.08.42.08.42,0,.4-.49,1.08-1.02,2.04-1.59.16-.16.28-.18.36-.06.08.12.32.18.72.18-.16.24-.3.43-.42.55s.02.22.42.3c2.48-1.14,4.94-2.18,7.38-3.12,2.44-.93,5.34-1.65,8.7-2.14.48-.08.84-.28,1.08-.61.24-.32.4-.61.48-.85.16-.33.28-.63.36-.92.08-.28.2-.51.36-.67l.84-.98.24-.49.96-1.83c.08,0,.12-.04.12-.12,0-.24.04-.45.12-.61l.24-.73c.08-.08.12-.24.12-.49l.36-.85c.16-.49.32-.86.48-1.1h.12c0-.08.04-.16.12-.24.08-.33.26-.79.54-1.41.28-.61.5-1.12.66-1.53,1.04-2.36,2.06-4.81,3.06-7.33,1-2.52,1.94-5.09,2.82-7.7,0-.24-.2-.2-.6.12-.4.33-.72.65-.96.98-.24.16-.5.41-.78.73-.28.33-.58.61-.9.86-.56.49-1.12.94-1.68,1.34-.56.41-1.16.82-1.8,1.22-.16.08-.22.16-.18.24.04.08-.02.12-.18.12-.32,0-.56.16-.72.49-.08.08-.14.2-.18.37-.04.16-.1.24-.18.24-.08.08-.18.08-.3,0s-.26-.08-.42,0c-.08.08-.12.2-.12.37,0,.08-.04.16-.12.24-.16.08-.3.08-.42,0-.12-.08-.22-.08-.3,0-.16.08-.26.18-.3.31-.04.12-.1.23-.18.3-.4.24-.78.43-1.14.55s-.82.3-1.38.55c-.08,0-.28.08-.6.24-.08.08-.36.21-.84.37-.24,0-.36.08-.36.24v.24c-.4.08-.84.06-1.32-.06-.48-.12-.92-.1-1.32.06.08,0,.06.04-.06.12s-.22.12-.3.12c-.64.16-1.38.16-2.22,0s-1.58-.41-2.22-.73c-.16-.16-.28-.28-.36-.37-.08-.08-.24-.16-.48-.24-.16-.16-.36-.2-.6-.12-.24.08-.36,0-.36-.24-.48.16-1.04.27-1.68.31-.64.04-1.28.06-1.92.06,0-.33-.2-.49-.6-.49s-.68-.04-.84-.12c0-.32-.08-.57-.24-.73-.08,0-.2.02-.36.06-.16.04-.24.02-.24-.06-.16-.16-.22-.34-.18-.55.04-.2-.02-.35-.18-.43-.24-.16-.38-.26-.42-.31-.04-.04-.1-.3-.18-.79-.08-.16-.18-.31-.3-.43-.12-.12-.18-.26-.18-.43,0-.24-.02-.49-.06-.73s-.14-.57-.3-.98c-.08-.49-.14-1.04-.18-1.65-.04-.61.02-1.41.18-2.38.4-2.36,1.18-4.99,2.34-7.88,1.16-2.89,2.38-5.48,3.66-7.76.08-.16.2-.3.36-.43.16-.12.24-.26.24-.43,0-.41.14-.69.42-.86.28-.16.5-.37.66-.61.08-.08.08-.2,0-.37-.08-.16-.08-.28,0-.37.16-.08.36-.28.6-.61.32-.41.64-.79.96-1.16.32-.37.68-.51,1.08-.43,0,.41-.16.73-.48.98l-.48.61c-.16.17-.22.33-.18.49.04.16-.02.33-.18.49-.08.16-.22.24-.42.24s-.3.04-.3.12c-.08.16-.12.33-.12.49s-.08.37-.24.61c-.08.08-.14.1-.18.06-.04-.04-.06.06-.06.31v.36c-.24,0-.52.17-.84.49,0,.08.04.23.12.43.08.2.04.3-.12.3-.32.33-.6,1.02-.84,2.08-.08.08-.2.18-.36.3-.16.12-.24.23-.24.31-.16.33-.22.57-.18.73.04.17-.02.33-.18.49-.08.08-.14.27-.18.55-.04.29-.1.47-.18.55-.16.16-.34.53-.54,1.1-.2.57-.38,1.18-.54,1.83h-.24c-.08,0-.12.08-.12.24,0,.08.1.12.3.12s.22.12.06.37c0,.16-.04.3-.12.43-.08.12-.16.27-.24.43,0,.08.02.23.06.43.04.21.02.35-.06.43-.16.16-.36.77-.6,1.83-.24,1.06-.44,1.83-.6,2.32-.16.41-.24.75-.24,1.04v1.04c-.08.24-.14.61-.18,1.1s.02.9.18,1.22l.24.85c.16.17.26.37.3.61s.14.45.3.61c.4,0,.6.04.6.12.64-.16.82-.41.54-.73-.28-.32-.46-.61-.54-.86-.08-1.06-.04-2.06.12-2.99.16-.94.4-1.94.72-2.99.16-.33.24-.65.24-.98s.04-.65.12-.98h.12v-.12c0-.08.04-.16.12-.24,0-.08-.02-.22-.06-.43-.04-.2-.02-.35.06-.43.24-.16.48-.67.72-1.53.24-.85.44-1.48.6-1.89.16-.73.34-1.42.54-2.08.2-.65.46-1.3.78-1.96.08-.08.16-.1.24-.06.08.04.12-.02.12-.18.08-.24.2-.45.36-.61s.24-.41.24-.73c0-.41.1-.71.3-.92.2-.2.34-.47.42-.8v-.37c.08-.16.2-.3.36-.43.16-.12.32-.26.48-.43.16-.24.3-.53.42-.86s.26-.65.42-.98c.32-.33.48-.65.48-.98,0-.16.28-.55.84-1.16s1.08-.92,1.56-.92c.08.41.3.61.66.61s.5.29.42.85c-.48.24-.72.65-.72,1.22.16.41.36.45.6.12.24-.33.56-.57.96-.73,1.04-.08,1.92.04,2.64.37-.08.16-.12.39-.12.67s-.04.51-.12.67c-.16.08-.36.18-.6.3s-.36.39-.36.8c-.08.16-.22.33-.42.49-.2.17-.3.41-.3.73,0,.17-.04.33-.12.49l-.12.24c0,.08-.04.12-.12.12,0,.16-.1.24-.3.24s-.34.08-.42.24c-.16.16-.22.43-.18.79.04.37-.02.67-.18.92h-.12v.24c0,.33-.12.57-.36.73-.24.17-.36.33-.36.49,0,.41-.14.84-.42,1.28-.28.45-.5.88-.66,1.28-.72,1.87-1.38,3.85-1.98,5.93-.6,2.08-.94,4.38-1.02,6.9.16.24.4.29.72.12.16-.08.28-.2.36-.37h.6l.36-.73,1.32-.24c.16-.16.28-.35.36-.55.08-.2.2-.39.36-.55.08-.08.2-.08.36,0,.16.08.28.08.36,0,.08-.16.16-.33.24-.49.08-.16.28-.37.6-.61.24-.16.6-.39,1.08-.67.48-.28.92-.59,1.32-.92.24-.16.48-.43.72-.8s.52-.63.84-.79c.16-.16.38-.37.66-.61.28-.24.54-.41.78-.49.08-.08.16-.12.24-.12.16,0,.24-.04.24-.12l3.48-3.42c1.12-1.06,2.26-2.14,3.42-3.24,1.16-1.1,2.26-2.22,3.3-3.36,1.12-1.14,2.24-2.28,3.36-3.42,1.12-1.14,2.12-2.28,3-3.42.32.24.16.69-.48,1.34l-1.44,1.47c-.16.41-.32.73-.48.98-.16.24-.36.49-.6.73-.24.33-.68.73-1.32,1.22-.4.57-.84,1.12-1.32,1.65-.48.53-.92,1.04-1.32,1.53-.48.41-.88.86-1.2,1.34-.24.16-.44.43-.6.79-.16.37-.32.67-.48.92-.88.9-1.78,1.77-2.7,2.63-.92.86-1.86,1.69-2.82,2.51-.96.9-1.92,1.79-2.88,2.69-.96.9-1.88,1.79-2.76,2.69,2.32-1.87,4.66-3.83,7.02-5.87,2.36-2.04,4.62-4.16,6.78-6.35.32-.49.8-.93,1.44-1.34.88-1.22,2.08-2.57,3.6-4.03.16-.24.36-.47.6-.67.24-.2.44-.39.6-.55l.6-.86c.08-.08.08-.2,0-.37-.08-.16-.08-.24,0-.24h.24c.08-.08.08-.2,0-.37-.08-.16-.08-.28,0-.37h.48c.16-.41.28-.84.36-1.28.08-.45.2-.92.36-1.41h.12c.08,0,.16-.04.24-.12,0-.41.06-.71.18-.92s.26-.47.42-.8c.16-.49.3-1.08.42-1.77.12-.69.38-1.24.78-1.65.4-.16.64-.37.72-.61,1.36,0,2.48.21,3.36.61.08,0,.18.1.3.3.12.21.22.31.3.31l.96.49c.16.08.28.18.36.3s.2.27.36.43c.16.08.32.1.48.06.16-.04.32.02.48.18.16.16.2.33.12.49s0,.21.24.12c-.4,2.45-.98,4.81-1.74,7.09-.76,2.28-1.5,4.6-2.22,6.97-.8,2.12-1.52,4.32-2.16,6.6-.64,2.28-1.36,4.52-2.16,6.72,0,.08-.06.12-.18.12s-.18.04-.18.12c-.16.65-.34,1.28-.54,1.89-.2.61-.42,1.32-.66,2.14v.61h-.36c-.16.49-.26.92-.3,1.28-.04.37-.22.88-.54,1.53,0,.08-.04.1-.12.06-.08-.04-.12.02-.12.18s-.06.45-.18.86-.26.77-.42,1.1c-.16.41-.32.77-.48,1.1-.16.33-.28.73-.36,1.22v.73c-.16.08-.24.14-.24.18s-.04.14-.12.3l-.36,1.1c-.24.08-.36.29-.36.61-.08.24-.16.45-.24.61l-.24.49c-.16.16-.24.33-.24.49h.72v-.24c.16-.08.28-.29.36-.61,0-.16.04-.33.12-.49l.24-.61c.16-.08.32-.35.48-.79.16-.45.28-.8.36-1.04.08-.41.2-.69.36-.85.16-.16.28-.45.36-.86.16-.65.36-1.24.6-1.77.24-.53.48-1.12.72-1.77v-.86c.16-.08.28-.28.36-.61,0-.16.04-.32.12-.49l.24-.49c.16-.16.36-.67.6-1.53s.44-1.49.6-1.89c0-.08-.02-.18-.06-.3-.04-.12-.02-.22.06-.31h.36c.08-.08.08-.18,0-.3-.08-.12-.08-.22,0-.3.32-.24.52-.65.6-1.22.08-.57.2-1.18.36-1.83.24,0,.36-.08.36-.24.08-.16.18-.45.3-.85s.22-.81.3-1.22v-.61h.36c0-.16-.02-.3-.06-.43-.04-.12-.02-.22.06-.31.32-.16.52-.53.6-1.1.08-.57.2-1.18.36-1.83,0-.08.08-.1.24-.06.16.04.24-.02.24-.18,0-.33.06-.65.18-.98.12-.32.26-.69.42-1.1.08-.32.18-.67.3-1.04s.22-.67.3-.92c.32-.9.52-1.67.6-2.32v-.61c.16-.24.4-.75.72-1.53s.6-1.36.84-1.77c.08-.65.2-1.24.36-1.77.16-.53.32-1.12.48-1.77.16-.16.22-.45.18-.85s.02-.73.18-.98c0-.16.04-.22.12-.18.08.04.12-.02.12-.18.08-.41.16-.63.24-.67.08-.04.2-.1.36-.18.32,1.39.32,2.63,0,3.73-.32,1.1-.6,2.22-.84,3.36l-.36,2.08c-.32,1.14-.7,2.42-1.14,3.85-.44,1.43-.86,2.79-1.26,4.09-.08.41-.16.79-.24,1.16-.08.37-.2.75-.36,1.16,0,.08.02.21.06.37.04.17.02.24-.06.24-.16.16-.32.55-.48,1.16-.16.61-.32,1.12-.48,1.53,0,.08.02.22.06.43.04.21.02.3-.06.3-.16.17-.32.49-.48.98-.16.49-.32.94-.48,1.34-.08.08-.1.18-.06.3.04.12.06.23.06.31-.16.16-.28.43-.36.79s-.2.79-.36,1.28c-.08,0-.12.04-.12.12s-.02.16-.06.24c-.04.08-.06.16-.06.24-.08.24-.12.49-.12.73-.16.16-.38.63-.66,1.41-.28.77-.5,1.37-.66,1.77-.16.65-.34,1.33-.54,2.02-.2.69-.46,1.37-.78,2.02-.08.08-.08.18,0,.3s.08.23,0,.31h-.24c-.16.49-.26.94-.3,1.34-.04.41-.14.9-.3,1.47-.08.08-.16.1-.24.06s-.12.02-.12.18l-.72,1.71-.36.73h.24ZM171.23,145.51c-.16-.57-.2-1.24-.12-2.02.08-.77-.08-1.37-.48-1.77-.32.33-.58.71-.78,1.16-.2.45-.32.86-.36,1.22-.04.37.08.69.36.98.28.28.74.43,1.38.43ZM173.15,126.56c-.08.08-.06.18.06.3s.14.22.06.31c-.32.32-.68.61-1.08.85-.4.24-.68.57-.84.98-.4.41-.74.81-1.02,1.22-.28.41-.22.69.18.86,1.28-1.71,2.56-3.1,3.84-4.16-.16-.24-.22-.47-.18-.67.04-.2-.06-.3-.3-.3,0,.16-.08.28-.24.37-.16.08-.32.16-.48.24ZM174.59,146.97c0-.41.22-.59.66-.55s.58-.14.42-.55c-.4,0-.86.14-1.38.43-.52.29-.42.51.3.67ZM192.12,124.12c-.72.24-1.5.47-2.34.67-.84.2-1.74.39-2.7.55-.32.41-.6.77-.84,1.1-.24.32-.6.65-1.08.98-.16.08-.28.1-.36.06s-.16-.06-.24-.06c-.16.08-.26.22-.3.43-.04.2-.1.3-.18.3-.88.73-1.72,1.45-2.52,2.14-.8.69-1.44,1.32-1.92,1.89-.48.65-.94,1.24-1.38,1.77s-.86,1.12-1.26,1.77c0,.16-.02.31-.06.43-.04.12-.06.22-.06.3,0,.33-.16.59-.48.8-.32.2-.44.47-.36.79,0,.16-.06.22-.18.18-.12-.04-.18-.02-.18.06-.4.57-.66,1.08-.78,1.53-.12.45-.3.92-.54,1.41,0,.49-.04,1.04-.12,1.65-.08.61-.16,1.16-.24,1.65,1.2-.41,2.26-.98,3.18-1.71.92-.73,1.82-1.47,2.7-2.2.64-.65,1.42-1.39,2.34-2.2.92-.82,1.62-1.51,2.1-2.08.16-.16.22-.35.18-.55-.04-.21-.02-.39.06-.55.32-.24.7-.51,1.14-.8.44-.29.74-.51.9-.67.16-.16.22-.31.18-.43-.04-.12.02-.27.18-.43.08-.16.24-.37.48-.61s.4-.49.48-.73c.16-.16.24-.27.24-.3s.04-.14.12-.3c.08-.17.24-.31.48-.43s.44-.27.6-.43c.64-.9,1.24-1.79,1.8-2.69.56-.9,1.28-1.71,2.16-2.44-.16-.24-.24-.51-.24-.79s-.12-.43-.36-.43c0,.16-.2.29-.6.37ZM197.4,128.89c-.08,0-.08.04,0,.12.08.08.08.16,0,.24h-.6c-.08.08-.04.22.12.43.16.2.16.35,0,.43-.16.16-.36.3-.6.43s-.44.31-.6.55c0,.57-.2,1.06-.6,1.47-.16.16-.38.33-.66.49-.28.16-.46.37-.54.61l-.72,1.34c-.08.24-.24.45-.48.61s-.44.33-.6.49l-.72,1.47-.72.73c-.16.16-.32.32-.48.49-.16.16-.38.34-.66.55-.28.2-.5.43-.66.67-.16.16-.26.37-.3.61s-.18.49-.42.73c-.16.16-.32.28-.48.37-.16.08-.36.28-.6.61-.64.65-1.14,1.16-1.5,1.53s-.82.75-1.38,1.16l-1.8,1.83c-.4.24-.81.47-.96.83-.17.4,1.8-.21,1.8-.21.08,0,.14-.1.18-.31.04-.2.1-.35.18-.43.24-.24.52-.41.84-.49.32-.08.6-.21.84-.37.16-.08.3-.24.42-.49s.22-.41.3-.49c.16-.33.56-.73,1.2-1.22l3.24-2.81c.16-.33.44-.65.84-.98.4-.33.56-.65.48-.98,0-.33.16-.53.48-.61.32-.08.6-.21.84-.37.08-.08.1-.23.06-.43-.04-.2-.06-.35-.06-.43.32,0,.48-.08.48-.24.16-.08.2-.2.12-.37-.08-.16-.12-.33-.12-.49l1.44-1.1c.4-.82.94-1.75,1.62-2.81s1.22-1.91,1.62-2.57c.24-.41.42-.65.54-.73.12-.08.38-.24.78-.49.16-.16.22-.39.18-.67-.04-.29.02-.47.18-.55,0-.17.08-.41.24-.73.08-.24.28-.57.6-.98.32-.41.48-.65.48-.73.08-.16.06-.35-.06-.55-.12-.21-.14-.43-.06-.67-.56.98-1.16,1.98-1.8,2.99-.64,1.02-1.28,1.85-1.92,2.51ZM185.87,79.15l-1.44,4.03v.24l-.12.24v.12h-.12c-.16.41-.24.88-.24,1.41s-.04.96-.12,1.28c0,.49-.1.96-.3,1.41-.2.45-.1.84.3,1.16.08-1.38.28-2.67.6-3.85.32-1.18.68-2.26,1.08-3.24l.96-2.81c.16-.49.28-.77.36-.85.16-.41.34-.81.54-1.22.2-.41.3-.73.3-.98.16-.33.28-.61.36-.86.08-.24.24-.49.48-.73,0-.16.12-.24.36-.24.24-.57.46-1.12.66-1.65.2-.53.38-1,.54-1.41,0-.16-.02-.32-.06-.49-.04-.16-.14-.24-.3-.24-.64,1.39-1.3,2.79-1.98,4.22-.68,1.43-1.3,2.91-1.86,4.46ZM207.6,87.7c-.24.17-.44.24-.6.24s-.32.08-.48.24c-.16.08-.26.23-.3.43-.04.21-.14.35-.3.43-.48.49-.96.9-1.44,1.22s-.88.61-1.2.85-.58.49-.78.73c-.2.24-.38.49-.54.73h-.6c-.16,0-.28.12-.36.37-.08.24-.2.45-.36.61-.08.08-.18.06-.3-.06s-.26-.1-.42.06c-.08,0-.14.08-.18.24-.04.16-.1.29-.18.37-.08.08-.16.08-.24,0-.08-.08-.16-.08-.24,0s-.14.2-.18.37c-.04.16-.1.24-.18.24-.24.17-.48.23-.72.18-.24-.04-.48.02-.72.18-.16.08-.28.24-.36.49-.08.24-.28.33-.6.24,0,.17-.12.27-.36.31s-.2.14.12.3c.72-.41,1.44-.79,2.16-1.16.72-.37,1.4-.75,2.04-1.16.4-.16.84-.47,1.32-.92.48-.45.84-.67,1.08-.67.24-.24.4-.45.48-.61.08-.16.2-.37.36-.61.08,0,.2.02.36.06.16.04.32.02.48-.06l1.56-1.47c.24-.41.46-.69.66-.86.2-.16.38-.33.54-.49.08-.08.22-.08.42,0,.2.08.34.08.42,0,1.04-1.22,2.04-2.48,3-3.79-.88.24-1.54.69-1.98,1.34s-.9,1.18-1.38,1.59ZM206.88,83.18c-.64.57-1.28,1.1-1.92,1.59-.64.49-1.28,1.06-1.92,1.71-.64.57-1.26,1.18-1.86,1.83-.6.65-1.3,1.18-2.1,1.59.08.16-.08.35-.48.55-.4.21-.36.35.12.43.16-.41.42-.71.78-.92.36-.2.74-.51,1.14-.92.4-.16.74-.45,1.02-.86.28-.41.62-.73,1.02-.98.32-.41.7-.71,1.14-.92.44-.2.78-.43,1.02-.67.48-.49.9-.98,1.26-1.47s.74-.93,1.14-1.34l-.36.37ZM201.6,122.53c-.24.24-.4.53-.48.85.24-.08.48-.2.72-.36.4-.24.32-.41-.24-.49ZM206.28,114.83c.16-.49.5-1.02,1.02-1.59.52-.57.58-1.02.18-1.34,0,.33-.12.61-.36.86s-.46.49-.66.73c-.2.24-.34.47-.42.67-.08.21,0,.43.24.67ZM210.6,79.51l-2.28,2.45h.48c.4-.41.76-.77,1.08-1.1l1.08-1.1.84-.86c.16-.16.26-.39.3-.67.04-.28.14-.51.3-.67.32-.41.76-.75,1.32-1.04.56-.28.6-.63.12-1.04-.64.65-1.2,1.33-1.68,2.02-.48.69-1,1.37-1.56,2.02Z"/>
      <g>
        <path class="cls-1" d="M59.74,59.94c-1.62-2.11-3.72-3.68-6.33-4.69-2.6-1.01-5.79-1.51-9.56-1.51s-7.22.68-10.72,2.05c-1.93.75-3.74,1.72-5.4,2.89-2.21,1.55-2.55,4.71-.79,6.76l2.06,2.4c1.23,1.44,3.35,1.77,4.92.71.76-.52,1.58-1,2.45-1.43,1.94-.98,3.96-1.46,6.06-1.46,2.27,0,4.19.57,5.74,1.71,1.55,1.14,2.33,2.91,2.33,5.32v.78c-3.23,0-6.55.2-9.96.59-3.41.39-6.51,1.17-9.29,2.34-2.78,1.17-5.06,2.83-6.82,4.98-1.77,2.15-2.76,5.37-2.76,8.88,0,2.86.51,5.27,1.53,7.22,1.02,1.95,2.32,3.51,3.9,4.69,1.58,1.17,3.33,2.02,5.25,2.54,1.91.52,3.77.78,5.56.78,2.69,0,5.19-.55,7.49-1.66,2.3-1.11,4.13-3.06,5.27-5.08h.27v4.01c0,1.51,1.22,2.73,2.73,2.73h8.01c1.51,0,2.73-1.22,2.73-2.73v-23.33c0-4.42-.37-8.25-1.12-11.47-.75-3.22-1.93-5.89-3.54-8Z"/>
        <path class="cls-1" d="M140.22,77.27l13.98-18.33c1.62-2.13.11-5.19-2.57-5.19h-9.26c-1.04,0-2.01.5-2.62,1.34l-14.43,19.94h-.27v-41.67c0-1.79-1.45-3.23-3.23-3.23h-8.34c-1.79,0-3.23,1.45-3.23,3.23v68.89c0,1.79,1.45,3.23,3.23,3.23h8.34c1.79,0,3.23-1.45,3.23-3.23v-21.66h.27l14.66,23.37c.59.94,1.63,1.52,2.74,1.52h10.43c2.59,0,4.13-2.89,2.68-5.04l-15.61-23.17Z"/>
        <path class="cls-1" d="M193.89,85.38h0c-.14-.06-.28-.11-.43-.14.14.04.29.09.42.14Z"/>
        <path class="cls-1" d="M100.83,78.54c-1.38-1.17-2.92-2.11-4.62-2.83-1.71-.72-3.4-1.27-5.07-1.66-2.87-.72-4.95-1.37-6.24-1.95-1.29-.59-1.93-1.56-1.93-2.93s.58-2.44,1.75-3.03c1.17-.59,2.44-.88,3.81-.88,1.79,0,3.5.42,5.11,1.27.71.37,1.37.78,2,1.22,1.37.98,3.27.72,4.39-.54l3.63-4.08c1.34-1.51,1.06-3.85-.6-5.01-1.57-1.1-3.32-1.99-5.25-2.68-3.2-1.14-6.48-1.71-9.83-1.71-2.15,0-4.32.31-6.51.93-2.18.62-4.17,1.58-5.97,2.88-1.79,1.3-3.26,2.98-4.4,5.03-1.14,2.05-1.7,4.54-1.7,7.47,0,2.28.39,4.23,1.17,5.86.78,1.63,1.78,2.99,3.01,4.1,1.23,1.11,2.62,1.99,4.17,2.64,1.55.65,3.11,1.17,4.67,1.56,3.05.78,5.29,1.53,6.73,2.24,1.44.72,2.15,1.82,2.15,3.32s-.58,2.65-1.75,3.27c-1.17.62-2.35.93-3.54.93-2.15,0-4.19-.52-6.1-1.56-.96-.52-1.84-1.11-2.65-1.76-1.36-1.09-3.36-.81-4.51.5l-3.76,4.32c-1.31,1.5-1.01,3.78.6,4.96,1.75,1.29,3.74,2.34,5.97,3.15,3.5,1.27,7.07,1.9,10.72,1.9,2.27,0,4.55-.29,6.82-.88,2.27-.59,4.32-1.53,6.15-2.83,1.82-1.3,3.3-3.01,4.44-5.12,1.14-2.11,1.7-4.7,1.7-7.76,0-2.34-.42-4.36-1.26-6.05-.84-1.69-1.94-3.12-3.32-4.29Z"/>
        <path class="cls-3" d="M179.42,99.29c-.1-.04-.21-.06-.31-.11-.39-.2-.74-.47-1.02-.79-.12-.07-.24-.16-.35-.24-.3-.24-.57-.53-.78-.84-.24-.32-.43-.66-.58-1.02-.46-.5-.69-1.1-.83-1.68-.45-.68-.71-1.51-.71-2.37-.1-.25-.27-.84-.31-1.11-.09-.59-.17-1.26-.22-2.01-.05-.93.02-1.97.22-3.22.45-2.64,1.31-5.55,2.56-8.66.45-1.14.94-2.2,1.42-3.27C170.94,31.91,134.2,0,89.98,0,40.29,0,0,40.29,0,89.98c0,16.45,4.44,31.86,12.15,45.13L0,179.96l36.7-9.03v-45.03c0-4.1,3.32-7.42,7.42-7.42h21.22c3.68,0,7.21.38,10.49,1.12,3.13.71,5.9,1.91,8.41,3.41,1.13-2.67,3.76-4.54,6.84-4.54h22.03c3.28,0,6.54.34,9.69,1.02,3.42.74,6.55,2.03,9.33,3.8,1.05-2.81,3.75-4.83,6.93-4.83h14.03c1.03,0,2.01.21,2.9.59.89-.38,1.87-.59,2.9-.59h16.04c.13-.07.31-.11.46-.17,2.02-6.08,3.36-12.46,4.05-19.03ZM64.41,102.75c0,1.51-1.22,2.73-2.73,2.73h-8.01c-1.51,0-2.73-1.22-2.73-2.73v-4.01h-.27c-1.14,2.02-2.97,3.97-5.27,5.08-2.3,1.11-4.8,1.66-7.49,1.66-1.79,0-3.65-.26-5.56-.78-1.91-.52-3.66-1.37-5.25-2.54-1.59-1.17-2.89-2.73-3.9-4.69-1.02-1.95-1.53-4.36-1.53-7.22,0-3.51.99-6.73,2.76-8.88,1.76-2.15,4.04-3.81,6.82-4.98,2.78-1.17,5.88-1.95,9.29-2.34,3.41-.39,6.73-.59,9.96-.59v-.78c0-2.41-.78-4.18-2.33-5.32-1.56-1.14-3.47-1.71-5.74-1.71-2.1,0-4.11.49-6.06,1.46-.87.44-1.69.92-2.45,1.43-1.56,1.07-3.69.73-4.92-.71l-2.06-2.4c-1.76-2.05-1.42-5.21.79-6.76,1.67-1.17,3.47-2.14,5.4-2.89,3.5-1.37,7.07-2.05,10.72-2.05s6.95.5,9.56,1.51c2.6,1.01,4.71,2.57,6.33,4.69,1.62,2.12,2.8,4.78,3.54,8,.75,3.22,1.12,7.04,1.12,11.47v23.33ZM103.7,96.64c-1.14,2.12-2.62,3.82-4.44,5.12-1.83,1.3-3.87,2.24-6.15,2.83-2.27.59-4.55.88-6.82.88-3.65,0-7.22-.63-10.72-1.9-2.23-.81-4.22-1.86-5.97-3.15-1.61-1.18-1.91-3.46-.6-4.96l3.76-4.32c1.14-1.31,3.15-1.6,4.51-.5.81.65,1.69,1.24,2.65,1.76,1.91,1.04,3.95,1.56,6.1,1.56,1.2,0,2.38-.31,3.54-.93,1.17-.62,1.75-1.71,1.75-3.27s-.72-2.6-2.15-3.32c-1.44-.71-3.68-1.46-6.73-2.24-1.56-.39-3.11-.91-4.67-1.56-1.56-.65-2.95-1.53-4.17-2.64-1.23-1.11-2.23-2.47-3.01-4.1-.78-1.63-1.17-3.58-1.17-5.86,0-2.93.57-5.42,1.7-7.47,1.14-2.05,2.6-3.72,4.4-5.03,1.79-1.3,3.78-2.26,5.97-2.88,2.18-.62,4.35-.93,6.51-.93,3.35,0,6.62.57,9.83,1.71,1.93.69,3.68,1.58,5.25,2.68,1.65,1.16,1.94,3.5.6,5.01l-3.63,4.08c-1.12,1.26-3.01,1.51-4.39.54-.63-.44-1.29-.85-2-1.22-1.62-.84-3.32-1.27-5.11-1.27-1.38,0-2.65.29-3.81.88-1.17.59-1.75,1.6-1.75,3.03s.64,2.34,1.93,2.93c1.29.59,3.37,1.24,6.24,1.95,1.67.39,3.36.94,5.07,1.66,1.7.72,3.24,1.66,4.62,2.83,1.38,1.17,2.48,2.6,3.32,4.29.84,1.69,1.26,3.71,1.26,6.05,0,3.06-.57,5.65-1.7,7.76ZM153.15,105.48h-10.43c-1.11,0-2.15-.57-2.74-1.52l-14.66-23.37h-.27v21.66c0,1.79-1.45,3.23-3.23,3.23h-8.34c-1.79,0-3.23-1.45-3.23-3.23V33.36c0-1.79,1.45-3.23,3.23-3.23h8.34c1.79,0,3.23,1.45,3.23,3.23v41.67h.27l14.43-19.94c.61-.84,1.58-1.34,2.62-1.34h9.26c2.68,0,4.19,3.07,2.57,5.19l-13.98,18.33,15.61,23.17c1.45,2.15-.09,5.04-2.68,5.04Z"/>
        <path class="cls-3" d="M175.37,118.32c-.16.06-.33.1-.46.17h.42c.02-.06.03-.11.05-.17Z"/>
      </g>
      <g>
        <path class="cls-2" d="M300.88,81.06c.16-.41.3-.81.42-1.22.12-.41.26-.81.42-1.22.16-.41.36-.61.6-.61,0-.24.02-.35.06-.31.04.04.1.02.18-.06.16-.33.22-.59.18-.8-.04-.2-.02-.39.06-.55,0-.08.12-.12.36-.12s.4-.04.48-.12.08-.18,0-.3c-.08-.12-.08-.22,0-.31.16-.24.32-.45.48-.61.16-.16.28-.32.36-.49.16-.08.18-.18.06-.3s-.14-.26-.06-.43c.16,0,.34-.04.54-.12s.3-.16.3-.24c.16-.16.24-.33.24-.49.08-.16.16-.24.24-.24s.12-.04.12-.12c.48-1.06.56-2.04.24-2.93-.48-.08-.84-.06-1.08.06s-.48.35-.72.67c-.32.17-.6.43-.84.8s-.4.43-.48.18c.16-.9.02-1.51-.42-1.83-.44-.33-.62-.9-.54-1.71.56,0,.96-.04,1.2-.12.24-.08.4-.32.48-.73-.16,0-.24-.12-.24-.37s.12-.45.36-.61c-.4-.41-.66-.8-.78-1.16s-.5-.59-1.14-.67c-.56-.16-.92-.1-1.08.18-.16.29-.4.43-.72.43-.4.08-.92.49-1.56,1.22-.64.73-1,1.18-1.08,1.34-.16.41-.32.71-.48.92-.16.21-.32.43-.48.67-.08.16-.2.3-.36.43-.16.12-.28.23-.36.31-.64,1.06-1.26,2.16-1.86,3.3-.6,1.14-1.14,2.24-1.62,3.3-.24.41-.5.9-.78,1.47s-.46,1.06-.54,1.47c-.16.41-.28.65-.36.73-.08.08-.24.24-.48.49-.4.49-.78.94-1.14,1.34-.36.41-.74.81-1.14,1.22-.56.57-1.14,1.12-1.74,1.65-.6.53-1.1,1.08-1.5,1.65-1.12,1.22-2.24,2.46-3.36,3.73-1.12,1.26-2.12,2.34-3,3.24-.8.73-1.66,1.51-2.58,2.32-.92.82-1.74,1.55-2.46,2.2-.32.16-.62.43-.9.79s-.5.63-.66.79c-.16.08-.3.08-.42,0-.12-.08-.22-.08-.3,0-.08.08-.12.21-.12.37v.37c-.32.16-.64.24-.96.24-.16.08-.22.12-.18.12s-.02.04-.18.12c-.4.33-.86.59-1.38.79-.52.21-.86.39-1.02.55-.32.08-.56.2-.72.37-.72.33-1.34.53-1.86.61-.52.08-1.06-.12-1.62-.61.4-1.06.74-2.16,1.02-3.3.28-1.14.62-2.2,1.02-3.18.08-.32.2-.63.36-.92.16-.28.28-.51.36-.67,0-.16.06-.24.18-.24s.18-.04.18-.12c.16-.57.28-1.06.36-1.47.08-.41.2-.77.36-1.1h.36c.08-.08.1-.2.06-.37-.04-.16-.02-.28.06-.36.08-.33.28-.61.6-.86.08-.08.1-.22.06-.43-.04-.2-.02-.39.06-.55h.24v-.37h.36c0-.08-.02-.22-.06-.43s-.02-.35.06-.43h.36c0-.08-.02-.18-.06-.3-.04-.12-.02-.22.06-.31.08-.32.32-.69.72-1.1.16-.41.36-.73.6-.98s.36-.53.36-.86.12-.55.36-.67.4-.31.48-.55c0-.16.1-.41.3-.73s.34-.57.42-.73c.08,0,.12-.16.12-.49.16-.16.34-.26.54-.31.2-.04.3-.18.3-.43,0-.32.12-.49.36-.49s.32-.24.24-.73c-.32-.16-.56-.04-.72.37-.16.41-.4.69-.72.86-.16.33-.32.57-.48.73s-.28.33-.36.49c0,.24-.04.35-.12.3-.08-.04-.16.02-.24.18-.4.57-.74,1.14-1.02,1.71s-.62,1.18-1.02,1.83c-.08.16-.2.3-.36.43-.16.12-.28.23-.36.31,0,.33-.12.61-.36.85-.16.33-.32.67-.48,1.04-.16.37-.32.63-.48.79-.4.81-.76,1.55-1.08,2.2-.32.65-.68,1.26-1.08,1.83.96-2.69,2.08-5.19,3.36-7.52,1.28-2.32,2.6-4.58,3.96-6.78.16,0,.3-.06.42-.18s.26-.06.42.18c.32,0,.5-.06.54-.18.04-.12.1-.26.18-.43.16-.33.2-.67.12-1.04s.08-.55.48-.55c.08-.33.06-.55-.06-.67s-.24-.2-.36-.24-.24-.1-.36-.18c-.12-.08-.14-.28-.06-.61.16-.65.22-1.2.18-1.65-.04-.45-.1-.92-.18-1.41-.64-.08-.96-.32-.96-.73-.32-.16-.68-.16-1.08,0-.4.17-.6.04-.6-.37.16-.65.12-1.26-.12-1.83-.56.08-.96.04-1.2-.12-.24-.16-.6-.24-1.08-.24-.56,0-.96.14-1.2.43-.24.29-.56.63-.96,1.04l-1.68,1.71c-.08,0-.1.06-.06.18s.02.22-.06.3c-.16.24-.32.45-.48.61s-.28.33-.36.49c-.24.24-.52.69-.84,1.34h-.36v.49h-.12c-.08,0-.12.12-.12.37v.49h-.48c0,.08.02.18.06.31.04.12.02.22-.06.3h-.36c-.08.08-.06.16.06.24.12.08.1.16-.06.24h-.36c0,.08.02.18.06.3.04.12-.02.23-.18.31-.08.08-.1.2-.06.37.04.16.06.33.06.49h-.36c-.08,0-.08.08,0,.24.08.17.08.29,0,.37h-.48c-.08.08-.08.21,0,.37.08.17.04.29-.12.37h-.36v.49h-.24v.73c-.32.73-.62,1.43-.9,2.08-.04.1-.08.24-.12.35-.16,0-.31,0-.48.02-1.32.08-2.54.17-3.66.24.64-1.63,1.42-3.62,2.34-5.99.92-2.36,1.18-4.68.78-6.97h-.36v-.49c0-.41-.16-.77-.48-1.1v-.49c-.32-.41-.64-.71-.96-.92s-.68-.39-1.08-.55c-.72-.32-1.56-.51-2.52-.55-.96-.04-1.8.06-2.52.3-.4.17-.82.33-1.26.49-.44.17-.86.29-1.26.37-.4.16-.82.35-1.26.55s-.86.39-1.26.55c-.16.08-.3.12-.42.12s-.3.04-.54.12c-.16,0-.22.04-.18.12.04.08.02.16-.06.24-2.08,1.06-3.94,2.2-5.58,3.42s-3.1,2.65-4.38,4.28c-.48.73-.94,1.43-1.38,2.08-.44.65-.86,1.39-1.26,2.2-.32.41-.66.9-1.02,1.47-.36.57-.58,1.02-.66,1.34,0,.16-.04.23-.12.18-.08-.04-.16.02-.24.18-.16.41-.26.79-.3,1.16s-.14.63-.3.8c-.24.41-.42.87-.54,1.41s-.26.92-.42,1.16c-.16.33-.26.69-.3,1.1-.04.41-.14.81-.3,1.22-.4,1.47-.78,3.16-1.14,5.07-.36,1.91-.3,3.65.18,5.19.08.16.08.33,0,.49-.08.16-.08.33,0,.49.08.08.18.18.3.3s.18.23.18.3v.61c.08.08.22.14.42.18.2.04.34.1.42.18.16.16.26.33.3.49.04.16.14.33.3.49.16.16.32.27.48.3.16.04.28.14.36.31,1.04.16,2.04.16,3,0,.96-.16,1.64-.28,2.04-.37.24,0,.36-.04.36-.12v-.12c.32-.16.64-.22.96-.18.32.04.68-.02,1.08-.18.64-.16,1.26-.37,1.86-.61.6-.24,1.02-.49,1.26-.73.08,0,.18.02.3.06.12.04.22.02.3-.06.24-.24.44-.41.6-.49.16-.16.28-.3.36-.43s.2-.26.36-.43c.08-.08.22-.12.42-.12s.38-.04.54-.12c.16-.16.34-.41.54-.73.2-.33.42-.61.66-.86.24-.24.5-.49.78-.73.28-.24.54-.57.78-.98.24-.24.46-.47.66-.67.2-.2.42-.51.66-.92l.78-.79c.28-.29.5-.51.66-.67.16-.16.24-.34.24-.55s.04-.39.12-.55c.08,0,.2-.08.36-.24.16-.33.32-.53.48-.61.16-.08.32-.2.48-.37.08-.08.1-.18.06-.31-.04-.12-.06-.22-.06-.3s.1-.14.3-.18.3-.1.3-.18v-.49c.08-.16.18-.3.3-.43l.42-.43c.24-.24.36-.45.36-.61s.06-.26.18-.31c.12-.04.22-.14.3-.3.16-.24.22-.47.18-.67-.04-.2.02-.39.18-.55.08-.16.22-.22.42-.18.2.04.26-.02.18-.18,1.52,0,2.98-.08,4.38-.24.26-.03.52-.03.79-.05-.07.47-.15.93-.19,1.45-.12,1.59-.18,2.96-.18,4.09.08.9.1,1.57.06,2.02-.04.45.02.92.18,1.41.08.41.12.67.12.79s.08.31.24.55c.08.65.22,1.24.42,1.77.2.53.38.96.54,1.28.16.24.26.43.3.55s.22.35.54.67c.08.08.08.2,0,.37-.08.16-.08.24,0,.24.16.17.24.29.24.37.08.08.1.18.06.31s-.06.23-.06.3c.16.17.36.31.6.43s.44.39.6.79c.08.16.1.33.06.49-.04.16-.06.33-.06.49,0,.24.12.41.36.49.4,1.06.72,1.77.96,2.14.24.36.68.88,1.32,1.53.4.24.82.49,1.26.73.44.24.78.41,1.02.49.8.17,1.4.17,1.8,0,.4-.16.76-.28,1.08-.37.24,0,.34-.06.3-.18s.02-.18.18-.18c.56-.16.92-.24,1.08-.24s.28-.08.36-.24c.08-.08.2-.08.36,0s.32.08.48,0c.16-.16.26-.35.3-.55.04-.2.14-.3.3-.3.08,0,.22-.06.42-.18s.34-.22.42-.3c.24-.16.48-.39.72-.67.24-.29.44-.43.6-.43.4,0,.7-.18.9-.55.2-.37.3-.59.3-.67.16-.16.34-.24.54-.24s.42-.08.66-.24c.24-.24.56-.53.96-.86.4-.33.68-.65.84-.98,1.2-1.14,2.24-2.2,3.12-3.18.88-.98,1.88-2.08,3-3.3.16,0,.3-.06.42-.18s.22-.06.3.18c-.4,1.3-.64,2.65-.72,4.03-.08,1.39,0,2.48.24,3.3.16.24.2.41.12.49-.08.08-.04.2.12.37.08.08.1.18.06.3s-.06.23-.06.31h.24v.49c0,.17.1.29.3.37.2.08.38.21.54.37.48.57.94,1.08,1.38,1.53.44.45.94.75,1.5.92-.16.49-.08.85.24,1.1.32.24.64.45.96.61.08,0,.08.1,0,.31s-.08.39,0,.55c.08,0,.16.04.24.12.16.16.28.24.36.24.24.08.34.12.3.12-.04,0,.02.04.18.12.16,0,.32-.02.48-.06.16-.04.32-.02.48.06.24-.65.24-1.28,0-1.89-.24-.61-.48-1.04-.72-1.28-.08-.16-.22-.29-.42-.37-.2-.08-.22-.33-.06-.73.24-.9.46-1.75.66-2.57.2-.81.34-1.59.42-2.32,0-.16.06-.24.18-.24s.18-.04.18-.12c.32-.9.6-1.81.84-2.75.24-.93.56-1.85.96-2.75,0,.08.08-.04.24-.37.08-.24.12-.49.12-.73s.08-.45.24-.61v-.24c0-.16.08-.24.24-.24h.12c.08-.9.36-1.79.84-2.69.08-.41.18-.77.3-1.1.12-.33.22-.57.3-.73v-.12c0-.16.08-.22.24-.18.16.04.24.02.24-.06.16-.65.28-1.2.36-1.65.08-.45.2-.87.36-1.28.16,0,.24-.12.24-.37.24-.41.42-.77.54-1.1.12-.32.22-.61.3-.85.24-.65.56-1.36.96-2.14.4-.77.68-1.36.84-1.77v-.37c0-.24.08-.35.24-.31.16.04.24-.02.24-.18ZM229.57,101.59c-.08,0-.12-.08-.12-.24-.4-.57-.6-1.28-.6-2.14v-2.63c.32.16.44.51.36,1.04-.08.53-.08,1.04,0,1.53,0,.65.16,1.39.48,2.2,0,.16-.04.24-.12.24ZM237.37,82.53c.32.24.42.75.3,1.53s.02,1.24.42,1.41c-.16.41-.26.45-.3.12s-.18-.49-.42-.49v-2.57ZM239.77,94.75c-.88,1.39-1.88,2.57-3,3.55-.32.57-.62,1.06-.9,1.47-.28.41-.74.69-1.38.86-.64-1.87-.78-3.87-.42-5.99.36-2.12.74-4.07,1.14-5.86.24.16.48.37.72.61s.6.37,1.08.37c-.08.41-.32.77-.72,1.1-.4.33-.48.69-.24,1.1.16.41.36.51.6.31s.48-.31.72-.31c.32-.08.64-.08.96,0,.32.08.64.08.96,0,.64-.16,1.22-.41,1.74-.73.52-.32.98-.53,1.38-.61-.88,1.39-1.76,2.77-2.64,4.16ZM249.08,76.05c-.2.98-.42,1.88-.66,2.69-.08.24-.16.53-.24.86-.08.33-.2.69-.36,1.1-.16.24-.36.69-.6,1.34s-.44,1.18-.6,1.59c-.08.16-.14.27-.18.31-.04.04-.1.14-.18.3-.16.16-.26.33-.3.49-.04.16-.14.29-.3.37-.08.16-.38.3-.9.43-.52.12-.98.23-1.38.31-.64-.73-.98-1.67-1.02-2.81-.04-1.14-.02-2.16.06-3.05.08-.65.32-1.49.72-2.51.4-1.02.8-1.85,1.2-2.51.16-.16.24-.28.24-.37.16-.16.24-.32.24-.49s.08-.33.24-.49c0-.08.08-.14.24-.18.16-.04.28-.06.36-.06,0-.24.02-.49.06-.73s.22-.45.54-.61c.16-.16.36-.24.6-.24s.32-.16.24-.49c.32-.08.52-.04.6.12.08.16.24.24.48.24.16.08.22.23.18.43-.04.2-.02.39.06.55l.72.73c.16.81.14,1.71-.06,2.69ZM252.68,73.67c-.12-.28-.14-.51-.06-.67.08-.33.18-.35.3-.06.12.29.14.51.06.67-.08.33-.18.35-.3.06ZM265.94,84.85c-.16.16-.24.33-.24.49s-.04.33-.12.49c-.4.41-.64.9-.72,1.47-.02,0-.01-.01-.03-.02.04-.11.03-.26.09-.35.2-.32.3-.69.3-1.1.07-.37.33-.89.73-1.52.16.03.31.06.47.13-.04.05-.07.11-.12.16-.16.16-.28.24-.36.24ZM269.18,70.18c.4,0,.62.17.66.49.04.33.3.41.78.24-.16.24-.48.29-.96.12-.48-.16-.64-.45-.48-.86ZM266.78,82.53c0-.16.08-.28.24-.36.16-.08.28-.16.36-.24.08-.16.08-.33,0-.49-.08-.16-.08-.29,0-.37h.36c.08,0,.1-.06.06-.18s-.02-.22.06-.3h.24c0-.08-.02-.2-.06-.37-.04-.16-.02-.28.06-.37.16-.08.3-.26.42-.55s.34-.63.66-1.04c.24-.49.6-.93,1.08-1.34.24-.41.5-.87.78-1.41.28-.53.74-.71,1.38-.55.16.57.08.94-.24,1.1s-.56.33-.72.49-.24.35-.24.55-.08.39-.24.55c0,.08-.08.12-.24.12s-.28.08-.36.24c-.16.16-.32.41-.48.73-.16.33-.32.61-.48.86-.16.16-.3.27-.42.31s-.26.14-.42.3c0,.08.02.21.06.37.04.16.02.24-.06.24-.16.16-.36.53-.6,1.1-.08.16-.18.27-.3.3-.12.04-.22.14-.3.3-.24.33-.38.59-.42.8-.02.07-.08.2-.11.29-.17-.06-.39-.1-.58-.15,0-.03.02-.05.03-.08.08-.24.24-.53.48-.86ZM258.02,83.83c-.05.15-.11.29-.16.45-.18-.07-.36-.21-.56-.41.23-.03.48-.02.72-.04ZM283.77,96.95c-1,.73-1.82,1.59-2.46,2.57-.4.41-.86.86-1.38,1.34-.52.49-.98,1.02-1.38,1.59-.32-.33-.32-.63,0-.92.32-.28.56-.51.72-.67.16-.33.42-.57.78-.73.36-.16.66-.37.9-.61.16-.16.24-.32.24-.49s.04-.32.12-.49c.4-.41.8-.75,1.2-1.04.4-.28.8-.63,1.2-1.04-.24-.41-.2-.63.12-.67.32-.04.48-.26.48-.67.08,0,.12-.04.12-.12s.04-.16.12-.24l.36-.36c.4-.33.64-.45.72-.37-.24,1.22-.86,2.2-1.86,2.93ZM287.55,88.39c-.16.08-.26.27-.3.55-.04.29-.14.59-.3.92-.16.08-.4.27-.72.55-.32.29-.56.59-.72.92-1.04,1.22-2.2,2.45-3.48,3.67-1.28,1.22-2.56,2.4-3.84,3.55-.16.16-.38.36-.66.61-.28.24-.5.49-.66.73-.48.33-.9.67-1.26,1.04-.36.37-.82.75-1.38,1.16-.96.73-2.06,1.57-3.3,2.51-1.24.94-2.54,1.61-3.9,2.02-.32-.33-.6-.57-.84-.73s-.52-.33-.84-.49c.4-.57.84-.79,1.32-.67.48.12,1-.02,1.56-.43.08,0,.16-.08.24-.24.08-.16.16-.28.24-.37.48-.08.84-.2,1.08-.37.4-.08.7-.2.9-.37.2-.16.5-.32.9-.49,0-.08-.02-.16-.06-.24s.02-.12.18-.12h.36c.16-.16.38-.37.66-.61.28-.24.5-.45.66-.61.24-.24.48-.43.72-.55s.44-.27.6-.43c2.08-1.87,4.2-3.91,6.36-6.11,2.16-2.2,4.28-4.36,6.36-6.48.08.08.12.24.12.49v.61ZM295.11,86.74c-.24.37-.4.71-.48,1.04-.16.33-.34.65-.54.98-.2.33-.34.69-.42,1.1-.08.16-.18.41-.3.73-.12.33-.26.57-.42.73-.08.24-.2.53-.36.86-.16.33-.32.69-.48,1.1-.16.57-.32,1.12-.48,1.65-.16.53-.32,1.04-.48,1.53-.32.81-.64,1.75-.96,2.81-.32,1.06-.56,2.12-.72,3.18-.32-.41-.4-.81-.24-1.22.16-.41.28-.77.36-1.1.16-.32.24-.55.24-.67s.08-.43.24-.92c0-.24.12-.37.36-.37.16-.49.24-.94.24-1.34s.08-.81.24-1.22l.12-.12c.08-.08.16-.2.24-.37.4-1.38.9-2.95,1.5-4.7.6-1.75,1.3-3.28,2.1-4.58.4.24.48.55.24.92ZM299.2,77.88c-.8,2.04-1.88,3.87-3.24,5.5-.4-.08-.52-.16-.36-.24.16-.08.32-.2.48-.37,0-.08-.04-.2-.12-.37-.08-.16-.04-.24.12-.24.16-.16.38-.51.66-1.04.28-.53.54-1.04.78-1.53.08,0,.08-.08,0-.24-.08-.16-.04-.28.12-.37.4-.41.6-1.02.6-1.83.64-.9,1.26-1.85,1.86-2.87.6-1.02,1.14-1.89,1.62-2.63.4-.08.64-.06.72.06s.16.35.24.67c-1.52,1.63-2.68,3.46-3.48,5.5Z"/>
        <path class="cls-2" d="M339.35,90.47c.28.65.82,1.06,1.62,1.22.08-.73-.08-1.28-.48-1.65-.4-.37-.68-.87-.84-1.53-.16-1.06-.22-2.14-.18-3.24.04-1.1.12-2.2.24-3.3.12-1.1.22-2.24.3-3.42.08-1.18.08-2.38,0-3.61-.4-.08-.66-.3-.78-.67s-.26-.67-.42-.92c-.32-.24-.6-.45-.84-.61-.24-.16-.52-.37-.84-.61-.56-.41-1.08-.9-1.56-1.47-.48-.57-1.12-.85-1.92-.85-.4,0-.68.08-.84.24-.16.17-.28.29-.36.37-.08.08-.2.08-.36,0-.16-.08-.28-.08-.36,0-.16.17-.24.31-.24.43s-.08.18-.24.18c-.24.08-.34.14-.3.18.04.04-.02.1-.18.18-.32.24-.56.41-.72.49s-.32.24-.48.49c-.08.08-.18.1-.3.06-.12-.04-.22-.06-.3-.06-.24.16-.42.33-.54.49-.12.16-.3.33-.54.49-.16.16-.36.27-.6.3-.24.04-.48.14-.72.31-.16.16-.28.35-.36.55-.08.21-.24.35-.48.43-.16.17-.26.29-.3.37-.04.08-.14.21-.3.37-.08.08-.18.08-.3,0-.12-.08-.22-.08-.3,0-.16.16-.26.33-.3.49-.04.16-.14.29-.3.37-.24.16-.48.29-.72.37s-.44.2-.6.37c-.4.24-.74.55-1.02.92-.28.37-.58.67-.9.92-.64.57-1.18,1.1-1.62,1.59-.44.49-.86.94-1.26,1.34,0,.08-.12.22-.36.43-.24.21-.44.18-.6-.06.96-2.36,2.24-4.76,3.84-7.21.16-.16.28-.24.36-.24s.2-.08.36-.24c.08-.16.1-.34.06-.55-.04-.2.02-.39.18-.55.16-.16.34-.31.54-.43.2-.12.34-.26.42-.43.16-.16.24-.37.24-.61.16-.24.38-.45.66-.61.28-.16.54-.37.78-.61s.42-.49.54-.73c.12-.24.1-.57-.06-.98-.08-.24-.2-.31-.36-.18-.16.12-.34.27-.54.43-.2.16-.4.29-.6.37-.2.08-.34,0-.42-.24.48-.33.56-.69.24-1.1-.32-.41-.4-.94-.24-1.59-.72-.57-1.5-1.3-2.34-2.2-.84-.9-1.82-1.34-2.94-1.34-.48.08-.78.21-.9.37-.12.16-.38.24-.78.24-.16.08-.22.16-.18.24.04.08-.02.16-.18.24-.56.24-1.08.61-1.56,1.1-.48.49-.84.94-1.08,1.34-.32.33-.58.65-.78.98-.2.33-.38.57-.54.73-.72.73-1.16,1.22-1.32,1.47-.16.17-.26.33-.3.49-.04.17-.14.33-.3.49-.24.33-.38.57-.42.73-.04.16-.1.37-.18.61-.08.08-.22.14-.42.18-.2.04-.3.1-.3.18-.08.16-.14.33-.18.49-.04.16-.1.29-.18.37,0,.16-.04.3-.12.43-.08.12-.12.23-.12.3,0,.33-.08.59-.24.8-.16.2-.32.39-.48.55,0,.08-.04.12-.12.12l-.24.24c-.16.24-.34.63-.54,1.16-.2.53-.3.88-.3,1.04s-.06.23-.18.18c-.12-.04-.18-.02-.18.06-.16.49-.32.98-.48,1.47-.16.49-.32.9-.48,1.22-.08.16-.12.3-.12.43s-.08.27-.24.43c0,.24-.08.45-.24.61-.24.73-.46,1.51-.66,2.32s-.38,1.59-.54,2.32c-.64,2.69-1.2,5.48-1.68,8.37-.48,2.89-.6,5.68-.36,8.37.24.9.36,1.39.36,1.47.16.57.28,1.08.36,1.53s.2.75.36.92c.08.17.16.31.24.43s.2.27.36.43c.56.98,1.4,1.63,2.52,1.96.08-.16.12-.35.12-.55s.08-.3.24-.3c.08.41.28.61.6.61s.6.08.84.24c.08,0,.14.1.18.3.04.21.1.35.18.43.4.17.78.39,1.14.67.36.29.74.22,1.14-.18.24-.32.3-.65.18-.98-.12-.32-.3-.65-.54-.98s-.5-.65-.78-.98c-.28-.33-.42-.69-.42-1.1s.02-.81.06-1.22c.04-.41.3-.81.78-1.22,0,.65.1,1.24.3,1.77.2.53.26,1.16.18,1.89-.08.24-.1.49-.06.73s.14.24.3,0c-.16-.65-.16-1.47,0-2.45.16-.98.28-1.63.36-1.95.16-.49.28-.77.36-.86,0-.24.08-.45.24-.61.08-.16.16-.28.24-.37.08-.08.2-.2.36-.37.16-.16.22-.37.18-.61-.04-.24.02-.45.18-.61.08-.16.24-.37.48-.61.4-.49.76-.94,1.08-1.34.32-.41.64-.73.96-.98.08,0,.08-.08,0-.24-.08-.16-.08-.28,0-.36.08-.16.16-.29.24-.37.08-.08.2-.2.36-.37.56-.65,1.24-1.26,2.04-1.83.08-.08.08-.2,0-.37-.08-.16-.08-.28,0-.37.16-.32.5-.63,1.02-.92.52-.28.78-.63.78-1.04,0-.16.02-.2.06-.12.04.08.1.04.18-.12,1.2-1.47,2.36-2.77,3.48-3.91.56-.49,1.12-.96,1.68-1.41s1.08-.92,1.56-1.41c.24-.24.46-.53.66-.86.2-.33.38-.57.54-.73.08-.08.18-.08.3,0,.12.08.22.08.3,0,.08,0,.16-.1.24-.31.08-.2.12-.34.12-.43.4-.41.82-.75,1.26-1.04.44-.28.86-.59,1.26-.92.32-.16.66-.45,1.02-.86.36-.41.58-.41.66,0,.24.65.36,1.45.36,2.38s.2,1.49.6,1.65c.08.08.08.2,0,.37-.08.16-.08.29,0,.37.08.16.24.37.48.61.24.33.44.61.6.86.16.24.32.53.48.86.48-.41.96-.47,1.44-.18s.92.22,1.32-.18c.4.57.74,1.22,1.02,1.96.28.73.82,1.18,1.62,1.34,0-.32-.1-.61-.3-.85-.2-.24-.38-.47-.54-.67-.16-.2-.28-.39-.36-.55-.08-.16-.04-.37.12-.61.4.65.74,1.3,1.02,1.95ZM311.32,88.15l.24-.49c0-.32.06-.59.18-.79s.22-.39.3-.55c.48-1.22.98-2.45,1.5-3.67.52-1.22,1.1-2.4,1.74-3.54.08-.08.12-.24.12-.49s.04-.37.12-.37h.36c.08-.08.1-.2.06-.36-.04-.16-.06-.29-.06-.37h.48c.16-.33.26-.63.3-.92.04-.28.22-.59.54-.92.08-.16.16-.22.24-.18.08.04.12-.06.12-.31,0-.16.08-.24.24-.24s.28-.08.36-.24c0-.08-.02-.2-.06-.37-.04-.16-.02-.28.06-.36.08-.16.22-.31.42-.43.2-.12.38-.26.54-.43.4-.49.82-.96,1.26-1.41s.86-1,1.26-1.65c.4.17.6.49.6.98-1.28,1.14-2.34,2.49-3.18,4.03-.84,1.55-1.66,3.18-2.46,4.89h-.12c-.08,0-.12.04-.12.12-.08.57-.36,1.1-.84,1.59-.16.33-.32.79-.48,1.41s-.4,1.16-.72,1.65c-.4.81-.86,1.55-1.38,2.2-.52.65-.98,1.31-1.38,1.96-.32-.08-.4-.33-.24-.73ZM308.98,101.71c-.44.65-.78,1.43-1.02,2.32-.4-.41-.52-.87-.36-1.41.16-.53.28-.92.36-1.16.08-.08.1-.18.06-.31-.04-.12-.06-.26-.06-.43.08-.16.18-.26.3-.3.12-.04.22-.14.3-.31.24-.24.48-.59.72-1.04s.48-.87.72-1.28c.24.24.3.55.18.92s-.18.63-.18.79c-.24.82-.58,1.55-1.02,2.2ZM311.26,101.1c-.2.08-.34.21-.42.37-.16.16-.24.43-.24.79s-.12.55-.36.55c0,.33-.06.45-.18.37-.12-.08-.14-.2-.06-.37.16-.32.32-.67.48-1.04s.4-.71.72-1.04c.24.16.26.29.06.37ZM328.97,79.59c-3.44,2.69-6.62,5.62-9.54,8.8-2.92,3.18-5.66,6.56-8.22,10.14-.24-.16-.3-.27-.18-.31.12-.04.18-.18.18-.43.24-1.71.96-3.3,2.16-4.77.16-.16.28-.26.36-.31.08-.04.2-.14.36-.3.48-.9,1.22-1.77,2.22-2.63,1-.86,1.94-1.69,2.82-2.51.4-.41.7-.75.9-1.04.2-.28.54-.63,1.02-1.04.24-.16.46-.39.66-.67.2-.28.5-.55.9-.79.16-.16.3-.22.42-.18s.26-.02.42-.18c.24-.16.5-.41.78-.73.28-.32.58-.65.9-.98.56-.41,1.2-.84,1.92-1.28.72-.45,1.36-1,1.92-1.65.16.17.2.29.12.37s-.12.24-.12.49ZM334.19,86.74c-.12-.04-.3-.1-.54-.18,0-.65-.24-1.1-.72-1.34v-.86c.16,0,.24.08.24.24s.04.29.12.37c.08.33.24.57.48.73s.32.45.24.85c.24.17.3.23.18.18Z"/>
      </g>
    </g>
    <path class="cls-2" d="M329.72,106.89c0-2.93,2.25-5.22,5.18-5.22s5.17,2.3,5.17,5.22-2.23,5.21-5.17,5.21-5.18-2.3-5.18-5.21ZM338.79,106.89c0-2.29-1.67-4.11-3.89-4.11s-3.89,1.82-3.89,4.11,1.67,4.1,3.89,4.1,3.89-1.83,3.89-4.1ZM332.3,106.88c0-1.69,1.06-2.84,2.64-2.84,1.33,0,2.3.83,2.52,2.04h-1.47c-.13-.51-.51-.85-1.03-.85-.72,0-1.19.67-1.19,1.65s.47,1.63,1.19,1.63c.5,0,.87-.33,1.02-.83h1.47c-.26,1.26-1.24,2.04-2.52,2.04-1.56,0-2.64-1.15-2.64-2.85Z"/>
  </g>
</svg>